%
M48
M72
T01C0.0315
T02C0.0320
T03C0.0354
T04C0.0394
T05C0.0400
T06C0.0440
T07C0.0470
T08C0.0700
T09C0.1260
T10C0.1280
T11C0.1300
%
T01
X11200Y8000
X12200Y8000
X13200Y8000
X14200Y8000
X15200Y8000
X16200Y8000
X17200Y8000
X18200Y8000
X19200Y8000
X20200Y8000
X21200Y8000
X22200Y8000
X23200Y8000
X24200Y8000
X25200Y8000
X24200Y6375
X27950Y12500
X25200Y14000
X24200Y14000
X23200Y14000
X22200Y14000
X21200Y14000
X20200Y14000
X19200Y14000
X18200Y14000
X17200Y14000
X16200Y14000
X15200Y14000
X14200Y14000
X13200Y14000
X12200Y14000
X11200Y14000
X11200Y13000
X24575Y15125
T02
X23075Y12500
X21575Y12500
X20075Y12500
X18700Y12500
X17200Y12500
X16200Y12500
X15200Y12500
X14200Y12500
X13200Y12500
X12200Y12500
X12200Y9500
X13200Y9500
X14200Y9500
X15200Y9500
X16200Y9500
X17200Y9500
X18700Y9500
X20075Y9500
X21575Y9500
X23075Y9500
X28325Y11000
X29075Y10500
X29075Y11500
X6450Y10500
X4450Y10500
X4450Y11500
X6450Y12500
T03
X32200Y16000
X33200Y16000
X34200Y16000
X33700Y15000
X32700Y15000
X34700Y15000
X34200Y7000
X33200Y7000
X32200Y7000
X32700Y6000
X33700Y6000
X34700Y6000
T04
X27700Y1500
X26700Y1500
X25700Y1500
X24700Y1500
X23700Y1500
X22700Y1500
X20700Y1500
X19700Y1500
X18700Y1500
X17700Y1500
X16700Y1500
X15700Y1500
X16100Y20500
X15100Y20500
X14100Y20500
X13100Y20500
X12100Y20500
X17100Y20500
X18100Y20500
X19100Y20500
X20700Y20500
X21700Y20500
X22700Y20500
X23700Y20500
X24700Y20500
X25700Y20500
X26700Y20500
X27700Y20500
T05
X22200Y16250
X21200Y16250
X20200Y16250
X19200Y16250
X18200Y16250
X17200Y16250
X16200Y16250
X15200Y16250
X14200Y16250
X13200Y16250
X6450Y13750
X5450Y13750
X4450Y13750
X13200Y5750
X14200Y5750
X15200Y5750
X16200Y5750
X17200Y5750
X18200Y5750
X19200Y5750
X20200Y5750
X21200Y5750
X22200Y5750
T06
X8450Y5250
X7200Y5250
X5950Y5250
X4700Y5250
X3450Y5250
X3450Y9250
X4700Y9250
X5950Y9250
X7200Y9250
X8450Y9250
T07
X4450Y1516
X4450Y3484
T08
X10200Y8000
X10200Y14000
X26200Y14000
X26200Y8000
T09
X28700Y14500
X8700Y20500
X8200Y1500
T10
X31450Y3500
X35450Y3500
X35450Y18500
X31450Y18500
T11
X5450Y19650
M30
