G75*
%MOIN*%
%OFA0B0*%
%FSLAX25Y25*%
%IPPOS*%
%LPD*%
%AMOC8*
5,1,8,0,0,1.08239X$1,22.5*
%
%ADD10C,0.00000*%
%ADD11C,0.06000*%
%ADD12C,0.00039*%
%ADD13C,0.06343*%
%ADD14C,0.13600*%
%ADD15OC8,0.06000*%
%ADD16OC8,0.07400*%
%ADD17C,0.13398*%
%ADD18C,0.07400*%
%ADD19C,0.06800*%
%ADD20C,0.13800*%
%ADD21OC8,0.07100*%
%ADD22C,0.07100*%
%ADD23C,0.07850*%
%ADD24R,0.07800X0.07800*%
%ADD25C,0.07800*%
%ADD26C,0.05550*%
D10*
X0027000Y0005000D02*
X0027000Y0215000D01*
X0281000Y0215000D01*
X0287000Y0209000D01*
X0287000Y0164000D01*
X0297000Y0154000D01*
X0297000Y0025000D01*
X0287000Y0015000D01*
X0287000Y0005000D01*
X0027000Y0005000D01*
X0027000Y0214951D01*
X0364421Y0214951D01*
X0364421Y0005000D01*
X0027000Y0005000D01*
X0075701Y0015000D02*
X0075703Y0015158D01*
X0075709Y0015316D01*
X0075719Y0015474D01*
X0075733Y0015632D01*
X0075751Y0015789D01*
X0075772Y0015946D01*
X0075798Y0016102D01*
X0075828Y0016258D01*
X0075861Y0016413D01*
X0075899Y0016566D01*
X0075940Y0016719D01*
X0075985Y0016871D01*
X0076034Y0017022D01*
X0076087Y0017171D01*
X0076143Y0017319D01*
X0076203Y0017465D01*
X0076267Y0017610D01*
X0076335Y0017753D01*
X0076406Y0017895D01*
X0076480Y0018035D01*
X0076558Y0018172D01*
X0076640Y0018308D01*
X0076724Y0018442D01*
X0076813Y0018573D01*
X0076904Y0018702D01*
X0076999Y0018829D01*
X0077096Y0018954D01*
X0077197Y0019076D01*
X0077301Y0019195D01*
X0077408Y0019312D01*
X0077518Y0019426D01*
X0077631Y0019537D01*
X0077746Y0019646D01*
X0077864Y0019751D01*
X0077985Y0019853D01*
X0078108Y0019953D01*
X0078234Y0020049D01*
X0078362Y0020142D01*
X0078492Y0020232D01*
X0078625Y0020318D01*
X0078760Y0020402D01*
X0078896Y0020481D01*
X0079035Y0020558D01*
X0079176Y0020630D01*
X0079318Y0020700D01*
X0079462Y0020765D01*
X0079608Y0020827D01*
X0079755Y0020885D01*
X0079904Y0020940D01*
X0080054Y0020991D01*
X0080205Y0021038D01*
X0080357Y0021081D01*
X0080510Y0021120D01*
X0080665Y0021156D01*
X0080820Y0021187D01*
X0080976Y0021215D01*
X0081132Y0021239D01*
X0081289Y0021259D01*
X0081447Y0021275D01*
X0081604Y0021287D01*
X0081763Y0021295D01*
X0081921Y0021299D01*
X0082079Y0021299D01*
X0082237Y0021295D01*
X0082396Y0021287D01*
X0082553Y0021275D01*
X0082711Y0021259D01*
X0082868Y0021239D01*
X0083024Y0021215D01*
X0083180Y0021187D01*
X0083335Y0021156D01*
X0083490Y0021120D01*
X0083643Y0021081D01*
X0083795Y0021038D01*
X0083946Y0020991D01*
X0084096Y0020940D01*
X0084245Y0020885D01*
X0084392Y0020827D01*
X0084538Y0020765D01*
X0084682Y0020700D01*
X0084824Y0020630D01*
X0084965Y0020558D01*
X0085104Y0020481D01*
X0085240Y0020402D01*
X0085375Y0020318D01*
X0085508Y0020232D01*
X0085638Y0020142D01*
X0085766Y0020049D01*
X0085892Y0019953D01*
X0086015Y0019853D01*
X0086136Y0019751D01*
X0086254Y0019646D01*
X0086369Y0019537D01*
X0086482Y0019426D01*
X0086592Y0019312D01*
X0086699Y0019195D01*
X0086803Y0019076D01*
X0086904Y0018954D01*
X0087001Y0018829D01*
X0087096Y0018702D01*
X0087187Y0018573D01*
X0087276Y0018442D01*
X0087360Y0018308D01*
X0087442Y0018172D01*
X0087520Y0018035D01*
X0087594Y0017895D01*
X0087665Y0017753D01*
X0087733Y0017610D01*
X0087797Y0017465D01*
X0087857Y0017319D01*
X0087913Y0017171D01*
X0087966Y0017022D01*
X0088015Y0016871D01*
X0088060Y0016719D01*
X0088101Y0016566D01*
X0088139Y0016413D01*
X0088172Y0016258D01*
X0088202Y0016102D01*
X0088228Y0015946D01*
X0088249Y0015789D01*
X0088267Y0015632D01*
X0088281Y0015474D01*
X0088291Y0015316D01*
X0088297Y0015158D01*
X0088299Y0015000D01*
X0088297Y0014842D01*
X0088291Y0014684D01*
X0088281Y0014526D01*
X0088267Y0014368D01*
X0088249Y0014211D01*
X0088228Y0014054D01*
X0088202Y0013898D01*
X0088172Y0013742D01*
X0088139Y0013587D01*
X0088101Y0013434D01*
X0088060Y0013281D01*
X0088015Y0013129D01*
X0087966Y0012978D01*
X0087913Y0012829D01*
X0087857Y0012681D01*
X0087797Y0012535D01*
X0087733Y0012390D01*
X0087665Y0012247D01*
X0087594Y0012105D01*
X0087520Y0011965D01*
X0087442Y0011828D01*
X0087360Y0011692D01*
X0087276Y0011558D01*
X0087187Y0011427D01*
X0087096Y0011298D01*
X0087001Y0011171D01*
X0086904Y0011046D01*
X0086803Y0010924D01*
X0086699Y0010805D01*
X0086592Y0010688D01*
X0086482Y0010574D01*
X0086369Y0010463D01*
X0086254Y0010354D01*
X0086136Y0010249D01*
X0086015Y0010147D01*
X0085892Y0010047D01*
X0085766Y0009951D01*
X0085638Y0009858D01*
X0085508Y0009768D01*
X0085375Y0009682D01*
X0085240Y0009598D01*
X0085104Y0009519D01*
X0084965Y0009442D01*
X0084824Y0009370D01*
X0084682Y0009300D01*
X0084538Y0009235D01*
X0084392Y0009173D01*
X0084245Y0009115D01*
X0084096Y0009060D01*
X0083946Y0009009D01*
X0083795Y0008962D01*
X0083643Y0008919D01*
X0083490Y0008880D01*
X0083335Y0008844D01*
X0083180Y0008813D01*
X0083024Y0008785D01*
X0082868Y0008761D01*
X0082711Y0008741D01*
X0082553Y0008725D01*
X0082396Y0008713D01*
X0082237Y0008705D01*
X0082079Y0008701D01*
X0081921Y0008701D01*
X0081763Y0008705D01*
X0081604Y0008713D01*
X0081447Y0008725D01*
X0081289Y0008741D01*
X0081132Y0008761D01*
X0080976Y0008785D01*
X0080820Y0008813D01*
X0080665Y0008844D01*
X0080510Y0008880D01*
X0080357Y0008919D01*
X0080205Y0008962D01*
X0080054Y0009009D01*
X0079904Y0009060D01*
X0079755Y0009115D01*
X0079608Y0009173D01*
X0079462Y0009235D01*
X0079318Y0009300D01*
X0079176Y0009370D01*
X0079035Y0009442D01*
X0078896Y0009519D01*
X0078760Y0009598D01*
X0078625Y0009682D01*
X0078492Y0009768D01*
X0078362Y0009858D01*
X0078234Y0009951D01*
X0078108Y0010047D01*
X0077985Y0010147D01*
X0077864Y0010249D01*
X0077746Y0010354D01*
X0077631Y0010463D01*
X0077518Y0010574D01*
X0077408Y0010688D01*
X0077301Y0010805D01*
X0077197Y0010924D01*
X0077096Y0011046D01*
X0076999Y0011171D01*
X0076904Y0011298D01*
X0076813Y0011427D01*
X0076724Y0011558D01*
X0076640Y0011692D01*
X0076558Y0011828D01*
X0076480Y0011965D01*
X0076406Y0012105D01*
X0076335Y0012247D01*
X0076267Y0012390D01*
X0076203Y0012535D01*
X0076143Y0012681D01*
X0076087Y0012829D01*
X0076034Y0012978D01*
X0075985Y0013129D01*
X0075940Y0013281D01*
X0075899Y0013434D01*
X0075861Y0013587D01*
X0075828Y0013742D01*
X0075798Y0013898D01*
X0075772Y0014054D01*
X0075751Y0014211D01*
X0075733Y0014368D01*
X0075719Y0014526D01*
X0075709Y0014684D01*
X0075703Y0014842D01*
X0075701Y0015000D01*
X0098500Y0080000D02*
X0098502Y0080118D01*
X0098508Y0080236D01*
X0098518Y0080354D01*
X0098532Y0080471D01*
X0098550Y0080588D01*
X0098572Y0080705D01*
X0098597Y0080820D01*
X0098627Y0080934D01*
X0098661Y0081048D01*
X0098698Y0081160D01*
X0098739Y0081271D01*
X0098784Y0081380D01*
X0098832Y0081488D01*
X0098884Y0081594D01*
X0098940Y0081699D01*
X0098999Y0081801D01*
X0099061Y0081901D01*
X0099127Y0081999D01*
X0099196Y0082095D01*
X0099269Y0082189D01*
X0099344Y0082280D01*
X0099423Y0082368D01*
X0099504Y0082454D01*
X0099589Y0082537D01*
X0099676Y0082617D01*
X0099765Y0082694D01*
X0099858Y0082768D01*
X0099952Y0082838D01*
X0100049Y0082906D01*
X0100149Y0082970D01*
X0100250Y0083031D01*
X0100353Y0083088D01*
X0100459Y0083142D01*
X0100566Y0083193D01*
X0100674Y0083239D01*
X0100784Y0083282D01*
X0100896Y0083321D01*
X0101009Y0083357D01*
X0101123Y0083388D01*
X0101238Y0083416D01*
X0101353Y0083440D01*
X0101470Y0083460D01*
X0101587Y0083476D01*
X0101705Y0083488D01*
X0101823Y0083496D01*
X0101941Y0083500D01*
X0102059Y0083500D01*
X0102177Y0083496D01*
X0102295Y0083488D01*
X0102413Y0083476D01*
X0102530Y0083460D01*
X0102647Y0083440D01*
X0102762Y0083416D01*
X0102877Y0083388D01*
X0102991Y0083357D01*
X0103104Y0083321D01*
X0103216Y0083282D01*
X0103326Y0083239D01*
X0103434Y0083193D01*
X0103541Y0083142D01*
X0103647Y0083088D01*
X0103750Y0083031D01*
X0103851Y0082970D01*
X0103951Y0082906D01*
X0104048Y0082838D01*
X0104142Y0082768D01*
X0104235Y0082694D01*
X0104324Y0082617D01*
X0104411Y0082537D01*
X0104496Y0082454D01*
X0104577Y0082368D01*
X0104656Y0082280D01*
X0104731Y0082189D01*
X0104804Y0082095D01*
X0104873Y0081999D01*
X0104939Y0081901D01*
X0105001Y0081801D01*
X0105060Y0081699D01*
X0105116Y0081594D01*
X0105168Y0081488D01*
X0105216Y0081380D01*
X0105261Y0081271D01*
X0105302Y0081160D01*
X0105339Y0081048D01*
X0105373Y0080934D01*
X0105403Y0080820D01*
X0105428Y0080705D01*
X0105450Y0080588D01*
X0105468Y0080471D01*
X0105482Y0080354D01*
X0105492Y0080236D01*
X0105498Y0080118D01*
X0105500Y0080000D01*
X0105498Y0079882D01*
X0105492Y0079764D01*
X0105482Y0079646D01*
X0105468Y0079529D01*
X0105450Y0079412D01*
X0105428Y0079295D01*
X0105403Y0079180D01*
X0105373Y0079066D01*
X0105339Y0078952D01*
X0105302Y0078840D01*
X0105261Y0078729D01*
X0105216Y0078620D01*
X0105168Y0078512D01*
X0105116Y0078406D01*
X0105060Y0078301D01*
X0105001Y0078199D01*
X0104939Y0078099D01*
X0104873Y0078001D01*
X0104804Y0077905D01*
X0104731Y0077811D01*
X0104656Y0077720D01*
X0104577Y0077632D01*
X0104496Y0077546D01*
X0104411Y0077463D01*
X0104324Y0077383D01*
X0104235Y0077306D01*
X0104142Y0077232D01*
X0104048Y0077162D01*
X0103951Y0077094D01*
X0103851Y0077030D01*
X0103750Y0076969D01*
X0103647Y0076912D01*
X0103541Y0076858D01*
X0103434Y0076807D01*
X0103326Y0076761D01*
X0103216Y0076718D01*
X0103104Y0076679D01*
X0102991Y0076643D01*
X0102877Y0076612D01*
X0102762Y0076584D01*
X0102647Y0076560D01*
X0102530Y0076540D01*
X0102413Y0076524D01*
X0102295Y0076512D01*
X0102177Y0076504D01*
X0102059Y0076500D01*
X0101941Y0076500D01*
X0101823Y0076504D01*
X0101705Y0076512D01*
X0101587Y0076524D01*
X0101470Y0076540D01*
X0101353Y0076560D01*
X0101238Y0076584D01*
X0101123Y0076612D01*
X0101009Y0076643D01*
X0100896Y0076679D01*
X0100784Y0076718D01*
X0100674Y0076761D01*
X0100566Y0076807D01*
X0100459Y0076858D01*
X0100353Y0076912D01*
X0100250Y0076969D01*
X0100149Y0077030D01*
X0100049Y0077094D01*
X0099952Y0077162D01*
X0099858Y0077232D01*
X0099765Y0077306D01*
X0099676Y0077383D01*
X0099589Y0077463D01*
X0099504Y0077546D01*
X0099423Y0077632D01*
X0099344Y0077720D01*
X0099269Y0077811D01*
X0099196Y0077905D01*
X0099127Y0078001D01*
X0099061Y0078099D01*
X0098999Y0078199D01*
X0098940Y0078301D01*
X0098884Y0078406D01*
X0098832Y0078512D01*
X0098784Y0078620D01*
X0098739Y0078729D01*
X0098698Y0078840D01*
X0098661Y0078952D01*
X0098627Y0079066D01*
X0098597Y0079180D01*
X0098572Y0079295D01*
X0098550Y0079412D01*
X0098532Y0079529D01*
X0098518Y0079646D01*
X0098508Y0079764D01*
X0098502Y0079882D01*
X0098500Y0080000D01*
X0098500Y0140000D02*
X0098502Y0140118D01*
X0098508Y0140236D01*
X0098518Y0140354D01*
X0098532Y0140471D01*
X0098550Y0140588D01*
X0098572Y0140705D01*
X0098597Y0140820D01*
X0098627Y0140934D01*
X0098661Y0141048D01*
X0098698Y0141160D01*
X0098739Y0141271D01*
X0098784Y0141380D01*
X0098832Y0141488D01*
X0098884Y0141594D01*
X0098940Y0141699D01*
X0098999Y0141801D01*
X0099061Y0141901D01*
X0099127Y0141999D01*
X0099196Y0142095D01*
X0099269Y0142189D01*
X0099344Y0142280D01*
X0099423Y0142368D01*
X0099504Y0142454D01*
X0099589Y0142537D01*
X0099676Y0142617D01*
X0099765Y0142694D01*
X0099858Y0142768D01*
X0099952Y0142838D01*
X0100049Y0142906D01*
X0100149Y0142970D01*
X0100250Y0143031D01*
X0100353Y0143088D01*
X0100459Y0143142D01*
X0100566Y0143193D01*
X0100674Y0143239D01*
X0100784Y0143282D01*
X0100896Y0143321D01*
X0101009Y0143357D01*
X0101123Y0143388D01*
X0101238Y0143416D01*
X0101353Y0143440D01*
X0101470Y0143460D01*
X0101587Y0143476D01*
X0101705Y0143488D01*
X0101823Y0143496D01*
X0101941Y0143500D01*
X0102059Y0143500D01*
X0102177Y0143496D01*
X0102295Y0143488D01*
X0102413Y0143476D01*
X0102530Y0143460D01*
X0102647Y0143440D01*
X0102762Y0143416D01*
X0102877Y0143388D01*
X0102991Y0143357D01*
X0103104Y0143321D01*
X0103216Y0143282D01*
X0103326Y0143239D01*
X0103434Y0143193D01*
X0103541Y0143142D01*
X0103647Y0143088D01*
X0103750Y0143031D01*
X0103851Y0142970D01*
X0103951Y0142906D01*
X0104048Y0142838D01*
X0104142Y0142768D01*
X0104235Y0142694D01*
X0104324Y0142617D01*
X0104411Y0142537D01*
X0104496Y0142454D01*
X0104577Y0142368D01*
X0104656Y0142280D01*
X0104731Y0142189D01*
X0104804Y0142095D01*
X0104873Y0141999D01*
X0104939Y0141901D01*
X0105001Y0141801D01*
X0105060Y0141699D01*
X0105116Y0141594D01*
X0105168Y0141488D01*
X0105216Y0141380D01*
X0105261Y0141271D01*
X0105302Y0141160D01*
X0105339Y0141048D01*
X0105373Y0140934D01*
X0105403Y0140820D01*
X0105428Y0140705D01*
X0105450Y0140588D01*
X0105468Y0140471D01*
X0105482Y0140354D01*
X0105492Y0140236D01*
X0105498Y0140118D01*
X0105500Y0140000D01*
X0105498Y0139882D01*
X0105492Y0139764D01*
X0105482Y0139646D01*
X0105468Y0139529D01*
X0105450Y0139412D01*
X0105428Y0139295D01*
X0105403Y0139180D01*
X0105373Y0139066D01*
X0105339Y0138952D01*
X0105302Y0138840D01*
X0105261Y0138729D01*
X0105216Y0138620D01*
X0105168Y0138512D01*
X0105116Y0138406D01*
X0105060Y0138301D01*
X0105001Y0138199D01*
X0104939Y0138099D01*
X0104873Y0138001D01*
X0104804Y0137905D01*
X0104731Y0137811D01*
X0104656Y0137720D01*
X0104577Y0137632D01*
X0104496Y0137546D01*
X0104411Y0137463D01*
X0104324Y0137383D01*
X0104235Y0137306D01*
X0104142Y0137232D01*
X0104048Y0137162D01*
X0103951Y0137094D01*
X0103851Y0137030D01*
X0103750Y0136969D01*
X0103647Y0136912D01*
X0103541Y0136858D01*
X0103434Y0136807D01*
X0103326Y0136761D01*
X0103216Y0136718D01*
X0103104Y0136679D01*
X0102991Y0136643D01*
X0102877Y0136612D01*
X0102762Y0136584D01*
X0102647Y0136560D01*
X0102530Y0136540D01*
X0102413Y0136524D01*
X0102295Y0136512D01*
X0102177Y0136504D01*
X0102059Y0136500D01*
X0101941Y0136500D01*
X0101823Y0136504D01*
X0101705Y0136512D01*
X0101587Y0136524D01*
X0101470Y0136540D01*
X0101353Y0136560D01*
X0101238Y0136584D01*
X0101123Y0136612D01*
X0101009Y0136643D01*
X0100896Y0136679D01*
X0100784Y0136718D01*
X0100674Y0136761D01*
X0100566Y0136807D01*
X0100459Y0136858D01*
X0100353Y0136912D01*
X0100250Y0136969D01*
X0100149Y0137030D01*
X0100049Y0137094D01*
X0099952Y0137162D01*
X0099858Y0137232D01*
X0099765Y0137306D01*
X0099676Y0137383D01*
X0099589Y0137463D01*
X0099504Y0137546D01*
X0099423Y0137632D01*
X0099344Y0137720D01*
X0099269Y0137811D01*
X0099196Y0137905D01*
X0099127Y0138001D01*
X0099061Y0138099D01*
X0098999Y0138199D01*
X0098940Y0138301D01*
X0098884Y0138406D01*
X0098832Y0138512D01*
X0098784Y0138620D01*
X0098739Y0138729D01*
X0098698Y0138840D01*
X0098661Y0138952D01*
X0098627Y0139066D01*
X0098597Y0139180D01*
X0098572Y0139295D01*
X0098550Y0139412D01*
X0098532Y0139529D01*
X0098518Y0139646D01*
X0098508Y0139764D01*
X0098502Y0139882D01*
X0098500Y0140000D01*
X0048000Y0196500D02*
X0048002Y0196661D01*
X0048008Y0196821D01*
X0048018Y0196982D01*
X0048032Y0197142D01*
X0048050Y0197302D01*
X0048071Y0197461D01*
X0048097Y0197620D01*
X0048127Y0197778D01*
X0048160Y0197935D01*
X0048198Y0198092D01*
X0048239Y0198247D01*
X0048284Y0198401D01*
X0048333Y0198554D01*
X0048386Y0198706D01*
X0048442Y0198857D01*
X0048503Y0199006D01*
X0048566Y0199154D01*
X0048634Y0199300D01*
X0048705Y0199444D01*
X0048779Y0199586D01*
X0048857Y0199727D01*
X0048939Y0199865D01*
X0049024Y0200002D01*
X0049112Y0200136D01*
X0049204Y0200268D01*
X0049299Y0200398D01*
X0049397Y0200526D01*
X0049498Y0200651D01*
X0049602Y0200773D01*
X0049709Y0200893D01*
X0049819Y0201010D01*
X0049932Y0201125D01*
X0050048Y0201236D01*
X0050167Y0201345D01*
X0050288Y0201450D01*
X0050412Y0201553D01*
X0050538Y0201653D01*
X0050666Y0201749D01*
X0050797Y0201842D01*
X0050931Y0201932D01*
X0051066Y0202019D01*
X0051204Y0202102D01*
X0051343Y0202182D01*
X0051485Y0202258D01*
X0051628Y0202331D01*
X0051773Y0202400D01*
X0051920Y0202466D01*
X0052068Y0202528D01*
X0052218Y0202586D01*
X0052369Y0202641D01*
X0052522Y0202692D01*
X0052676Y0202739D01*
X0052831Y0202782D01*
X0052987Y0202821D01*
X0053143Y0202857D01*
X0053301Y0202888D01*
X0053459Y0202916D01*
X0053618Y0202940D01*
X0053778Y0202960D01*
X0053938Y0202976D01*
X0054098Y0202988D01*
X0054259Y0202996D01*
X0054420Y0203000D01*
X0054580Y0203000D01*
X0054741Y0202996D01*
X0054902Y0202988D01*
X0055062Y0202976D01*
X0055222Y0202960D01*
X0055382Y0202940D01*
X0055541Y0202916D01*
X0055699Y0202888D01*
X0055857Y0202857D01*
X0056013Y0202821D01*
X0056169Y0202782D01*
X0056324Y0202739D01*
X0056478Y0202692D01*
X0056631Y0202641D01*
X0056782Y0202586D01*
X0056932Y0202528D01*
X0057080Y0202466D01*
X0057227Y0202400D01*
X0057372Y0202331D01*
X0057515Y0202258D01*
X0057657Y0202182D01*
X0057796Y0202102D01*
X0057934Y0202019D01*
X0058069Y0201932D01*
X0058203Y0201842D01*
X0058334Y0201749D01*
X0058462Y0201653D01*
X0058588Y0201553D01*
X0058712Y0201450D01*
X0058833Y0201345D01*
X0058952Y0201236D01*
X0059068Y0201125D01*
X0059181Y0201010D01*
X0059291Y0200893D01*
X0059398Y0200773D01*
X0059502Y0200651D01*
X0059603Y0200526D01*
X0059701Y0200398D01*
X0059796Y0200268D01*
X0059888Y0200136D01*
X0059976Y0200002D01*
X0060061Y0199865D01*
X0060143Y0199727D01*
X0060221Y0199586D01*
X0060295Y0199444D01*
X0060366Y0199300D01*
X0060434Y0199154D01*
X0060497Y0199006D01*
X0060558Y0198857D01*
X0060614Y0198706D01*
X0060667Y0198554D01*
X0060716Y0198401D01*
X0060761Y0198247D01*
X0060802Y0198092D01*
X0060840Y0197935D01*
X0060873Y0197778D01*
X0060903Y0197620D01*
X0060929Y0197461D01*
X0060950Y0197302D01*
X0060968Y0197142D01*
X0060982Y0196982D01*
X0060992Y0196821D01*
X0060998Y0196661D01*
X0061000Y0196500D01*
X0060998Y0196339D01*
X0060992Y0196179D01*
X0060982Y0196018D01*
X0060968Y0195858D01*
X0060950Y0195698D01*
X0060929Y0195539D01*
X0060903Y0195380D01*
X0060873Y0195222D01*
X0060840Y0195065D01*
X0060802Y0194908D01*
X0060761Y0194753D01*
X0060716Y0194599D01*
X0060667Y0194446D01*
X0060614Y0194294D01*
X0060558Y0194143D01*
X0060497Y0193994D01*
X0060434Y0193846D01*
X0060366Y0193700D01*
X0060295Y0193556D01*
X0060221Y0193414D01*
X0060143Y0193273D01*
X0060061Y0193135D01*
X0059976Y0192998D01*
X0059888Y0192864D01*
X0059796Y0192732D01*
X0059701Y0192602D01*
X0059603Y0192474D01*
X0059502Y0192349D01*
X0059398Y0192227D01*
X0059291Y0192107D01*
X0059181Y0191990D01*
X0059068Y0191875D01*
X0058952Y0191764D01*
X0058833Y0191655D01*
X0058712Y0191550D01*
X0058588Y0191447D01*
X0058462Y0191347D01*
X0058334Y0191251D01*
X0058203Y0191158D01*
X0058069Y0191068D01*
X0057934Y0190981D01*
X0057796Y0190898D01*
X0057657Y0190818D01*
X0057515Y0190742D01*
X0057372Y0190669D01*
X0057227Y0190600D01*
X0057080Y0190534D01*
X0056932Y0190472D01*
X0056782Y0190414D01*
X0056631Y0190359D01*
X0056478Y0190308D01*
X0056324Y0190261D01*
X0056169Y0190218D01*
X0056013Y0190179D01*
X0055857Y0190143D01*
X0055699Y0190112D01*
X0055541Y0190084D01*
X0055382Y0190060D01*
X0055222Y0190040D01*
X0055062Y0190024D01*
X0054902Y0190012D01*
X0054741Y0190004D01*
X0054580Y0190000D01*
X0054420Y0190000D01*
X0054259Y0190004D01*
X0054098Y0190012D01*
X0053938Y0190024D01*
X0053778Y0190040D01*
X0053618Y0190060D01*
X0053459Y0190084D01*
X0053301Y0190112D01*
X0053143Y0190143D01*
X0052987Y0190179D01*
X0052831Y0190218D01*
X0052676Y0190261D01*
X0052522Y0190308D01*
X0052369Y0190359D01*
X0052218Y0190414D01*
X0052068Y0190472D01*
X0051920Y0190534D01*
X0051773Y0190600D01*
X0051628Y0190669D01*
X0051485Y0190742D01*
X0051343Y0190818D01*
X0051204Y0190898D01*
X0051066Y0190981D01*
X0050931Y0191068D01*
X0050797Y0191158D01*
X0050666Y0191251D01*
X0050538Y0191347D01*
X0050412Y0191447D01*
X0050288Y0191550D01*
X0050167Y0191655D01*
X0050048Y0191764D01*
X0049932Y0191875D01*
X0049819Y0191990D01*
X0049709Y0192107D01*
X0049602Y0192227D01*
X0049498Y0192349D01*
X0049397Y0192474D01*
X0049299Y0192602D01*
X0049204Y0192732D01*
X0049112Y0192864D01*
X0049024Y0192998D01*
X0048939Y0193135D01*
X0048857Y0193273D01*
X0048779Y0193414D01*
X0048705Y0193556D01*
X0048634Y0193700D01*
X0048566Y0193846D01*
X0048503Y0193994D01*
X0048442Y0194143D01*
X0048386Y0194294D01*
X0048333Y0194446D01*
X0048284Y0194599D01*
X0048239Y0194753D01*
X0048198Y0194908D01*
X0048160Y0195065D01*
X0048127Y0195222D01*
X0048097Y0195380D01*
X0048071Y0195539D01*
X0048050Y0195698D01*
X0048032Y0195858D01*
X0048018Y0196018D01*
X0048008Y0196179D01*
X0048002Y0196339D01*
X0048000Y0196500D01*
X0080701Y0205000D02*
X0080703Y0205158D01*
X0080709Y0205316D01*
X0080719Y0205474D01*
X0080733Y0205632D01*
X0080751Y0205789D01*
X0080772Y0205946D01*
X0080798Y0206102D01*
X0080828Y0206258D01*
X0080861Y0206413D01*
X0080899Y0206566D01*
X0080940Y0206719D01*
X0080985Y0206871D01*
X0081034Y0207022D01*
X0081087Y0207171D01*
X0081143Y0207319D01*
X0081203Y0207465D01*
X0081267Y0207610D01*
X0081335Y0207753D01*
X0081406Y0207895D01*
X0081480Y0208035D01*
X0081558Y0208172D01*
X0081640Y0208308D01*
X0081724Y0208442D01*
X0081813Y0208573D01*
X0081904Y0208702D01*
X0081999Y0208829D01*
X0082096Y0208954D01*
X0082197Y0209076D01*
X0082301Y0209195D01*
X0082408Y0209312D01*
X0082518Y0209426D01*
X0082631Y0209537D01*
X0082746Y0209646D01*
X0082864Y0209751D01*
X0082985Y0209853D01*
X0083108Y0209953D01*
X0083234Y0210049D01*
X0083362Y0210142D01*
X0083492Y0210232D01*
X0083625Y0210318D01*
X0083760Y0210402D01*
X0083896Y0210481D01*
X0084035Y0210558D01*
X0084176Y0210630D01*
X0084318Y0210700D01*
X0084462Y0210765D01*
X0084608Y0210827D01*
X0084755Y0210885D01*
X0084904Y0210940D01*
X0085054Y0210991D01*
X0085205Y0211038D01*
X0085357Y0211081D01*
X0085510Y0211120D01*
X0085665Y0211156D01*
X0085820Y0211187D01*
X0085976Y0211215D01*
X0086132Y0211239D01*
X0086289Y0211259D01*
X0086447Y0211275D01*
X0086604Y0211287D01*
X0086763Y0211295D01*
X0086921Y0211299D01*
X0087079Y0211299D01*
X0087237Y0211295D01*
X0087396Y0211287D01*
X0087553Y0211275D01*
X0087711Y0211259D01*
X0087868Y0211239D01*
X0088024Y0211215D01*
X0088180Y0211187D01*
X0088335Y0211156D01*
X0088490Y0211120D01*
X0088643Y0211081D01*
X0088795Y0211038D01*
X0088946Y0210991D01*
X0089096Y0210940D01*
X0089245Y0210885D01*
X0089392Y0210827D01*
X0089538Y0210765D01*
X0089682Y0210700D01*
X0089824Y0210630D01*
X0089965Y0210558D01*
X0090104Y0210481D01*
X0090240Y0210402D01*
X0090375Y0210318D01*
X0090508Y0210232D01*
X0090638Y0210142D01*
X0090766Y0210049D01*
X0090892Y0209953D01*
X0091015Y0209853D01*
X0091136Y0209751D01*
X0091254Y0209646D01*
X0091369Y0209537D01*
X0091482Y0209426D01*
X0091592Y0209312D01*
X0091699Y0209195D01*
X0091803Y0209076D01*
X0091904Y0208954D01*
X0092001Y0208829D01*
X0092096Y0208702D01*
X0092187Y0208573D01*
X0092276Y0208442D01*
X0092360Y0208308D01*
X0092442Y0208172D01*
X0092520Y0208035D01*
X0092594Y0207895D01*
X0092665Y0207753D01*
X0092733Y0207610D01*
X0092797Y0207465D01*
X0092857Y0207319D01*
X0092913Y0207171D01*
X0092966Y0207022D01*
X0093015Y0206871D01*
X0093060Y0206719D01*
X0093101Y0206566D01*
X0093139Y0206413D01*
X0093172Y0206258D01*
X0093202Y0206102D01*
X0093228Y0205946D01*
X0093249Y0205789D01*
X0093267Y0205632D01*
X0093281Y0205474D01*
X0093291Y0205316D01*
X0093297Y0205158D01*
X0093299Y0205000D01*
X0093297Y0204842D01*
X0093291Y0204684D01*
X0093281Y0204526D01*
X0093267Y0204368D01*
X0093249Y0204211D01*
X0093228Y0204054D01*
X0093202Y0203898D01*
X0093172Y0203742D01*
X0093139Y0203587D01*
X0093101Y0203434D01*
X0093060Y0203281D01*
X0093015Y0203129D01*
X0092966Y0202978D01*
X0092913Y0202829D01*
X0092857Y0202681D01*
X0092797Y0202535D01*
X0092733Y0202390D01*
X0092665Y0202247D01*
X0092594Y0202105D01*
X0092520Y0201965D01*
X0092442Y0201828D01*
X0092360Y0201692D01*
X0092276Y0201558D01*
X0092187Y0201427D01*
X0092096Y0201298D01*
X0092001Y0201171D01*
X0091904Y0201046D01*
X0091803Y0200924D01*
X0091699Y0200805D01*
X0091592Y0200688D01*
X0091482Y0200574D01*
X0091369Y0200463D01*
X0091254Y0200354D01*
X0091136Y0200249D01*
X0091015Y0200147D01*
X0090892Y0200047D01*
X0090766Y0199951D01*
X0090638Y0199858D01*
X0090508Y0199768D01*
X0090375Y0199682D01*
X0090240Y0199598D01*
X0090104Y0199519D01*
X0089965Y0199442D01*
X0089824Y0199370D01*
X0089682Y0199300D01*
X0089538Y0199235D01*
X0089392Y0199173D01*
X0089245Y0199115D01*
X0089096Y0199060D01*
X0088946Y0199009D01*
X0088795Y0198962D01*
X0088643Y0198919D01*
X0088490Y0198880D01*
X0088335Y0198844D01*
X0088180Y0198813D01*
X0088024Y0198785D01*
X0087868Y0198761D01*
X0087711Y0198741D01*
X0087553Y0198725D01*
X0087396Y0198713D01*
X0087237Y0198705D01*
X0087079Y0198701D01*
X0086921Y0198701D01*
X0086763Y0198705D01*
X0086604Y0198713D01*
X0086447Y0198725D01*
X0086289Y0198741D01*
X0086132Y0198761D01*
X0085976Y0198785D01*
X0085820Y0198813D01*
X0085665Y0198844D01*
X0085510Y0198880D01*
X0085357Y0198919D01*
X0085205Y0198962D01*
X0085054Y0199009D01*
X0084904Y0199060D01*
X0084755Y0199115D01*
X0084608Y0199173D01*
X0084462Y0199235D01*
X0084318Y0199300D01*
X0084176Y0199370D01*
X0084035Y0199442D01*
X0083896Y0199519D01*
X0083760Y0199598D01*
X0083625Y0199682D01*
X0083492Y0199768D01*
X0083362Y0199858D01*
X0083234Y0199951D01*
X0083108Y0200047D01*
X0082985Y0200147D01*
X0082864Y0200249D01*
X0082746Y0200354D01*
X0082631Y0200463D01*
X0082518Y0200574D01*
X0082408Y0200688D01*
X0082301Y0200805D01*
X0082197Y0200924D01*
X0082096Y0201046D01*
X0081999Y0201171D01*
X0081904Y0201298D01*
X0081813Y0201427D01*
X0081724Y0201558D01*
X0081640Y0201692D01*
X0081558Y0201828D01*
X0081480Y0201965D01*
X0081406Y0202105D01*
X0081335Y0202247D01*
X0081267Y0202390D01*
X0081203Y0202535D01*
X0081143Y0202681D01*
X0081087Y0202829D01*
X0081034Y0202978D01*
X0080985Y0203129D01*
X0080940Y0203281D01*
X0080899Y0203434D01*
X0080861Y0203587D01*
X0080828Y0203742D01*
X0080798Y0203898D01*
X0080772Y0204054D01*
X0080751Y0204211D01*
X0080733Y0204368D01*
X0080719Y0204526D01*
X0080709Y0204684D01*
X0080703Y0204842D01*
X0080701Y0205000D01*
X0258500Y0140000D02*
X0258502Y0140118D01*
X0258508Y0140236D01*
X0258518Y0140354D01*
X0258532Y0140471D01*
X0258550Y0140588D01*
X0258572Y0140705D01*
X0258597Y0140820D01*
X0258627Y0140934D01*
X0258661Y0141048D01*
X0258698Y0141160D01*
X0258739Y0141271D01*
X0258784Y0141380D01*
X0258832Y0141488D01*
X0258884Y0141594D01*
X0258940Y0141699D01*
X0258999Y0141801D01*
X0259061Y0141901D01*
X0259127Y0141999D01*
X0259196Y0142095D01*
X0259269Y0142189D01*
X0259344Y0142280D01*
X0259423Y0142368D01*
X0259504Y0142454D01*
X0259589Y0142537D01*
X0259676Y0142617D01*
X0259765Y0142694D01*
X0259858Y0142768D01*
X0259952Y0142838D01*
X0260049Y0142906D01*
X0260149Y0142970D01*
X0260250Y0143031D01*
X0260353Y0143088D01*
X0260459Y0143142D01*
X0260566Y0143193D01*
X0260674Y0143239D01*
X0260784Y0143282D01*
X0260896Y0143321D01*
X0261009Y0143357D01*
X0261123Y0143388D01*
X0261238Y0143416D01*
X0261353Y0143440D01*
X0261470Y0143460D01*
X0261587Y0143476D01*
X0261705Y0143488D01*
X0261823Y0143496D01*
X0261941Y0143500D01*
X0262059Y0143500D01*
X0262177Y0143496D01*
X0262295Y0143488D01*
X0262413Y0143476D01*
X0262530Y0143460D01*
X0262647Y0143440D01*
X0262762Y0143416D01*
X0262877Y0143388D01*
X0262991Y0143357D01*
X0263104Y0143321D01*
X0263216Y0143282D01*
X0263326Y0143239D01*
X0263434Y0143193D01*
X0263541Y0143142D01*
X0263647Y0143088D01*
X0263750Y0143031D01*
X0263851Y0142970D01*
X0263951Y0142906D01*
X0264048Y0142838D01*
X0264142Y0142768D01*
X0264235Y0142694D01*
X0264324Y0142617D01*
X0264411Y0142537D01*
X0264496Y0142454D01*
X0264577Y0142368D01*
X0264656Y0142280D01*
X0264731Y0142189D01*
X0264804Y0142095D01*
X0264873Y0141999D01*
X0264939Y0141901D01*
X0265001Y0141801D01*
X0265060Y0141699D01*
X0265116Y0141594D01*
X0265168Y0141488D01*
X0265216Y0141380D01*
X0265261Y0141271D01*
X0265302Y0141160D01*
X0265339Y0141048D01*
X0265373Y0140934D01*
X0265403Y0140820D01*
X0265428Y0140705D01*
X0265450Y0140588D01*
X0265468Y0140471D01*
X0265482Y0140354D01*
X0265492Y0140236D01*
X0265498Y0140118D01*
X0265500Y0140000D01*
X0265498Y0139882D01*
X0265492Y0139764D01*
X0265482Y0139646D01*
X0265468Y0139529D01*
X0265450Y0139412D01*
X0265428Y0139295D01*
X0265403Y0139180D01*
X0265373Y0139066D01*
X0265339Y0138952D01*
X0265302Y0138840D01*
X0265261Y0138729D01*
X0265216Y0138620D01*
X0265168Y0138512D01*
X0265116Y0138406D01*
X0265060Y0138301D01*
X0265001Y0138199D01*
X0264939Y0138099D01*
X0264873Y0138001D01*
X0264804Y0137905D01*
X0264731Y0137811D01*
X0264656Y0137720D01*
X0264577Y0137632D01*
X0264496Y0137546D01*
X0264411Y0137463D01*
X0264324Y0137383D01*
X0264235Y0137306D01*
X0264142Y0137232D01*
X0264048Y0137162D01*
X0263951Y0137094D01*
X0263851Y0137030D01*
X0263750Y0136969D01*
X0263647Y0136912D01*
X0263541Y0136858D01*
X0263434Y0136807D01*
X0263326Y0136761D01*
X0263216Y0136718D01*
X0263104Y0136679D01*
X0262991Y0136643D01*
X0262877Y0136612D01*
X0262762Y0136584D01*
X0262647Y0136560D01*
X0262530Y0136540D01*
X0262413Y0136524D01*
X0262295Y0136512D01*
X0262177Y0136504D01*
X0262059Y0136500D01*
X0261941Y0136500D01*
X0261823Y0136504D01*
X0261705Y0136512D01*
X0261587Y0136524D01*
X0261470Y0136540D01*
X0261353Y0136560D01*
X0261238Y0136584D01*
X0261123Y0136612D01*
X0261009Y0136643D01*
X0260896Y0136679D01*
X0260784Y0136718D01*
X0260674Y0136761D01*
X0260566Y0136807D01*
X0260459Y0136858D01*
X0260353Y0136912D01*
X0260250Y0136969D01*
X0260149Y0137030D01*
X0260049Y0137094D01*
X0259952Y0137162D01*
X0259858Y0137232D01*
X0259765Y0137306D01*
X0259676Y0137383D01*
X0259589Y0137463D01*
X0259504Y0137546D01*
X0259423Y0137632D01*
X0259344Y0137720D01*
X0259269Y0137811D01*
X0259196Y0137905D01*
X0259127Y0138001D01*
X0259061Y0138099D01*
X0258999Y0138199D01*
X0258940Y0138301D01*
X0258884Y0138406D01*
X0258832Y0138512D01*
X0258784Y0138620D01*
X0258739Y0138729D01*
X0258698Y0138840D01*
X0258661Y0138952D01*
X0258627Y0139066D01*
X0258597Y0139180D01*
X0258572Y0139295D01*
X0258550Y0139412D01*
X0258532Y0139529D01*
X0258518Y0139646D01*
X0258508Y0139764D01*
X0258502Y0139882D01*
X0258500Y0140000D01*
X0280701Y0145000D02*
X0280703Y0145158D01*
X0280709Y0145316D01*
X0280719Y0145474D01*
X0280733Y0145632D01*
X0280751Y0145789D01*
X0280772Y0145946D01*
X0280798Y0146102D01*
X0280828Y0146258D01*
X0280861Y0146413D01*
X0280899Y0146566D01*
X0280940Y0146719D01*
X0280985Y0146871D01*
X0281034Y0147022D01*
X0281087Y0147171D01*
X0281143Y0147319D01*
X0281203Y0147465D01*
X0281267Y0147610D01*
X0281335Y0147753D01*
X0281406Y0147895D01*
X0281480Y0148035D01*
X0281558Y0148172D01*
X0281640Y0148308D01*
X0281724Y0148442D01*
X0281813Y0148573D01*
X0281904Y0148702D01*
X0281999Y0148829D01*
X0282096Y0148954D01*
X0282197Y0149076D01*
X0282301Y0149195D01*
X0282408Y0149312D01*
X0282518Y0149426D01*
X0282631Y0149537D01*
X0282746Y0149646D01*
X0282864Y0149751D01*
X0282985Y0149853D01*
X0283108Y0149953D01*
X0283234Y0150049D01*
X0283362Y0150142D01*
X0283492Y0150232D01*
X0283625Y0150318D01*
X0283760Y0150402D01*
X0283896Y0150481D01*
X0284035Y0150558D01*
X0284176Y0150630D01*
X0284318Y0150700D01*
X0284462Y0150765D01*
X0284608Y0150827D01*
X0284755Y0150885D01*
X0284904Y0150940D01*
X0285054Y0150991D01*
X0285205Y0151038D01*
X0285357Y0151081D01*
X0285510Y0151120D01*
X0285665Y0151156D01*
X0285820Y0151187D01*
X0285976Y0151215D01*
X0286132Y0151239D01*
X0286289Y0151259D01*
X0286447Y0151275D01*
X0286604Y0151287D01*
X0286763Y0151295D01*
X0286921Y0151299D01*
X0287079Y0151299D01*
X0287237Y0151295D01*
X0287396Y0151287D01*
X0287553Y0151275D01*
X0287711Y0151259D01*
X0287868Y0151239D01*
X0288024Y0151215D01*
X0288180Y0151187D01*
X0288335Y0151156D01*
X0288490Y0151120D01*
X0288643Y0151081D01*
X0288795Y0151038D01*
X0288946Y0150991D01*
X0289096Y0150940D01*
X0289245Y0150885D01*
X0289392Y0150827D01*
X0289538Y0150765D01*
X0289682Y0150700D01*
X0289824Y0150630D01*
X0289965Y0150558D01*
X0290104Y0150481D01*
X0290240Y0150402D01*
X0290375Y0150318D01*
X0290508Y0150232D01*
X0290638Y0150142D01*
X0290766Y0150049D01*
X0290892Y0149953D01*
X0291015Y0149853D01*
X0291136Y0149751D01*
X0291254Y0149646D01*
X0291369Y0149537D01*
X0291482Y0149426D01*
X0291592Y0149312D01*
X0291699Y0149195D01*
X0291803Y0149076D01*
X0291904Y0148954D01*
X0292001Y0148829D01*
X0292096Y0148702D01*
X0292187Y0148573D01*
X0292276Y0148442D01*
X0292360Y0148308D01*
X0292442Y0148172D01*
X0292520Y0148035D01*
X0292594Y0147895D01*
X0292665Y0147753D01*
X0292733Y0147610D01*
X0292797Y0147465D01*
X0292857Y0147319D01*
X0292913Y0147171D01*
X0292966Y0147022D01*
X0293015Y0146871D01*
X0293060Y0146719D01*
X0293101Y0146566D01*
X0293139Y0146413D01*
X0293172Y0146258D01*
X0293202Y0146102D01*
X0293228Y0145946D01*
X0293249Y0145789D01*
X0293267Y0145632D01*
X0293281Y0145474D01*
X0293291Y0145316D01*
X0293297Y0145158D01*
X0293299Y0145000D01*
X0293297Y0144842D01*
X0293291Y0144684D01*
X0293281Y0144526D01*
X0293267Y0144368D01*
X0293249Y0144211D01*
X0293228Y0144054D01*
X0293202Y0143898D01*
X0293172Y0143742D01*
X0293139Y0143587D01*
X0293101Y0143434D01*
X0293060Y0143281D01*
X0293015Y0143129D01*
X0292966Y0142978D01*
X0292913Y0142829D01*
X0292857Y0142681D01*
X0292797Y0142535D01*
X0292733Y0142390D01*
X0292665Y0142247D01*
X0292594Y0142105D01*
X0292520Y0141965D01*
X0292442Y0141828D01*
X0292360Y0141692D01*
X0292276Y0141558D01*
X0292187Y0141427D01*
X0292096Y0141298D01*
X0292001Y0141171D01*
X0291904Y0141046D01*
X0291803Y0140924D01*
X0291699Y0140805D01*
X0291592Y0140688D01*
X0291482Y0140574D01*
X0291369Y0140463D01*
X0291254Y0140354D01*
X0291136Y0140249D01*
X0291015Y0140147D01*
X0290892Y0140047D01*
X0290766Y0139951D01*
X0290638Y0139858D01*
X0290508Y0139768D01*
X0290375Y0139682D01*
X0290240Y0139598D01*
X0290104Y0139519D01*
X0289965Y0139442D01*
X0289824Y0139370D01*
X0289682Y0139300D01*
X0289538Y0139235D01*
X0289392Y0139173D01*
X0289245Y0139115D01*
X0289096Y0139060D01*
X0288946Y0139009D01*
X0288795Y0138962D01*
X0288643Y0138919D01*
X0288490Y0138880D01*
X0288335Y0138844D01*
X0288180Y0138813D01*
X0288024Y0138785D01*
X0287868Y0138761D01*
X0287711Y0138741D01*
X0287553Y0138725D01*
X0287396Y0138713D01*
X0287237Y0138705D01*
X0287079Y0138701D01*
X0286921Y0138701D01*
X0286763Y0138705D01*
X0286604Y0138713D01*
X0286447Y0138725D01*
X0286289Y0138741D01*
X0286132Y0138761D01*
X0285976Y0138785D01*
X0285820Y0138813D01*
X0285665Y0138844D01*
X0285510Y0138880D01*
X0285357Y0138919D01*
X0285205Y0138962D01*
X0285054Y0139009D01*
X0284904Y0139060D01*
X0284755Y0139115D01*
X0284608Y0139173D01*
X0284462Y0139235D01*
X0284318Y0139300D01*
X0284176Y0139370D01*
X0284035Y0139442D01*
X0283896Y0139519D01*
X0283760Y0139598D01*
X0283625Y0139682D01*
X0283492Y0139768D01*
X0283362Y0139858D01*
X0283234Y0139951D01*
X0283108Y0140047D01*
X0282985Y0140147D01*
X0282864Y0140249D01*
X0282746Y0140354D01*
X0282631Y0140463D01*
X0282518Y0140574D01*
X0282408Y0140688D01*
X0282301Y0140805D01*
X0282197Y0140924D01*
X0282096Y0141046D01*
X0281999Y0141171D01*
X0281904Y0141298D01*
X0281813Y0141427D01*
X0281724Y0141558D01*
X0281640Y0141692D01*
X0281558Y0141828D01*
X0281480Y0141965D01*
X0281406Y0142105D01*
X0281335Y0142247D01*
X0281267Y0142390D01*
X0281203Y0142535D01*
X0281143Y0142681D01*
X0281087Y0142829D01*
X0281034Y0142978D01*
X0280985Y0143129D01*
X0280940Y0143281D01*
X0280899Y0143434D01*
X0280861Y0143587D01*
X0280828Y0143742D01*
X0280798Y0143898D01*
X0280772Y0144054D01*
X0280751Y0144211D01*
X0280733Y0144368D01*
X0280719Y0144526D01*
X0280709Y0144684D01*
X0280703Y0144842D01*
X0280701Y0145000D01*
X0308100Y0185000D02*
X0308102Y0185160D01*
X0308108Y0185319D01*
X0308118Y0185478D01*
X0308132Y0185637D01*
X0308150Y0185796D01*
X0308171Y0185954D01*
X0308197Y0186111D01*
X0308227Y0186268D01*
X0308260Y0186424D01*
X0308298Y0186579D01*
X0308339Y0186733D01*
X0308384Y0186886D01*
X0308433Y0187038D01*
X0308486Y0187189D01*
X0308542Y0187338D01*
X0308603Y0187486D01*
X0308666Y0187632D01*
X0308734Y0187777D01*
X0308805Y0187920D01*
X0308879Y0188061D01*
X0308957Y0188200D01*
X0309039Y0188337D01*
X0309124Y0188472D01*
X0309212Y0188605D01*
X0309304Y0188736D01*
X0309398Y0188864D01*
X0309496Y0188990D01*
X0309597Y0189114D01*
X0309701Y0189235D01*
X0309808Y0189353D01*
X0309918Y0189469D01*
X0310031Y0189582D01*
X0310147Y0189692D01*
X0310265Y0189799D01*
X0310386Y0189903D01*
X0310510Y0190004D01*
X0310636Y0190102D01*
X0310764Y0190196D01*
X0310895Y0190288D01*
X0311028Y0190376D01*
X0311163Y0190461D01*
X0311300Y0190543D01*
X0311439Y0190621D01*
X0311580Y0190695D01*
X0311723Y0190766D01*
X0311868Y0190834D01*
X0312014Y0190897D01*
X0312162Y0190958D01*
X0312311Y0191014D01*
X0312462Y0191067D01*
X0312614Y0191116D01*
X0312767Y0191161D01*
X0312921Y0191202D01*
X0313076Y0191240D01*
X0313232Y0191273D01*
X0313389Y0191303D01*
X0313546Y0191329D01*
X0313704Y0191350D01*
X0313863Y0191368D01*
X0314022Y0191382D01*
X0314181Y0191392D01*
X0314340Y0191398D01*
X0314500Y0191400D01*
X0314660Y0191398D01*
X0314819Y0191392D01*
X0314978Y0191382D01*
X0315137Y0191368D01*
X0315296Y0191350D01*
X0315454Y0191329D01*
X0315611Y0191303D01*
X0315768Y0191273D01*
X0315924Y0191240D01*
X0316079Y0191202D01*
X0316233Y0191161D01*
X0316386Y0191116D01*
X0316538Y0191067D01*
X0316689Y0191014D01*
X0316838Y0190958D01*
X0316986Y0190897D01*
X0317132Y0190834D01*
X0317277Y0190766D01*
X0317420Y0190695D01*
X0317561Y0190621D01*
X0317700Y0190543D01*
X0317837Y0190461D01*
X0317972Y0190376D01*
X0318105Y0190288D01*
X0318236Y0190196D01*
X0318364Y0190102D01*
X0318490Y0190004D01*
X0318614Y0189903D01*
X0318735Y0189799D01*
X0318853Y0189692D01*
X0318969Y0189582D01*
X0319082Y0189469D01*
X0319192Y0189353D01*
X0319299Y0189235D01*
X0319403Y0189114D01*
X0319504Y0188990D01*
X0319602Y0188864D01*
X0319696Y0188736D01*
X0319788Y0188605D01*
X0319876Y0188472D01*
X0319961Y0188337D01*
X0320043Y0188200D01*
X0320121Y0188061D01*
X0320195Y0187920D01*
X0320266Y0187777D01*
X0320334Y0187632D01*
X0320397Y0187486D01*
X0320458Y0187338D01*
X0320514Y0187189D01*
X0320567Y0187038D01*
X0320616Y0186886D01*
X0320661Y0186733D01*
X0320702Y0186579D01*
X0320740Y0186424D01*
X0320773Y0186268D01*
X0320803Y0186111D01*
X0320829Y0185954D01*
X0320850Y0185796D01*
X0320868Y0185637D01*
X0320882Y0185478D01*
X0320892Y0185319D01*
X0320898Y0185160D01*
X0320900Y0185000D01*
X0320898Y0184840D01*
X0320892Y0184681D01*
X0320882Y0184522D01*
X0320868Y0184363D01*
X0320850Y0184204D01*
X0320829Y0184046D01*
X0320803Y0183889D01*
X0320773Y0183732D01*
X0320740Y0183576D01*
X0320702Y0183421D01*
X0320661Y0183267D01*
X0320616Y0183114D01*
X0320567Y0182962D01*
X0320514Y0182811D01*
X0320458Y0182662D01*
X0320397Y0182514D01*
X0320334Y0182368D01*
X0320266Y0182223D01*
X0320195Y0182080D01*
X0320121Y0181939D01*
X0320043Y0181800D01*
X0319961Y0181663D01*
X0319876Y0181528D01*
X0319788Y0181395D01*
X0319696Y0181264D01*
X0319602Y0181136D01*
X0319504Y0181010D01*
X0319403Y0180886D01*
X0319299Y0180765D01*
X0319192Y0180647D01*
X0319082Y0180531D01*
X0318969Y0180418D01*
X0318853Y0180308D01*
X0318735Y0180201D01*
X0318614Y0180097D01*
X0318490Y0179996D01*
X0318364Y0179898D01*
X0318236Y0179804D01*
X0318105Y0179712D01*
X0317972Y0179624D01*
X0317837Y0179539D01*
X0317700Y0179457D01*
X0317561Y0179379D01*
X0317420Y0179305D01*
X0317277Y0179234D01*
X0317132Y0179166D01*
X0316986Y0179103D01*
X0316838Y0179042D01*
X0316689Y0178986D01*
X0316538Y0178933D01*
X0316386Y0178884D01*
X0316233Y0178839D01*
X0316079Y0178798D01*
X0315924Y0178760D01*
X0315768Y0178727D01*
X0315611Y0178697D01*
X0315454Y0178671D01*
X0315296Y0178650D01*
X0315137Y0178632D01*
X0314978Y0178618D01*
X0314819Y0178608D01*
X0314660Y0178602D01*
X0314500Y0178600D01*
X0314340Y0178602D01*
X0314181Y0178608D01*
X0314022Y0178618D01*
X0313863Y0178632D01*
X0313704Y0178650D01*
X0313546Y0178671D01*
X0313389Y0178697D01*
X0313232Y0178727D01*
X0313076Y0178760D01*
X0312921Y0178798D01*
X0312767Y0178839D01*
X0312614Y0178884D01*
X0312462Y0178933D01*
X0312311Y0178986D01*
X0312162Y0179042D01*
X0312014Y0179103D01*
X0311868Y0179166D01*
X0311723Y0179234D01*
X0311580Y0179305D01*
X0311439Y0179379D01*
X0311300Y0179457D01*
X0311163Y0179539D01*
X0311028Y0179624D01*
X0310895Y0179712D01*
X0310764Y0179804D01*
X0310636Y0179898D01*
X0310510Y0179996D01*
X0310386Y0180097D01*
X0310265Y0180201D01*
X0310147Y0180308D01*
X0310031Y0180418D01*
X0309918Y0180531D01*
X0309808Y0180647D01*
X0309701Y0180765D01*
X0309597Y0180886D01*
X0309496Y0181010D01*
X0309398Y0181136D01*
X0309304Y0181264D01*
X0309212Y0181395D01*
X0309124Y0181528D01*
X0309039Y0181663D01*
X0308957Y0181800D01*
X0308879Y0181939D01*
X0308805Y0182080D01*
X0308734Y0182223D01*
X0308666Y0182368D01*
X0308603Y0182514D01*
X0308542Y0182662D01*
X0308486Y0182811D01*
X0308433Y0182962D01*
X0308384Y0183114D01*
X0308339Y0183267D01*
X0308298Y0183421D01*
X0308260Y0183576D01*
X0308227Y0183732D01*
X0308197Y0183889D01*
X0308171Y0184046D01*
X0308150Y0184204D01*
X0308132Y0184363D01*
X0308118Y0184522D01*
X0308108Y0184681D01*
X0308102Y0184840D01*
X0308100Y0185000D01*
X0348100Y0185000D02*
X0348102Y0185160D01*
X0348108Y0185319D01*
X0348118Y0185478D01*
X0348132Y0185637D01*
X0348150Y0185796D01*
X0348171Y0185954D01*
X0348197Y0186111D01*
X0348227Y0186268D01*
X0348260Y0186424D01*
X0348298Y0186579D01*
X0348339Y0186733D01*
X0348384Y0186886D01*
X0348433Y0187038D01*
X0348486Y0187189D01*
X0348542Y0187338D01*
X0348603Y0187486D01*
X0348666Y0187632D01*
X0348734Y0187777D01*
X0348805Y0187920D01*
X0348879Y0188061D01*
X0348957Y0188200D01*
X0349039Y0188337D01*
X0349124Y0188472D01*
X0349212Y0188605D01*
X0349304Y0188736D01*
X0349398Y0188864D01*
X0349496Y0188990D01*
X0349597Y0189114D01*
X0349701Y0189235D01*
X0349808Y0189353D01*
X0349918Y0189469D01*
X0350031Y0189582D01*
X0350147Y0189692D01*
X0350265Y0189799D01*
X0350386Y0189903D01*
X0350510Y0190004D01*
X0350636Y0190102D01*
X0350764Y0190196D01*
X0350895Y0190288D01*
X0351028Y0190376D01*
X0351163Y0190461D01*
X0351300Y0190543D01*
X0351439Y0190621D01*
X0351580Y0190695D01*
X0351723Y0190766D01*
X0351868Y0190834D01*
X0352014Y0190897D01*
X0352162Y0190958D01*
X0352311Y0191014D01*
X0352462Y0191067D01*
X0352614Y0191116D01*
X0352767Y0191161D01*
X0352921Y0191202D01*
X0353076Y0191240D01*
X0353232Y0191273D01*
X0353389Y0191303D01*
X0353546Y0191329D01*
X0353704Y0191350D01*
X0353863Y0191368D01*
X0354022Y0191382D01*
X0354181Y0191392D01*
X0354340Y0191398D01*
X0354500Y0191400D01*
X0354660Y0191398D01*
X0354819Y0191392D01*
X0354978Y0191382D01*
X0355137Y0191368D01*
X0355296Y0191350D01*
X0355454Y0191329D01*
X0355611Y0191303D01*
X0355768Y0191273D01*
X0355924Y0191240D01*
X0356079Y0191202D01*
X0356233Y0191161D01*
X0356386Y0191116D01*
X0356538Y0191067D01*
X0356689Y0191014D01*
X0356838Y0190958D01*
X0356986Y0190897D01*
X0357132Y0190834D01*
X0357277Y0190766D01*
X0357420Y0190695D01*
X0357561Y0190621D01*
X0357700Y0190543D01*
X0357837Y0190461D01*
X0357972Y0190376D01*
X0358105Y0190288D01*
X0358236Y0190196D01*
X0358364Y0190102D01*
X0358490Y0190004D01*
X0358614Y0189903D01*
X0358735Y0189799D01*
X0358853Y0189692D01*
X0358969Y0189582D01*
X0359082Y0189469D01*
X0359192Y0189353D01*
X0359299Y0189235D01*
X0359403Y0189114D01*
X0359504Y0188990D01*
X0359602Y0188864D01*
X0359696Y0188736D01*
X0359788Y0188605D01*
X0359876Y0188472D01*
X0359961Y0188337D01*
X0360043Y0188200D01*
X0360121Y0188061D01*
X0360195Y0187920D01*
X0360266Y0187777D01*
X0360334Y0187632D01*
X0360397Y0187486D01*
X0360458Y0187338D01*
X0360514Y0187189D01*
X0360567Y0187038D01*
X0360616Y0186886D01*
X0360661Y0186733D01*
X0360702Y0186579D01*
X0360740Y0186424D01*
X0360773Y0186268D01*
X0360803Y0186111D01*
X0360829Y0185954D01*
X0360850Y0185796D01*
X0360868Y0185637D01*
X0360882Y0185478D01*
X0360892Y0185319D01*
X0360898Y0185160D01*
X0360900Y0185000D01*
X0360898Y0184840D01*
X0360892Y0184681D01*
X0360882Y0184522D01*
X0360868Y0184363D01*
X0360850Y0184204D01*
X0360829Y0184046D01*
X0360803Y0183889D01*
X0360773Y0183732D01*
X0360740Y0183576D01*
X0360702Y0183421D01*
X0360661Y0183267D01*
X0360616Y0183114D01*
X0360567Y0182962D01*
X0360514Y0182811D01*
X0360458Y0182662D01*
X0360397Y0182514D01*
X0360334Y0182368D01*
X0360266Y0182223D01*
X0360195Y0182080D01*
X0360121Y0181939D01*
X0360043Y0181800D01*
X0359961Y0181663D01*
X0359876Y0181528D01*
X0359788Y0181395D01*
X0359696Y0181264D01*
X0359602Y0181136D01*
X0359504Y0181010D01*
X0359403Y0180886D01*
X0359299Y0180765D01*
X0359192Y0180647D01*
X0359082Y0180531D01*
X0358969Y0180418D01*
X0358853Y0180308D01*
X0358735Y0180201D01*
X0358614Y0180097D01*
X0358490Y0179996D01*
X0358364Y0179898D01*
X0358236Y0179804D01*
X0358105Y0179712D01*
X0357972Y0179624D01*
X0357837Y0179539D01*
X0357700Y0179457D01*
X0357561Y0179379D01*
X0357420Y0179305D01*
X0357277Y0179234D01*
X0357132Y0179166D01*
X0356986Y0179103D01*
X0356838Y0179042D01*
X0356689Y0178986D01*
X0356538Y0178933D01*
X0356386Y0178884D01*
X0356233Y0178839D01*
X0356079Y0178798D01*
X0355924Y0178760D01*
X0355768Y0178727D01*
X0355611Y0178697D01*
X0355454Y0178671D01*
X0355296Y0178650D01*
X0355137Y0178632D01*
X0354978Y0178618D01*
X0354819Y0178608D01*
X0354660Y0178602D01*
X0354500Y0178600D01*
X0354340Y0178602D01*
X0354181Y0178608D01*
X0354022Y0178618D01*
X0353863Y0178632D01*
X0353704Y0178650D01*
X0353546Y0178671D01*
X0353389Y0178697D01*
X0353232Y0178727D01*
X0353076Y0178760D01*
X0352921Y0178798D01*
X0352767Y0178839D01*
X0352614Y0178884D01*
X0352462Y0178933D01*
X0352311Y0178986D01*
X0352162Y0179042D01*
X0352014Y0179103D01*
X0351868Y0179166D01*
X0351723Y0179234D01*
X0351580Y0179305D01*
X0351439Y0179379D01*
X0351300Y0179457D01*
X0351163Y0179539D01*
X0351028Y0179624D01*
X0350895Y0179712D01*
X0350764Y0179804D01*
X0350636Y0179898D01*
X0350510Y0179996D01*
X0350386Y0180097D01*
X0350265Y0180201D01*
X0350147Y0180308D01*
X0350031Y0180418D01*
X0349918Y0180531D01*
X0349808Y0180647D01*
X0349701Y0180765D01*
X0349597Y0180886D01*
X0349496Y0181010D01*
X0349398Y0181136D01*
X0349304Y0181264D01*
X0349212Y0181395D01*
X0349124Y0181528D01*
X0349039Y0181663D01*
X0348957Y0181800D01*
X0348879Y0181939D01*
X0348805Y0182080D01*
X0348734Y0182223D01*
X0348666Y0182368D01*
X0348603Y0182514D01*
X0348542Y0182662D01*
X0348486Y0182811D01*
X0348433Y0182962D01*
X0348384Y0183114D01*
X0348339Y0183267D01*
X0348298Y0183421D01*
X0348260Y0183576D01*
X0348227Y0183732D01*
X0348197Y0183889D01*
X0348171Y0184046D01*
X0348150Y0184204D01*
X0348132Y0184363D01*
X0348118Y0184522D01*
X0348108Y0184681D01*
X0348102Y0184840D01*
X0348100Y0185000D01*
X0258500Y0080000D02*
X0258502Y0080118D01*
X0258508Y0080236D01*
X0258518Y0080354D01*
X0258532Y0080471D01*
X0258550Y0080588D01*
X0258572Y0080705D01*
X0258597Y0080820D01*
X0258627Y0080934D01*
X0258661Y0081048D01*
X0258698Y0081160D01*
X0258739Y0081271D01*
X0258784Y0081380D01*
X0258832Y0081488D01*
X0258884Y0081594D01*
X0258940Y0081699D01*
X0258999Y0081801D01*
X0259061Y0081901D01*
X0259127Y0081999D01*
X0259196Y0082095D01*
X0259269Y0082189D01*
X0259344Y0082280D01*
X0259423Y0082368D01*
X0259504Y0082454D01*
X0259589Y0082537D01*
X0259676Y0082617D01*
X0259765Y0082694D01*
X0259858Y0082768D01*
X0259952Y0082838D01*
X0260049Y0082906D01*
X0260149Y0082970D01*
X0260250Y0083031D01*
X0260353Y0083088D01*
X0260459Y0083142D01*
X0260566Y0083193D01*
X0260674Y0083239D01*
X0260784Y0083282D01*
X0260896Y0083321D01*
X0261009Y0083357D01*
X0261123Y0083388D01*
X0261238Y0083416D01*
X0261353Y0083440D01*
X0261470Y0083460D01*
X0261587Y0083476D01*
X0261705Y0083488D01*
X0261823Y0083496D01*
X0261941Y0083500D01*
X0262059Y0083500D01*
X0262177Y0083496D01*
X0262295Y0083488D01*
X0262413Y0083476D01*
X0262530Y0083460D01*
X0262647Y0083440D01*
X0262762Y0083416D01*
X0262877Y0083388D01*
X0262991Y0083357D01*
X0263104Y0083321D01*
X0263216Y0083282D01*
X0263326Y0083239D01*
X0263434Y0083193D01*
X0263541Y0083142D01*
X0263647Y0083088D01*
X0263750Y0083031D01*
X0263851Y0082970D01*
X0263951Y0082906D01*
X0264048Y0082838D01*
X0264142Y0082768D01*
X0264235Y0082694D01*
X0264324Y0082617D01*
X0264411Y0082537D01*
X0264496Y0082454D01*
X0264577Y0082368D01*
X0264656Y0082280D01*
X0264731Y0082189D01*
X0264804Y0082095D01*
X0264873Y0081999D01*
X0264939Y0081901D01*
X0265001Y0081801D01*
X0265060Y0081699D01*
X0265116Y0081594D01*
X0265168Y0081488D01*
X0265216Y0081380D01*
X0265261Y0081271D01*
X0265302Y0081160D01*
X0265339Y0081048D01*
X0265373Y0080934D01*
X0265403Y0080820D01*
X0265428Y0080705D01*
X0265450Y0080588D01*
X0265468Y0080471D01*
X0265482Y0080354D01*
X0265492Y0080236D01*
X0265498Y0080118D01*
X0265500Y0080000D01*
X0265498Y0079882D01*
X0265492Y0079764D01*
X0265482Y0079646D01*
X0265468Y0079529D01*
X0265450Y0079412D01*
X0265428Y0079295D01*
X0265403Y0079180D01*
X0265373Y0079066D01*
X0265339Y0078952D01*
X0265302Y0078840D01*
X0265261Y0078729D01*
X0265216Y0078620D01*
X0265168Y0078512D01*
X0265116Y0078406D01*
X0265060Y0078301D01*
X0265001Y0078199D01*
X0264939Y0078099D01*
X0264873Y0078001D01*
X0264804Y0077905D01*
X0264731Y0077811D01*
X0264656Y0077720D01*
X0264577Y0077632D01*
X0264496Y0077546D01*
X0264411Y0077463D01*
X0264324Y0077383D01*
X0264235Y0077306D01*
X0264142Y0077232D01*
X0264048Y0077162D01*
X0263951Y0077094D01*
X0263851Y0077030D01*
X0263750Y0076969D01*
X0263647Y0076912D01*
X0263541Y0076858D01*
X0263434Y0076807D01*
X0263326Y0076761D01*
X0263216Y0076718D01*
X0263104Y0076679D01*
X0262991Y0076643D01*
X0262877Y0076612D01*
X0262762Y0076584D01*
X0262647Y0076560D01*
X0262530Y0076540D01*
X0262413Y0076524D01*
X0262295Y0076512D01*
X0262177Y0076504D01*
X0262059Y0076500D01*
X0261941Y0076500D01*
X0261823Y0076504D01*
X0261705Y0076512D01*
X0261587Y0076524D01*
X0261470Y0076540D01*
X0261353Y0076560D01*
X0261238Y0076584D01*
X0261123Y0076612D01*
X0261009Y0076643D01*
X0260896Y0076679D01*
X0260784Y0076718D01*
X0260674Y0076761D01*
X0260566Y0076807D01*
X0260459Y0076858D01*
X0260353Y0076912D01*
X0260250Y0076969D01*
X0260149Y0077030D01*
X0260049Y0077094D01*
X0259952Y0077162D01*
X0259858Y0077232D01*
X0259765Y0077306D01*
X0259676Y0077383D01*
X0259589Y0077463D01*
X0259504Y0077546D01*
X0259423Y0077632D01*
X0259344Y0077720D01*
X0259269Y0077811D01*
X0259196Y0077905D01*
X0259127Y0078001D01*
X0259061Y0078099D01*
X0258999Y0078199D01*
X0258940Y0078301D01*
X0258884Y0078406D01*
X0258832Y0078512D01*
X0258784Y0078620D01*
X0258739Y0078729D01*
X0258698Y0078840D01*
X0258661Y0078952D01*
X0258627Y0079066D01*
X0258597Y0079180D01*
X0258572Y0079295D01*
X0258550Y0079412D01*
X0258532Y0079529D01*
X0258518Y0079646D01*
X0258508Y0079764D01*
X0258502Y0079882D01*
X0258500Y0080000D01*
X0308100Y0035000D02*
X0308102Y0035160D01*
X0308108Y0035319D01*
X0308118Y0035478D01*
X0308132Y0035637D01*
X0308150Y0035796D01*
X0308171Y0035954D01*
X0308197Y0036111D01*
X0308227Y0036268D01*
X0308260Y0036424D01*
X0308298Y0036579D01*
X0308339Y0036733D01*
X0308384Y0036886D01*
X0308433Y0037038D01*
X0308486Y0037189D01*
X0308542Y0037338D01*
X0308603Y0037486D01*
X0308666Y0037632D01*
X0308734Y0037777D01*
X0308805Y0037920D01*
X0308879Y0038061D01*
X0308957Y0038200D01*
X0309039Y0038337D01*
X0309124Y0038472D01*
X0309212Y0038605D01*
X0309304Y0038736D01*
X0309398Y0038864D01*
X0309496Y0038990D01*
X0309597Y0039114D01*
X0309701Y0039235D01*
X0309808Y0039353D01*
X0309918Y0039469D01*
X0310031Y0039582D01*
X0310147Y0039692D01*
X0310265Y0039799D01*
X0310386Y0039903D01*
X0310510Y0040004D01*
X0310636Y0040102D01*
X0310764Y0040196D01*
X0310895Y0040288D01*
X0311028Y0040376D01*
X0311163Y0040461D01*
X0311300Y0040543D01*
X0311439Y0040621D01*
X0311580Y0040695D01*
X0311723Y0040766D01*
X0311868Y0040834D01*
X0312014Y0040897D01*
X0312162Y0040958D01*
X0312311Y0041014D01*
X0312462Y0041067D01*
X0312614Y0041116D01*
X0312767Y0041161D01*
X0312921Y0041202D01*
X0313076Y0041240D01*
X0313232Y0041273D01*
X0313389Y0041303D01*
X0313546Y0041329D01*
X0313704Y0041350D01*
X0313863Y0041368D01*
X0314022Y0041382D01*
X0314181Y0041392D01*
X0314340Y0041398D01*
X0314500Y0041400D01*
X0314660Y0041398D01*
X0314819Y0041392D01*
X0314978Y0041382D01*
X0315137Y0041368D01*
X0315296Y0041350D01*
X0315454Y0041329D01*
X0315611Y0041303D01*
X0315768Y0041273D01*
X0315924Y0041240D01*
X0316079Y0041202D01*
X0316233Y0041161D01*
X0316386Y0041116D01*
X0316538Y0041067D01*
X0316689Y0041014D01*
X0316838Y0040958D01*
X0316986Y0040897D01*
X0317132Y0040834D01*
X0317277Y0040766D01*
X0317420Y0040695D01*
X0317561Y0040621D01*
X0317700Y0040543D01*
X0317837Y0040461D01*
X0317972Y0040376D01*
X0318105Y0040288D01*
X0318236Y0040196D01*
X0318364Y0040102D01*
X0318490Y0040004D01*
X0318614Y0039903D01*
X0318735Y0039799D01*
X0318853Y0039692D01*
X0318969Y0039582D01*
X0319082Y0039469D01*
X0319192Y0039353D01*
X0319299Y0039235D01*
X0319403Y0039114D01*
X0319504Y0038990D01*
X0319602Y0038864D01*
X0319696Y0038736D01*
X0319788Y0038605D01*
X0319876Y0038472D01*
X0319961Y0038337D01*
X0320043Y0038200D01*
X0320121Y0038061D01*
X0320195Y0037920D01*
X0320266Y0037777D01*
X0320334Y0037632D01*
X0320397Y0037486D01*
X0320458Y0037338D01*
X0320514Y0037189D01*
X0320567Y0037038D01*
X0320616Y0036886D01*
X0320661Y0036733D01*
X0320702Y0036579D01*
X0320740Y0036424D01*
X0320773Y0036268D01*
X0320803Y0036111D01*
X0320829Y0035954D01*
X0320850Y0035796D01*
X0320868Y0035637D01*
X0320882Y0035478D01*
X0320892Y0035319D01*
X0320898Y0035160D01*
X0320900Y0035000D01*
X0320898Y0034840D01*
X0320892Y0034681D01*
X0320882Y0034522D01*
X0320868Y0034363D01*
X0320850Y0034204D01*
X0320829Y0034046D01*
X0320803Y0033889D01*
X0320773Y0033732D01*
X0320740Y0033576D01*
X0320702Y0033421D01*
X0320661Y0033267D01*
X0320616Y0033114D01*
X0320567Y0032962D01*
X0320514Y0032811D01*
X0320458Y0032662D01*
X0320397Y0032514D01*
X0320334Y0032368D01*
X0320266Y0032223D01*
X0320195Y0032080D01*
X0320121Y0031939D01*
X0320043Y0031800D01*
X0319961Y0031663D01*
X0319876Y0031528D01*
X0319788Y0031395D01*
X0319696Y0031264D01*
X0319602Y0031136D01*
X0319504Y0031010D01*
X0319403Y0030886D01*
X0319299Y0030765D01*
X0319192Y0030647D01*
X0319082Y0030531D01*
X0318969Y0030418D01*
X0318853Y0030308D01*
X0318735Y0030201D01*
X0318614Y0030097D01*
X0318490Y0029996D01*
X0318364Y0029898D01*
X0318236Y0029804D01*
X0318105Y0029712D01*
X0317972Y0029624D01*
X0317837Y0029539D01*
X0317700Y0029457D01*
X0317561Y0029379D01*
X0317420Y0029305D01*
X0317277Y0029234D01*
X0317132Y0029166D01*
X0316986Y0029103D01*
X0316838Y0029042D01*
X0316689Y0028986D01*
X0316538Y0028933D01*
X0316386Y0028884D01*
X0316233Y0028839D01*
X0316079Y0028798D01*
X0315924Y0028760D01*
X0315768Y0028727D01*
X0315611Y0028697D01*
X0315454Y0028671D01*
X0315296Y0028650D01*
X0315137Y0028632D01*
X0314978Y0028618D01*
X0314819Y0028608D01*
X0314660Y0028602D01*
X0314500Y0028600D01*
X0314340Y0028602D01*
X0314181Y0028608D01*
X0314022Y0028618D01*
X0313863Y0028632D01*
X0313704Y0028650D01*
X0313546Y0028671D01*
X0313389Y0028697D01*
X0313232Y0028727D01*
X0313076Y0028760D01*
X0312921Y0028798D01*
X0312767Y0028839D01*
X0312614Y0028884D01*
X0312462Y0028933D01*
X0312311Y0028986D01*
X0312162Y0029042D01*
X0312014Y0029103D01*
X0311868Y0029166D01*
X0311723Y0029234D01*
X0311580Y0029305D01*
X0311439Y0029379D01*
X0311300Y0029457D01*
X0311163Y0029539D01*
X0311028Y0029624D01*
X0310895Y0029712D01*
X0310764Y0029804D01*
X0310636Y0029898D01*
X0310510Y0029996D01*
X0310386Y0030097D01*
X0310265Y0030201D01*
X0310147Y0030308D01*
X0310031Y0030418D01*
X0309918Y0030531D01*
X0309808Y0030647D01*
X0309701Y0030765D01*
X0309597Y0030886D01*
X0309496Y0031010D01*
X0309398Y0031136D01*
X0309304Y0031264D01*
X0309212Y0031395D01*
X0309124Y0031528D01*
X0309039Y0031663D01*
X0308957Y0031800D01*
X0308879Y0031939D01*
X0308805Y0032080D01*
X0308734Y0032223D01*
X0308666Y0032368D01*
X0308603Y0032514D01*
X0308542Y0032662D01*
X0308486Y0032811D01*
X0308433Y0032962D01*
X0308384Y0033114D01*
X0308339Y0033267D01*
X0308298Y0033421D01*
X0308260Y0033576D01*
X0308227Y0033732D01*
X0308197Y0033889D01*
X0308171Y0034046D01*
X0308150Y0034204D01*
X0308132Y0034363D01*
X0308118Y0034522D01*
X0308108Y0034681D01*
X0308102Y0034840D01*
X0308100Y0035000D01*
X0348100Y0035000D02*
X0348102Y0035160D01*
X0348108Y0035319D01*
X0348118Y0035478D01*
X0348132Y0035637D01*
X0348150Y0035796D01*
X0348171Y0035954D01*
X0348197Y0036111D01*
X0348227Y0036268D01*
X0348260Y0036424D01*
X0348298Y0036579D01*
X0348339Y0036733D01*
X0348384Y0036886D01*
X0348433Y0037038D01*
X0348486Y0037189D01*
X0348542Y0037338D01*
X0348603Y0037486D01*
X0348666Y0037632D01*
X0348734Y0037777D01*
X0348805Y0037920D01*
X0348879Y0038061D01*
X0348957Y0038200D01*
X0349039Y0038337D01*
X0349124Y0038472D01*
X0349212Y0038605D01*
X0349304Y0038736D01*
X0349398Y0038864D01*
X0349496Y0038990D01*
X0349597Y0039114D01*
X0349701Y0039235D01*
X0349808Y0039353D01*
X0349918Y0039469D01*
X0350031Y0039582D01*
X0350147Y0039692D01*
X0350265Y0039799D01*
X0350386Y0039903D01*
X0350510Y0040004D01*
X0350636Y0040102D01*
X0350764Y0040196D01*
X0350895Y0040288D01*
X0351028Y0040376D01*
X0351163Y0040461D01*
X0351300Y0040543D01*
X0351439Y0040621D01*
X0351580Y0040695D01*
X0351723Y0040766D01*
X0351868Y0040834D01*
X0352014Y0040897D01*
X0352162Y0040958D01*
X0352311Y0041014D01*
X0352462Y0041067D01*
X0352614Y0041116D01*
X0352767Y0041161D01*
X0352921Y0041202D01*
X0353076Y0041240D01*
X0353232Y0041273D01*
X0353389Y0041303D01*
X0353546Y0041329D01*
X0353704Y0041350D01*
X0353863Y0041368D01*
X0354022Y0041382D01*
X0354181Y0041392D01*
X0354340Y0041398D01*
X0354500Y0041400D01*
X0354660Y0041398D01*
X0354819Y0041392D01*
X0354978Y0041382D01*
X0355137Y0041368D01*
X0355296Y0041350D01*
X0355454Y0041329D01*
X0355611Y0041303D01*
X0355768Y0041273D01*
X0355924Y0041240D01*
X0356079Y0041202D01*
X0356233Y0041161D01*
X0356386Y0041116D01*
X0356538Y0041067D01*
X0356689Y0041014D01*
X0356838Y0040958D01*
X0356986Y0040897D01*
X0357132Y0040834D01*
X0357277Y0040766D01*
X0357420Y0040695D01*
X0357561Y0040621D01*
X0357700Y0040543D01*
X0357837Y0040461D01*
X0357972Y0040376D01*
X0358105Y0040288D01*
X0358236Y0040196D01*
X0358364Y0040102D01*
X0358490Y0040004D01*
X0358614Y0039903D01*
X0358735Y0039799D01*
X0358853Y0039692D01*
X0358969Y0039582D01*
X0359082Y0039469D01*
X0359192Y0039353D01*
X0359299Y0039235D01*
X0359403Y0039114D01*
X0359504Y0038990D01*
X0359602Y0038864D01*
X0359696Y0038736D01*
X0359788Y0038605D01*
X0359876Y0038472D01*
X0359961Y0038337D01*
X0360043Y0038200D01*
X0360121Y0038061D01*
X0360195Y0037920D01*
X0360266Y0037777D01*
X0360334Y0037632D01*
X0360397Y0037486D01*
X0360458Y0037338D01*
X0360514Y0037189D01*
X0360567Y0037038D01*
X0360616Y0036886D01*
X0360661Y0036733D01*
X0360702Y0036579D01*
X0360740Y0036424D01*
X0360773Y0036268D01*
X0360803Y0036111D01*
X0360829Y0035954D01*
X0360850Y0035796D01*
X0360868Y0035637D01*
X0360882Y0035478D01*
X0360892Y0035319D01*
X0360898Y0035160D01*
X0360900Y0035000D01*
X0360898Y0034840D01*
X0360892Y0034681D01*
X0360882Y0034522D01*
X0360868Y0034363D01*
X0360850Y0034204D01*
X0360829Y0034046D01*
X0360803Y0033889D01*
X0360773Y0033732D01*
X0360740Y0033576D01*
X0360702Y0033421D01*
X0360661Y0033267D01*
X0360616Y0033114D01*
X0360567Y0032962D01*
X0360514Y0032811D01*
X0360458Y0032662D01*
X0360397Y0032514D01*
X0360334Y0032368D01*
X0360266Y0032223D01*
X0360195Y0032080D01*
X0360121Y0031939D01*
X0360043Y0031800D01*
X0359961Y0031663D01*
X0359876Y0031528D01*
X0359788Y0031395D01*
X0359696Y0031264D01*
X0359602Y0031136D01*
X0359504Y0031010D01*
X0359403Y0030886D01*
X0359299Y0030765D01*
X0359192Y0030647D01*
X0359082Y0030531D01*
X0358969Y0030418D01*
X0358853Y0030308D01*
X0358735Y0030201D01*
X0358614Y0030097D01*
X0358490Y0029996D01*
X0358364Y0029898D01*
X0358236Y0029804D01*
X0358105Y0029712D01*
X0357972Y0029624D01*
X0357837Y0029539D01*
X0357700Y0029457D01*
X0357561Y0029379D01*
X0357420Y0029305D01*
X0357277Y0029234D01*
X0357132Y0029166D01*
X0356986Y0029103D01*
X0356838Y0029042D01*
X0356689Y0028986D01*
X0356538Y0028933D01*
X0356386Y0028884D01*
X0356233Y0028839D01*
X0356079Y0028798D01*
X0355924Y0028760D01*
X0355768Y0028727D01*
X0355611Y0028697D01*
X0355454Y0028671D01*
X0355296Y0028650D01*
X0355137Y0028632D01*
X0354978Y0028618D01*
X0354819Y0028608D01*
X0354660Y0028602D01*
X0354500Y0028600D01*
X0354340Y0028602D01*
X0354181Y0028608D01*
X0354022Y0028618D01*
X0353863Y0028632D01*
X0353704Y0028650D01*
X0353546Y0028671D01*
X0353389Y0028697D01*
X0353232Y0028727D01*
X0353076Y0028760D01*
X0352921Y0028798D01*
X0352767Y0028839D01*
X0352614Y0028884D01*
X0352462Y0028933D01*
X0352311Y0028986D01*
X0352162Y0029042D01*
X0352014Y0029103D01*
X0351868Y0029166D01*
X0351723Y0029234D01*
X0351580Y0029305D01*
X0351439Y0029379D01*
X0351300Y0029457D01*
X0351163Y0029539D01*
X0351028Y0029624D01*
X0350895Y0029712D01*
X0350764Y0029804D01*
X0350636Y0029898D01*
X0350510Y0029996D01*
X0350386Y0030097D01*
X0350265Y0030201D01*
X0350147Y0030308D01*
X0350031Y0030418D01*
X0349918Y0030531D01*
X0349808Y0030647D01*
X0349701Y0030765D01*
X0349597Y0030886D01*
X0349496Y0031010D01*
X0349398Y0031136D01*
X0349304Y0031264D01*
X0349212Y0031395D01*
X0349124Y0031528D01*
X0349039Y0031663D01*
X0348957Y0031800D01*
X0348879Y0031939D01*
X0348805Y0032080D01*
X0348734Y0032223D01*
X0348666Y0032368D01*
X0348603Y0032514D01*
X0348542Y0032662D01*
X0348486Y0032811D01*
X0348433Y0032962D01*
X0348384Y0033114D01*
X0348339Y0033267D01*
X0348298Y0033421D01*
X0348260Y0033576D01*
X0348227Y0033732D01*
X0348197Y0033889D01*
X0348171Y0034046D01*
X0348150Y0034204D01*
X0348132Y0034363D01*
X0348118Y0034522D01*
X0348108Y0034681D01*
X0348102Y0034840D01*
X0348100Y0035000D01*
D11*
X0172000Y0095000D03*
X0162000Y0095000D03*
X0152000Y0095000D03*
X0142000Y0095000D03*
X0142000Y0125000D03*
X0152000Y0125000D03*
X0162000Y0125000D03*
X0172000Y0125000D03*
D12*
X0303750Y0206693D02*
X0365250Y0206693D01*
X0365250Y0013307D02*
X0303750Y0013307D01*
D13*
X0327000Y0060000D03*
X0337000Y0060000D03*
X0347000Y0060000D03*
X0342000Y0070000D03*
X0332000Y0070000D03*
X0322000Y0070000D03*
X0327000Y0150000D03*
X0337000Y0150000D03*
X0347000Y0150000D03*
X0342000Y0160000D03*
X0332000Y0160000D03*
X0322000Y0160000D03*
D14*
X0314500Y0185000D03*
X0354500Y0185000D03*
X0354500Y0035000D03*
X0314500Y0035000D03*
D15*
X0230750Y0095000D03*
X0215750Y0095000D03*
X0200750Y0095000D03*
X0187000Y0095000D03*
X0187000Y0125000D03*
X0200750Y0125000D03*
X0215750Y0125000D03*
X0230750Y0125000D03*
X0283250Y0110000D03*
X0290750Y0105000D03*
X0290750Y0115000D03*
X0132000Y0125000D03*
X0122000Y0125000D03*
X0122000Y0095000D03*
X0132000Y0095000D03*
X0064500Y0105000D03*
X0064500Y0125000D03*
D16*
X0121000Y0205000D03*
X0131000Y0205000D03*
X0141000Y0205000D03*
X0151000Y0205000D03*
X0161000Y0205000D03*
X0171000Y0205000D03*
X0181000Y0205000D03*
X0191000Y0205000D03*
X0207000Y0205000D03*
X0217000Y0205000D03*
X0227000Y0205000D03*
X0237000Y0205000D03*
X0247000Y0205000D03*
X0257000Y0205000D03*
X0267000Y0205000D03*
X0277000Y0205000D03*
X0277000Y0015000D03*
X0267000Y0015000D03*
X0257000Y0015000D03*
X0247000Y0015000D03*
X0237000Y0015000D03*
X0227000Y0015000D03*
X0207000Y0015000D03*
X0197000Y0015000D03*
X0187000Y0015000D03*
X0177000Y0015000D03*
X0167000Y0015000D03*
X0157000Y0015000D03*
D17*
X0082000Y0015000D03*
X0287000Y0145000D03*
X0087000Y0205000D03*
D18*
X0084500Y0092500D03*
X0072000Y0092500D03*
X0059500Y0092500D03*
X0047000Y0092500D03*
X0034500Y0092500D03*
X0034500Y0052500D03*
X0047000Y0052500D03*
X0059500Y0052500D03*
X0072000Y0052500D03*
X0084500Y0052500D03*
D19*
X0132000Y0054500D02*
X0132000Y0060500D01*
X0142000Y0060500D02*
X0142000Y0054500D01*
X0152000Y0054500D02*
X0152000Y0060500D01*
X0162000Y0060500D02*
X0162000Y0054500D01*
X0172000Y0054500D02*
X0172000Y0060500D01*
X0182000Y0060500D02*
X0182000Y0054500D01*
X0192000Y0054500D02*
X0192000Y0060500D01*
X0202000Y0060500D02*
X0202000Y0054500D01*
X0212000Y0054500D02*
X0212000Y0060500D01*
X0222000Y0060500D02*
X0222000Y0054500D01*
X0064500Y0134500D02*
X0064500Y0140500D01*
X0054500Y0140500D02*
X0054500Y0134500D01*
X0044500Y0134500D02*
X0044500Y0140500D01*
X0132000Y0159500D02*
X0132000Y0165500D01*
X0142000Y0165500D02*
X0142000Y0159500D01*
X0152000Y0159500D02*
X0152000Y0165500D01*
X0162000Y0165500D02*
X0162000Y0159500D01*
X0172000Y0159500D02*
X0172000Y0165500D01*
X0182000Y0165500D02*
X0182000Y0159500D01*
X0192000Y0159500D02*
X0192000Y0165500D01*
X0202000Y0165500D02*
X0202000Y0159500D01*
X0212000Y0159500D02*
X0212000Y0165500D01*
X0222000Y0165500D02*
X0222000Y0159500D01*
D20*
X0054500Y0196500D03*
D21*
X0044500Y0105000D03*
D22*
X0044500Y0115000D03*
D23*
X0040975Y0034843D02*
X0048025Y0034843D01*
X0048025Y0015157D02*
X0040975Y0015157D01*
D24*
X0252000Y0140000D03*
D25*
X0242000Y0140000D03*
X0232000Y0140000D03*
X0222000Y0140000D03*
X0212000Y0140000D03*
X0202000Y0140000D03*
X0192000Y0140000D03*
X0182000Y0140000D03*
X0172000Y0140000D03*
X0162000Y0140000D03*
X0152000Y0140000D03*
X0142000Y0140000D03*
X0132000Y0140000D03*
X0122000Y0140000D03*
X0112000Y0140000D03*
X0102000Y0140000D03*
X0102000Y0080000D03*
X0112000Y0080000D03*
X0122000Y0080000D03*
X0132000Y0080000D03*
X0142000Y0080000D03*
X0152000Y0080000D03*
X0162000Y0080000D03*
X0172000Y0080000D03*
X0182000Y0080000D03*
X0192000Y0080000D03*
X0202000Y0080000D03*
X0212000Y0080000D03*
X0222000Y0080000D03*
X0232000Y0080000D03*
X0242000Y0080000D03*
X0252000Y0080000D03*
X0262000Y0080000D03*
X0262000Y0140000D03*
D26*
X0245750Y0151250D03*
X0279500Y0125000D03*
X0242000Y0063750D03*
X0112000Y0130000D03*
M02*
