G75*
%MOIN*%
%OFA0B0*%
%FSLAX25Y25*%
%IPPOS*%
%LPD*%
%AMOC8*
5,1,8,0,0,1.08239X$1,22.5*
%
%ADD10C,0.00000*%
%ADD11C,0.05200*%
%ADD12C,0.00039*%
%ADD13C,0.05543*%
%ADD14OC8,0.05200*%
%ADD15OC8,0.06600*%
%ADD16C,0.06600*%
%ADD17C,0.06000*%
%ADD18OC8,0.06300*%
%ADD19C,0.06300*%
%ADD20C,0.07050*%
%ADD21R,0.07000X0.07000*%
%ADD22C,0.07000*%
%ADD23C,0.04000*%
%ADD24C,0.03200*%
%ADD25C,0.02400*%
%ADD26C,0.01600*%
%ADD27C,0.04750*%
%ADD28C,0.01000*%
D10*
X0027000Y0005000D02*
X0027000Y0215000D01*
X0281000Y0215000D01*
X0287000Y0209000D01*
X0287000Y0164000D01*
X0297000Y0154000D01*
X0297000Y0025000D01*
X0287000Y0015000D01*
X0287000Y0005000D01*
X0027000Y0005000D01*
X0027000Y0214951D01*
X0364421Y0214951D01*
X0364421Y0005000D01*
X0027000Y0005000D01*
X0075701Y0015000D02*
X0075703Y0015158D01*
X0075709Y0015316D01*
X0075719Y0015474D01*
X0075733Y0015632D01*
X0075751Y0015789D01*
X0075772Y0015946D01*
X0075798Y0016102D01*
X0075828Y0016258D01*
X0075861Y0016413D01*
X0075899Y0016566D01*
X0075940Y0016719D01*
X0075985Y0016871D01*
X0076034Y0017022D01*
X0076087Y0017171D01*
X0076143Y0017319D01*
X0076203Y0017465D01*
X0076267Y0017610D01*
X0076335Y0017753D01*
X0076406Y0017895D01*
X0076480Y0018035D01*
X0076558Y0018172D01*
X0076640Y0018308D01*
X0076724Y0018442D01*
X0076813Y0018573D01*
X0076904Y0018702D01*
X0076999Y0018829D01*
X0077096Y0018954D01*
X0077197Y0019076D01*
X0077301Y0019195D01*
X0077408Y0019312D01*
X0077518Y0019426D01*
X0077631Y0019537D01*
X0077746Y0019646D01*
X0077864Y0019751D01*
X0077985Y0019853D01*
X0078108Y0019953D01*
X0078234Y0020049D01*
X0078362Y0020142D01*
X0078492Y0020232D01*
X0078625Y0020318D01*
X0078760Y0020402D01*
X0078896Y0020481D01*
X0079035Y0020558D01*
X0079176Y0020630D01*
X0079318Y0020700D01*
X0079462Y0020765D01*
X0079608Y0020827D01*
X0079755Y0020885D01*
X0079904Y0020940D01*
X0080054Y0020991D01*
X0080205Y0021038D01*
X0080357Y0021081D01*
X0080510Y0021120D01*
X0080665Y0021156D01*
X0080820Y0021187D01*
X0080976Y0021215D01*
X0081132Y0021239D01*
X0081289Y0021259D01*
X0081447Y0021275D01*
X0081604Y0021287D01*
X0081763Y0021295D01*
X0081921Y0021299D01*
X0082079Y0021299D01*
X0082237Y0021295D01*
X0082396Y0021287D01*
X0082553Y0021275D01*
X0082711Y0021259D01*
X0082868Y0021239D01*
X0083024Y0021215D01*
X0083180Y0021187D01*
X0083335Y0021156D01*
X0083490Y0021120D01*
X0083643Y0021081D01*
X0083795Y0021038D01*
X0083946Y0020991D01*
X0084096Y0020940D01*
X0084245Y0020885D01*
X0084392Y0020827D01*
X0084538Y0020765D01*
X0084682Y0020700D01*
X0084824Y0020630D01*
X0084965Y0020558D01*
X0085104Y0020481D01*
X0085240Y0020402D01*
X0085375Y0020318D01*
X0085508Y0020232D01*
X0085638Y0020142D01*
X0085766Y0020049D01*
X0085892Y0019953D01*
X0086015Y0019853D01*
X0086136Y0019751D01*
X0086254Y0019646D01*
X0086369Y0019537D01*
X0086482Y0019426D01*
X0086592Y0019312D01*
X0086699Y0019195D01*
X0086803Y0019076D01*
X0086904Y0018954D01*
X0087001Y0018829D01*
X0087096Y0018702D01*
X0087187Y0018573D01*
X0087276Y0018442D01*
X0087360Y0018308D01*
X0087442Y0018172D01*
X0087520Y0018035D01*
X0087594Y0017895D01*
X0087665Y0017753D01*
X0087733Y0017610D01*
X0087797Y0017465D01*
X0087857Y0017319D01*
X0087913Y0017171D01*
X0087966Y0017022D01*
X0088015Y0016871D01*
X0088060Y0016719D01*
X0088101Y0016566D01*
X0088139Y0016413D01*
X0088172Y0016258D01*
X0088202Y0016102D01*
X0088228Y0015946D01*
X0088249Y0015789D01*
X0088267Y0015632D01*
X0088281Y0015474D01*
X0088291Y0015316D01*
X0088297Y0015158D01*
X0088299Y0015000D01*
X0088297Y0014842D01*
X0088291Y0014684D01*
X0088281Y0014526D01*
X0088267Y0014368D01*
X0088249Y0014211D01*
X0088228Y0014054D01*
X0088202Y0013898D01*
X0088172Y0013742D01*
X0088139Y0013587D01*
X0088101Y0013434D01*
X0088060Y0013281D01*
X0088015Y0013129D01*
X0087966Y0012978D01*
X0087913Y0012829D01*
X0087857Y0012681D01*
X0087797Y0012535D01*
X0087733Y0012390D01*
X0087665Y0012247D01*
X0087594Y0012105D01*
X0087520Y0011965D01*
X0087442Y0011828D01*
X0087360Y0011692D01*
X0087276Y0011558D01*
X0087187Y0011427D01*
X0087096Y0011298D01*
X0087001Y0011171D01*
X0086904Y0011046D01*
X0086803Y0010924D01*
X0086699Y0010805D01*
X0086592Y0010688D01*
X0086482Y0010574D01*
X0086369Y0010463D01*
X0086254Y0010354D01*
X0086136Y0010249D01*
X0086015Y0010147D01*
X0085892Y0010047D01*
X0085766Y0009951D01*
X0085638Y0009858D01*
X0085508Y0009768D01*
X0085375Y0009682D01*
X0085240Y0009598D01*
X0085104Y0009519D01*
X0084965Y0009442D01*
X0084824Y0009370D01*
X0084682Y0009300D01*
X0084538Y0009235D01*
X0084392Y0009173D01*
X0084245Y0009115D01*
X0084096Y0009060D01*
X0083946Y0009009D01*
X0083795Y0008962D01*
X0083643Y0008919D01*
X0083490Y0008880D01*
X0083335Y0008844D01*
X0083180Y0008813D01*
X0083024Y0008785D01*
X0082868Y0008761D01*
X0082711Y0008741D01*
X0082553Y0008725D01*
X0082396Y0008713D01*
X0082237Y0008705D01*
X0082079Y0008701D01*
X0081921Y0008701D01*
X0081763Y0008705D01*
X0081604Y0008713D01*
X0081447Y0008725D01*
X0081289Y0008741D01*
X0081132Y0008761D01*
X0080976Y0008785D01*
X0080820Y0008813D01*
X0080665Y0008844D01*
X0080510Y0008880D01*
X0080357Y0008919D01*
X0080205Y0008962D01*
X0080054Y0009009D01*
X0079904Y0009060D01*
X0079755Y0009115D01*
X0079608Y0009173D01*
X0079462Y0009235D01*
X0079318Y0009300D01*
X0079176Y0009370D01*
X0079035Y0009442D01*
X0078896Y0009519D01*
X0078760Y0009598D01*
X0078625Y0009682D01*
X0078492Y0009768D01*
X0078362Y0009858D01*
X0078234Y0009951D01*
X0078108Y0010047D01*
X0077985Y0010147D01*
X0077864Y0010249D01*
X0077746Y0010354D01*
X0077631Y0010463D01*
X0077518Y0010574D01*
X0077408Y0010688D01*
X0077301Y0010805D01*
X0077197Y0010924D01*
X0077096Y0011046D01*
X0076999Y0011171D01*
X0076904Y0011298D01*
X0076813Y0011427D01*
X0076724Y0011558D01*
X0076640Y0011692D01*
X0076558Y0011828D01*
X0076480Y0011965D01*
X0076406Y0012105D01*
X0076335Y0012247D01*
X0076267Y0012390D01*
X0076203Y0012535D01*
X0076143Y0012681D01*
X0076087Y0012829D01*
X0076034Y0012978D01*
X0075985Y0013129D01*
X0075940Y0013281D01*
X0075899Y0013434D01*
X0075861Y0013587D01*
X0075828Y0013742D01*
X0075798Y0013898D01*
X0075772Y0014054D01*
X0075751Y0014211D01*
X0075733Y0014368D01*
X0075719Y0014526D01*
X0075709Y0014684D01*
X0075703Y0014842D01*
X0075701Y0015000D01*
X0098500Y0080000D02*
X0098502Y0080118D01*
X0098508Y0080236D01*
X0098518Y0080354D01*
X0098532Y0080471D01*
X0098550Y0080588D01*
X0098572Y0080705D01*
X0098597Y0080820D01*
X0098627Y0080934D01*
X0098661Y0081048D01*
X0098698Y0081160D01*
X0098739Y0081271D01*
X0098784Y0081380D01*
X0098832Y0081488D01*
X0098884Y0081594D01*
X0098940Y0081699D01*
X0098999Y0081801D01*
X0099061Y0081901D01*
X0099127Y0081999D01*
X0099196Y0082095D01*
X0099269Y0082189D01*
X0099344Y0082280D01*
X0099423Y0082368D01*
X0099504Y0082454D01*
X0099589Y0082537D01*
X0099676Y0082617D01*
X0099765Y0082694D01*
X0099858Y0082768D01*
X0099952Y0082838D01*
X0100049Y0082906D01*
X0100149Y0082970D01*
X0100250Y0083031D01*
X0100353Y0083088D01*
X0100459Y0083142D01*
X0100566Y0083193D01*
X0100674Y0083239D01*
X0100784Y0083282D01*
X0100896Y0083321D01*
X0101009Y0083357D01*
X0101123Y0083388D01*
X0101238Y0083416D01*
X0101353Y0083440D01*
X0101470Y0083460D01*
X0101587Y0083476D01*
X0101705Y0083488D01*
X0101823Y0083496D01*
X0101941Y0083500D01*
X0102059Y0083500D01*
X0102177Y0083496D01*
X0102295Y0083488D01*
X0102413Y0083476D01*
X0102530Y0083460D01*
X0102647Y0083440D01*
X0102762Y0083416D01*
X0102877Y0083388D01*
X0102991Y0083357D01*
X0103104Y0083321D01*
X0103216Y0083282D01*
X0103326Y0083239D01*
X0103434Y0083193D01*
X0103541Y0083142D01*
X0103647Y0083088D01*
X0103750Y0083031D01*
X0103851Y0082970D01*
X0103951Y0082906D01*
X0104048Y0082838D01*
X0104142Y0082768D01*
X0104235Y0082694D01*
X0104324Y0082617D01*
X0104411Y0082537D01*
X0104496Y0082454D01*
X0104577Y0082368D01*
X0104656Y0082280D01*
X0104731Y0082189D01*
X0104804Y0082095D01*
X0104873Y0081999D01*
X0104939Y0081901D01*
X0105001Y0081801D01*
X0105060Y0081699D01*
X0105116Y0081594D01*
X0105168Y0081488D01*
X0105216Y0081380D01*
X0105261Y0081271D01*
X0105302Y0081160D01*
X0105339Y0081048D01*
X0105373Y0080934D01*
X0105403Y0080820D01*
X0105428Y0080705D01*
X0105450Y0080588D01*
X0105468Y0080471D01*
X0105482Y0080354D01*
X0105492Y0080236D01*
X0105498Y0080118D01*
X0105500Y0080000D01*
X0105498Y0079882D01*
X0105492Y0079764D01*
X0105482Y0079646D01*
X0105468Y0079529D01*
X0105450Y0079412D01*
X0105428Y0079295D01*
X0105403Y0079180D01*
X0105373Y0079066D01*
X0105339Y0078952D01*
X0105302Y0078840D01*
X0105261Y0078729D01*
X0105216Y0078620D01*
X0105168Y0078512D01*
X0105116Y0078406D01*
X0105060Y0078301D01*
X0105001Y0078199D01*
X0104939Y0078099D01*
X0104873Y0078001D01*
X0104804Y0077905D01*
X0104731Y0077811D01*
X0104656Y0077720D01*
X0104577Y0077632D01*
X0104496Y0077546D01*
X0104411Y0077463D01*
X0104324Y0077383D01*
X0104235Y0077306D01*
X0104142Y0077232D01*
X0104048Y0077162D01*
X0103951Y0077094D01*
X0103851Y0077030D01*
X0103750Y0076969D01*
X0103647Y0076912D01*
X0103541Y0076858D01*
X0103434Y0076807D01*
X0103326Y0076761D01*
X0103216Y0076718D01*
X0103104Y0076679D01*
X0102991Y0076643D01*
X0102877Y0076612D01*
X0102762Y0076584D01*
X0102647Y0076560D01*
X0102530Y0076540D01*
X0102413Y0076524D01*
X0102295Y0076512D01*
X0102177Y0076504D01*
X0102059Y0076500D01*
X0101941Y0076500D01*
X0101823Y0076504D01*
X0101705Y0076512D01*
X0101587Y0076524D01*
X0101470Y0076540D01*
X0101353Y0076560D01*
X0101238Y0076584D01*
X0101123Y0076612D01*
X0101009Y0076643D01*
X0100896Y0076679D01*
X0100784Y0076718D01*
X0100674Y0076761D01*
X0100566Y0076807D01*
X0100459Y0076858D01*
X0100353Y0076912D01*
X0100250Y0076969D01*
X0100149Y0077030D01*
X0100049Y0077094D01*
X0099952Y0077162D01*
X0099858Y0077232D01*
X0099765Y0077306D01*
X0099676Y0077383D01*
X0099589Y0077463D01*
X0099504Y0077546D01*
X0099423Y0077632D01*
X0099344Y0077720D01*
X0099269Y0077811D01*
X0099196Y0077905D01*
X0099127Y0078001D01*
X0099061Y0078099D01*
X0098999Y0078199D01*
X0098940Y0078301D01*
X0098884Y0078406D01*
X0098832Y0078512D01*
X0098784Y0078620D01*
X0098739Y0078729D01*
X0098698Y0078840D01*
X0098661Y0078952D01*
X0098627Y0079066D01*
X0098597Y0079180D01*
X0098572Y0079295D01*
X0098550Y0079412D01*
X0098532Y0079529D01*
X0098518Y0079646D01*
X0098508Y0079764D01*
X0098502Y0079882D01*
X0098500Y0080000D01*
X0098500Y0140000D02*
X0098502Y0140118D01*
X0098508Y0140236D01*
X0098518Y0140354D01*
X0098532Y0140471D01*
X0098550Y0140588D01*
X0098572Y0140705D01*
X0098597Y0140820D01*
X0098627Y0140934D01*
X0098661Y0141048D01*
X0098698Y0141160D01*
X0098739Y0141271D01*
X0098784Y0141380D01*
X0098832Y0141488D01*
X0098884Y0141594D01*
X0098940Y0141699D01*
X0098999Y0141801D01*
X0099061Y0141901D01*
X0099127Y0141999D01*
X0099196Y0142095D01*
X0099269Y0142189D01*
X0099344Y0142280D01*
X0099423Y0142368D01*
X0099504Y0142454D01*
X0099589Y0142537D01*
X0099676Y0142617D01*
X0099765Y0142694D01*
X0099858Y0142768D01*
X0099952Y0142838D01*
X0100049Y0142906D01*
X0100149Y0142970D01*
X0100250Y0143031D01*
X0100353Y0143088D01*
X0100459Y0143142D01*
X0100566Y0143193D01*
X0100674Y0143239D01*
X0100784Y0143282D01*
X0100896Y0143321D01*
X0101009Y0143357D01*
X0101123Y0143388D01*
X0101238Y0143416D01*
X0101353Y0143440D01*
X0101470Y0143460D01*
X0101587Y0143476D01*
X0101705Y0143488D01*
X0101823Y0143496D01*
X0101941Y0143500D01*
X0102059Y0143500D01*
X0102177Y0143496D01*
X0102295Y0143488D01*
X0102413Y0143476D01*
X0102530Y0143460D01*
X0102647Y0143440D01*
X0102762Y0143416D01*
X0102877Y0143388D01*
X0102991Y0143357D01*
X0103104Y0143321D01*
X0103216Y0143282D01*
X0103326Y0143239D01*
X0103434Y0143193D01*
X0103541Y0143142D01*
X0103647Y0143088D01*
X0103750Y0143031D01*
X0103851Y0142970D01*
X0103951Y0142906D01*
X0104048Y0142838D01*
X0104142Y0142768D01*
X0104235Y0142694D01*
X0104324Y0142617D01*
X0104411Y0142537D01*
X0104496Y0142454D01*
X0104577Y0142368D01*
X0104656Y0142280D01*
X0104731Y0142189D01*
X0104804Y0142095D01*
X0104873Y0141999D01*
X0104939Y0141901D01*
X0105001Y0141801D01*
X0105060Y0141699D01*
X0105116Y0141594D01*
X0105168Y0141488D01*
X0105216Y0141380D01*
X0105261Y0141271D01*
X0105302Y0141160D01*
X0105339Y0141048D01*
X0105373Y0140934D01*
X0105403Y0140820D01*
X0105428Y0140705D01*
X0105450Y0140588D01*
X0105468Y0140471D01*
X0105482Y0140354D01*
X0105492Y0140236D01*
X0105498Y0140118D01*
X0105500Y0140000D01*
X0105498Y0139882D01*
X0105492Y0139764D01*
X0105482Y0139646D01*
X0105468Y0139529D01*
X0105450Y0139412D01*
X0105428Y0139295D01*
X0105403Y0139180D01*
X0105373Y0139066D01*
X0105339Y0138952D01*
X0105302Y0138840D01*
X0105261Y0138729D01*
X0105216Y0138620D01*
X0105168Y0138512D01*
X0105116Y0138406D01*
X0105060Y0138301D01*
X0105001Y0138199D01*
X0104939Y0138099D01*
X0104873Y0138001D01*
X0104804Y0137905D01*
X0104731Y0137811D01*
X0104656Y0137720D01*
X0104577Y0137632D01*
X0104496Y0137546D01*
X0104411Y0137463D01*
X0104324Y0137383D01*
X0104235Y0137306D01*
X0104142Y0137232D01*
X0104048Y0137162D01*
X0103951Y0137094D01*
X0103851Y0137030D01*
X0103750Y0136969D01*
X0103647Y0136912D01*
X0103541Y0136858D01*
X0103434Y0136807D01*
X0103326Y0136761D01*
X0103216Y0136718D01*
X0103104Y0136679D01*
X0102991Y0136643D01*
X0102877Y0136612D01*
X0102762Y0136584D01*
X0102647Y0136560D01*
X0102530Y0136540D01*
X0102413Y0136524D01*
X0102295Y0136512D01*
X0102177Y0136504D01*
X0102059Y0136500D01*
X0101941Y0136500D01*
X0101823Y0136504D01*
X0101705Y0136512D01*
X0101587Y0136524D01*
X0101470Y0136540D01*
X0101353Y0136560D01*
X0101238Y0136584D01*
X0101123Y0136612D01*
X0101009Y0136643D01*
X0100896Y0136679D01*
X0100784Y0136718D01*
X0100674Y0136761D01*
X0100566Y0136807D01*
X0100459Y0136858D01*
X0100353Y0136912D01*
X0100250Y0136969D01*
X0100149Y0137030D01*
X0100049Y0137094D01*
X0099952Y0137162D01*
X0099858Y0137232D01*
X0099765Y0137306D01*
X0099676Y0137383D01*
X0099589Y0137463D01*
X0099504Y0137546D01*
X0099423Y0137632D01*
X0099344Y0137720D01*
X0099269Y0137811D01*
X0099196Y0137905D01*
X0099127Y0138001D01*
X0099061Y0138099D01*
X0098999Y0138199D01*
X0098940Y0138301D01*
X0098884Y0138406D01*
X0098832Y0138512D01*
X0098784Y0138620D01*
X0098739Y0138729D01*
X0098698Y0138840D01*
X0098661Y0138952D01*
X0098627Y0139066D01*
X0098597Y0139180D01*
X0098572Y0139295D01*
X0098550Y0139412D01*
X0098532Y0139529D01*
X0098518Y0139646D01*
X0098508Y0139764D01*
X0098502Y0139882D01*
X0098500Y0140000D01*
X0048000Y0196500D02*
X0048002Y0196661D01*
X0048008Y0196821D01*
X0048018Y0196982D01*
X0048032Y0197142D01*
X0048050Y0197302D01*
X0048071Y0197461D01*
X0048097Y0197620D01*
X0048127Y0197778D01*
X0048160Y0197935D01*
X0048198Y0198092D01*
X0048239Y0198247D01*
X0048284Y0198401D01*
X0048333Y0198554D01*
X0048386Y0198706D01*
X0048442Y0198857D01*
X0048503Y0199006D01*
X0048566Y0199154D01*
X0048634Y0199300D01*
X0048705Y0199444D01*
X0048779Y0199586D01*
X0048857Y0199727D01*
X0048939Y0199865D01*
X0049024Y0200002D01*
X0049112Y0200136D01*
X0049204Y0200268D01*
X0049299Y0200398D01*
X0049397Y0200526D01*
X0049498Y0200651D01*
X0049602Y0200773D01*
X0049709Y0200893D01*
X0049819Y0201010D01*
X0049932Y0201125D01*
X0050048Y0201236D01*
X0050167Y0201345D01*
X0050288Y0201450D01*
X0050412Y0201553D01*
X0050538Y0201653D01*
X0050666Y0201749D01*
X0050797Y0201842D01*
X0050931Y0201932D01*
X0051066Y0202019D01*
X0051204Y0202102D01*
X0051343Y0202182D01*
X0051485Y0202258D01*
X0051628Y0202331D01*
X0051773Y0202400D01*
X0051920Y0202466D01*
X0052068Y0202528D01*
X0052218Y0202586D01*
X0052369Y0202641D01*
X0052522Y0202692D01*
X0052676Y0202739D01*
X0052831Y0202782D01*
X0052987Y0202821D01*
X0053143Y0202857D01*
X0053301Y0202888D01*
X0053459Y0202916D01*
X0053618Y0202940D01*
X0053778Y0202960D01*
X0053938Y0202976D01*
X0054098Y0202988D01*
X0054259Y0202996D01*
X0054420Y0203000D01*
X0054580Y0203000D01*
X0054741Y0202996D01*
X0054902Y0202988D01*
X0055062Y0202976D01*
X0055222Y0202960D01*
X0055382Y0202940D01*
X0055541Y0202916D01*
X0055699Y0202888D01*
X0055857Y0202857D01*
X0056013Y0202821D01*
X0056169Y0202782D01*
X0056324Y0202739D01*
X0056478Y0202692D01*
X0056631Y0202641D01*
X0056782Y0202586D01*
X0056932Y0202528D01*
X0057080Y0202466D01*
X0057227Y0202400D01*
X0057372Y0202331D01*
X0057515Y0202258D01*
X0057657Y0202182D01*
X0057796Y0202102D01*
X0057934Y0202019D01*
X0058069Y0201932D01*
X0058203Y0201842D01*
X0058334Y0201749D01*
X0058462Y0201653D01*
X0058588Y0201553D01*
X0058712Y0201450D01*
X0058833Y0201345D01*
X0058952Y0201236D01*
X0059068Y0201125D01*
X0059181Y0201010D01*
X0059291Y0200893D01*
X0059398Y0200773D01*
X0059502Y0200651D01*
X0059603Y0200526D01*
X0059701Y0200398D01*
X0059796Y0200268D01*
X0059888Y0200136D01*
X0059976Y0200002D01*
X0060061Y0199865D01*
X0060143Y0199727D01*
X0060221Y0199586D01*
X0060295Y0199444D01*
X0060366Y0199300D01*
X0060434Y0199154D01*
X0060497Y0199006D01*
X0060558Y0198857D01*
X0060614Y0198706D01*
X0060667Y0198554D01*
X0060716Y0198401D01*
X0060761Y0198247D01*
X0060802Y0198092D01*
X0060840Y0197935D01*
X0060873Y0197778D01*
X0060903Y0197620D01*
X0060929Y0197461D01*
X0060950Y0197302D01*
X0060968Y0197142D01*
X0060982Y0196982D01*
X0060992Y0196821D01*
X0060998Y0196661D01*
X0061000Y0196500D01*
X0060998Y0196339D01*
X0060992Y0196179D01*
X0060982Y0196018D01*
X0060968Y0195858D01*
X0060950Y0195698D01*
X0060929Y0195539D01*
X0060903Y0195380D01*
X0060873Y0195222D01*
X0060840Y0195065D01*
X0060802Y0194908D01*
X0060761Y0194753D01*
X0060716Y0194599D01*
X0060667Y0194446D01*
X0060614Y0194294D01*
X0060558Y0194143D01*
X0060497Y0193994D01*
X0060434Y0193846D01*
X0060366Y0193700D01*
X0060295Y0193556D01*
X0060221Y0193414D01*
X0060143Y0193273D01*
X0060061Y0193135D01*
X0059976Y0192998D01*
X0059888Y0192864D01*
X0059796Y0192732D01*
X0059701Y0192602D01*
X0059603Y0192474D01*
X0059502Y0192349D01*
X0059398Y0192227D01*
X0059291Y0192107D01*
X0059181Y0191990D01*
X0059068Y0191875D01*
X0058952Y0191764D01*
X0058833Y0191655D01*
X0058712Y0191550D01*
X0058588Y0191447D01*
X0058462Y0191347D01*
X0058334Y0191251D01*
X0058203Y0191158D01*
X0058069Y0191068D01*
X0057934Y0190981D01*
X0057796Y0190898D01*
X0057657Y0190818D01*
X0057515Y0190742D01*
X0057372Y0190669D01*
X0057227Y0190600D01*
X0057080Y0190534D01*
X0056932Y0190472D01*
X0056782Y0190414D01*
X0056631Y0190359D01*
X0056478Y0190308D01*
X0056324Y0190261D01*
X0056169Y0190218D01*
X0056013Y0190179D01*
X0055857Y0190143D01*
X0055699Y0190112D01*
X0055541Y0190084D01*
X0055382Y0190060D01*
X0055222Y0190040D01*
X0055062Y0190024D01*
X0054902Y0190012D01*
X0054741Y0190004D01*
X0054580Y0190000D01*
X0054420Y0190000D01*
X0054259Y0190004D01*
X0054098Y0190012D01*
X0053938Y0190024D01*
X0053778Y0190040D01*
X0053618Y0190060D01*
X0053459Y0190084D01*
X0053301Y0190112D01*
X0053143Y0190143D01*
X0052987Y0190179D01*
X0052831Y0190218D01*
X0052676Y0190261D01*
X0052522Y0190308D01*
X0052369Y0190359D01*
X0052218Y0190414D01*
X0052068Y0190472D01*
X0051920Y0190534D01*
X0051773Y0190600D01*
X0051628Y0190669D01*
X0051485Y0190742D01*
X0051343Y0190818D01*
X0051204Y0190898D01*
X0051066Y0190981D01*
X0050931Y0191068D01*
X0050797Y0191158D01*
X0050666Y0191251D01*
X0050538Y0191347D01*
X0050412Y0191447D01*
X0050288Y0191550D01*
X0050167Y0191655D01*
X0050048Y0191764D01*
X0049932Y0191875D01*
X0049819Y0191990D01*
X0049709Y0192107D01*
X0049602Y0192227D01*
X0049498Y0192349D01*
X0049397Y0192474D01*
X0049299Y0192602D01*
X0049204Y0192732D01*
X0049112Y0192864D01*
X0049024Y0192998D01*
X0048939Y0193135D01*
X0048857Y0193273D01*
X0048779Y0193414D01*
X0048705Y0193556D01*
X0048634Y0193700D01*
X0048566Y0193846D01*
X0048503Y0193994D01*
X0048442Y0194143D01*
X0048386Y0194294D01*
X0048333Y0194446D01*
X0048284Y0194599D01*
X0048239Y0194753D01*
X0048198Y0194908D01*
X0048160Y0195065D01*
X0048127Y0195222D01*
X0048097Y0195380D01*
X0048071Y0195539D01*
X0048050Y0195698D01*
X0048032Y0195858D01*
X0048018Y0196018D01*
X0048008Y0196179D01*
X0048002Y0196339D01*
X0048000Y0196500D01*
X0080701Y0205000D02*
X0080703Y0205158D01*
X0080709Y0205316D01*
X0080719Y0205474D01*
X0080733Y0205632D01*
X0080751Y0205789D01*
X0080772Y0205946D01*
X0080798Y0206102D01*
X0080828Y0206258D01*
X0080861Y0206413D01*
X0080899Y0206566D01*
X0080940Y0206719D01*
X0080985Y0206871D01*
X0081034Y0207022D01*
X0081087Y0207171D01*
X0081143Y0207319D01*
X0081203Y0207465D01*
X0081267Y0207610D01*
X0081335Y0207753D01*
X0081406Y0207895D01*
X0081480Y0208035D01*
X0081558Y0208172D01*
X0081640Y0208308D01*
X0081724Y0208442D01*
X0081813Y0208573D01*
X0081904Y0208702D01*
X0081999Y0208829D01*
X0082096Y0208954D01*
X0082197Y0209076D01*
X0082301Y0209195D01*
X0082408Y0209312D01*
X0082518Y0209426D01*
X0082631Y0209537D01*
X0082746Y0209646D01*
X0082864Y0209751D01*
X0082985Y0209853D01*
X0083108Y0209953D01*
X0083234Y0210049D01*
X0083362Y0210142D01*
X0083492Y0210232D01*
X0083625Y0210318D01*
X0083760Y0210402D01*
X0083896Y0210481D01*
X0084035Y0210558D01*
X0084176Y0210630D01*
X0084318Y0210700D01*
X0084462Y0210765D01*
X0084608Y0210827D01*
X0084755Y0210885D01*
X0084904Y0210940D01*
X0085054Y0210991D01*
X0085205Y0211038D01*
X0085357Y0211081D01*
X0085510Y0211120D01*
X0085665Y0211156D01*
X0085820Y0211187D01*
X0085976Y0211215D01*
X0086132Y0211239D01*
X0086289Y0211259D01*
X0086447Y0211275D01*
X0086604Y0211287D01*
X0086763Y0211295D01*
X0086921Y0211299D01*
X0087079Y0211299D01*
X0087237Y0211295D01*
X0087396Y0211287D01*
X0087553Y0211275D01*
X0087711Y0211259D01*
X0087868Y0211239D01*
X0088024Y0211215D01*
X0088180Y0211187D01*
X0088335Y0211156D01*
X0088490Y0211120D01*
X0088643Y0211081D01*
X0088795Y0211038D01*
X0088946Y0210991D01*
X0089096Y0210940D01*
X0089245Y0210885D01*
X0089392Y0210827D01*
X0089538Y0210765D01*
X0089682Y0210700D01*
X0089824Y0210630D01*
X0089965Y0210558D01*
X0090104Y0210481D01*
X0090240Y0210402D01*
X0090375Y0210318D01*
X0090508Y0210232D01*
X0090638Y0210142D01*
X0090766Y0210049D01*
X0090892Y0209953D01*
X0091015Y0209853D01*
X0091136Y0209751D01*
X0091254Y0209646D01*
X0091369Y0209537D01*
X0091482Y0209426D01*
X0091592Y0209312D01*
X0091699Y0209195D01*
X0091803Y0209076D01*
X0091904Y0208954D01*
X0092001Y0208829D01*
X0092096Y0208702D01*
X0092187Y0208573D01*
X0092276Y0208442D01*
X0092360Y0208308D01*
X0092442Y0208172D01*
X0092520Y0208035D01*
X0092594Y0207895D01*
X0092665Y0207753D01*
X0092733Y0207610D01*
X0092797Y0207465D01*
X0092857Y0207319D01*
X0092913Y0207171D01*
X0092966Y0207022D01*
X0093015Y0206871D01*
X0093060Y0206719D01*
X0093101Y0206566D01*
X0093139Y0206413D01*
X0093172Y0206258D01*
X0093202Y0206102D01*
X0093228Y0205946D01*
X0093249Y0205789D01*
X0093267Y0205632D01*
X0093281Y0205474D01*
X0093291Y0205316D01*
X0093297Y0205158D01*
X0093299Y0205000D01*
X0093297Y0204842D01*
X0093291Y0204684D01*
X0093281Y0204526D01*
X0093267Y0204368D01*
X0093249Y0204211D01*
X0093228Y0204054D01*
X0093202Y0203898D01*
X0093172Y0203742D01*
X0093139Y0203587D01*
X0093101Y0203434D01*
X0093060Y0203281D01*
X0093015Y0203129D01*
X0092966Y0202978D01*
X0092913Y0202829D01*
X0092857Y0202681D01*
X0092797Y0202535D01*
X0092733Y0202390D01*
X0092665Y0202247D01*
X0092594Y0202105D01*
X0092520Y0201965D01*
X0092442Y0201828D01*
X0092360Y0201692D01*
X0092276Y0201558D01*
X0092187Y0201427D01*
X0092096Y0201298D01*
X0092001Y0201171D01*
X0091904Y0201046D01*
X0091803Y0200924D01*
X0091699Y0200805D01*
X0091592Y0200688D01*
X0091482Y0200574D01*
X0091369Y0200463D01*
X0091254Y0200354D01*
X0091136Y0200249D01*
X0091015Y0200147D01*
X0090892Y0200047D01*
X0090766Y0199951D01*
X0090638Y0199858D01*
X0090508Y0199768D01*
X0090375Y0199682D01*
X0090240Y0199598D01*
X0090104Y0199519D01*
X0089965Y0199442D01*
X0089824Y0199370D01*
X0089682Y0199300D01*
X0089538Y0199235D01*
X0089392Y0199173D01*
X0089245Y0199115D01*
X0089096Y0199060D01*
X0088946Y0199009D01*
X0088795Y0198962D01*
X0088643Y0198919D01*
X0088490Y0198880D01*
X0088335Y0198844D01*
X0088180Y0198813D01*
X0088024Y0198785D01*
X0087868Y0198761D01*
X0087711Y0198741D01*
X0087553Y0198725D01*
X0087396Y0198713D01*
X0087237Y0198705D01*
X0087079Y0198701D01*
X0086921Y0198701D01*
X0086763Y0198705D01*
X0086604Y0198713D01*
X0086447Y0198725D01*
X0086289Y0198741D01*
X0086132Y0198761D01*
X0085976Y0198785D01*
X0085820Y0198813D01*
X0085665Y0198844D01*
X0085510Y0198880D01*
X0085357Y0198919D01*
X0085205Y0198962D01*
X0085054Y0199009D01*
X0084904Y0199060D01*
X0084755Y0199115D01*
X0084608Y0199173D01*
X0084462Y0199235D01*
X0084318Y0199300D01*
X0084176Y0199370D01*
X0084035Y0199442D01*
X0083896Y0199519D01*
X0083760Y0199598D01*
X0083625Y0199682D01*
X0083492Y0199768D01*
X0083362Y0199858D01*
X0083234Y0199951D01*
X0083108Y0200047D01*
X0082985Y0200147D01*
X0082864Y0200249D01*
X0082746Y0200354D01*
X0082631Y0200463D01*
X0082518Y0200574D01*
X0082408Y0200688D01*
X0082301Y0200805D01*
X0082197Y0200924D01*
X0082096Y0201046D01*
X0081999Y0201171D01*
X0081904Y0201298D01*
X0081813Y0201427D01*
X0081724Y0201558D01*
X0081640Y0201692D01*
X0081558Y0201828D01*
X0081480Y0201965D01*
X0081406Y0202105D01*
X0081335Y0202247D01*
X0081267Y0202390D01*
X0081203Y0202535D01*
X0081143Y0202681D01*
X0081087Y0202829D01*
X0081034Y0202978D01*
X0080985Y0203129D01*
X0080940Y0203281D01*
X0080899Y0203434D01*
X0080861Y0203587D01*
X0080828Y0203742D01*
X0080798Y0203898D01*
X0080772Y0204054D01*
X0080751Y0204211D01*
X0080733Y0204368D01*
X0080719Y0204526D01*
X0080709Y0204684D01*
X0080703Y0204842D01*
X0080701Y0205000D01*
X0258500Y0140000D02*
X0258502Y0140118D01*
X0258508Y0140236D01*
X0258518Y0140354D01*
X0258532Y0140471D01*
X0258550Y0140588D01*
X0258572Y0140705D01*
X0258597Y0140820D01*
X0258627Y0140934D01*
X0258661Y0141048D01*
X0258698Y0141160D01*
X0258739Y0141271D01*
X0258784Y0141380D01*
X0258832Y0141488D01*
X0258884Y0141594D01*
X0258940Y0141699D01*
X0258999Y0141801D01*
X0259061Y0141901D01*
X0259127Y0141999D01*
X0259196Y0142095D01*
X0259269Y0142189D01*
X0259344Y0142280D01*
X0259423Y0142368D01*
X0259504Y0142454D01*
X0259589Y0142537D01*
X0259676Y0142617D01*
X0259765Y0142694D01*
X0259858Y0142768D01*
X0259952Y0142838D01*
X0260049Y0142906D01*
X0260149Y0142970D01*
X0260250Y0143031D01*
X0260353Y0143088D01*
X0260459Y0143142D01*
X0260566Y0143193D01*
X0260674Y0143239D01*
X0260784Y0143282D01*
X0260896Y0143321D01*
X0261009Y0143357D01*
X0261123Y0143388D01*
X0261238Y0143416D01*
X0261353Y0143440D01*
X0261470Y0143460D01*
X0261587Y0143476D01*
X0261705Y0143488D01*
X0261823Y0143496D01*
X0261941Y0143500D01*
X0262059Y0143500D01*
X0262177Y0143496D01*
X0262295Y0143488D01*
X0262413Y0143476D01*
X0262530Y0143460D01*
X0262647Y0143440D01*
X0262762Y0143416D01*
X0262877Y0143388D01*
X0262991Y0143357D01*
X0263104Y0143321D01*
X0263216Y0143282D01*
X0263326Y0143239D01*
X0263434Y0143193D01*
X0263541Y0143142D01*
X0263647Y0143088D01*
X0263750Y0143031D01*
X0263851Y0142970D01*
X0263951Y0142906D01*
X0264048Y0142838D01*
X0264142Y0142768D01*
X0264235Y0142694D01*
X0264324Y0142617D01*
X0264411Y0142537D01*
X0264496Y0142454D01*
X0264577Y0142368D01*
X0264656Y0142280D01*
X0264731Y0142189D01*
X0264804Y0142095D01*
X0264873Y0141999D01*
X0264939Y0141901D01*
X0265001Y0141801D01*
X0265060Y0141699D01*
X0265116Y0141594D01*
X0265168Y0141488D01*
X0265216Y0141380D01*
X0265261Y0141271D01*
X0265302Y0141160D01*
X0265339Y0141048D01*
X0265373Y0140934D01*
X0265403Y0140820D01*
X0265428Y0140705D01*
X0265450Y0140588D01*
X0265468Y0140471D01*
X0265482Y0140354D01*
X0265492Y0140236D01*
X0265498Y0140118D01*
X0265500Y0140000D01*
X0265498Y0139882D01*
X0265492Y0139764D01*
X0265482Y0139646D01*
X0265468Y0139529D01*
X0265450Y0139412D01*
X0265428Y0139295D01*
X0265403Y0139180D01*
X0265373Y0139066D01*
X0265339Y0138952D01*
X0265302Y0138840D01*
X0265261Y0138729D01*
X0265216Y0138620D01*
X0265168Y0138512D01*
X0265116Y0138406D01*
X0265060Y0138301D01*
X0265001Y0138199D01*
X0264939Y0138099D01*
X0264873Y0138001D01*
X0264804Y0137905D01*
X0264731Y0137811D01*
X0264656Y0137720D01*
X0264577Y0137632D01*
X0264496Y0137546D01*
X0264411Y0137463D01*
X0264324Y0137383D01*
X0264235Y0137306D01*
X0264142Y0137232D01*
X0264048Y0137162D01*
X0263951Y0137094D01*
X0263851Y0137030D01*
X0263750Y0136969D01*
X0263647Y0136912D01*
X0263541Y0136858D01*
X0263434Y0136807D01*
X0263326Y0136761D01*
X0263216Y0136718D01*
X0263104Y0136679D01*
X0262991Y0136643D01*
X0262877Y0136612D01*
X0262762Y0136584D01*
X0262647Y0136560D01*
X0262530Y0136540D01*
X0262413Y0136524D01*
X0262295Y0136512D01*
X0262177Y0136504D01*
X0262059Y0136500D01*
X0261941Y0136500D01*
X0261823Y0136504D01*
X0261705Y0136512D01*
X0261587Y0136524D01*
X0261470Y0136540D01*
X0261353Y0136560D01*
X0261238Y0136584D01*
X0261123Y0136612D01*
X0261009Y0136643D01*
X0260896Y0136679D01*
X0260784Y0136718D01*
X0260674Y0136761D01*
X0260566Y0136807D01*
X0260459Y0136858D01*
X0260353Y0136912D01*
X0260250Y0136969D01*
X0260149Y0137030D01*
X0260049Y0137094D01*
X0259952Y0137162D01*
X0259858Y0137232D01*
X0259765Y0137306D01*
X0259676Y0137383D01*
X0259589Y0137463D01*
X0259504Y0137546D01*
X0259423Y0137632D01*
X0259344Y0137720D01*
X0259269Y0137811D01*
X0259196Y0137905D01*
X0259127Y0138001D01*
X0259061Y0138099D01*
X0258999Y0138199D01*
X0258940Y0138301D01*
X0258884Y0138406D01*
X0258832Y0138512D01*
X0258784Y0138620D01*
X0258739Y0138729D01*
X0258698Y0138840D01*
X0258661Y0138952D01*
X0258627Y0139066D01*
X0258597Y0139180D01*
X0258572Y0139295D01*
X0258550Y0139412D01*
X0258532Y0139529D01*
X0258518Y0139646D01*
X0258508Y0139764D01*
X0258502Y0139882D01*
X0258500Y0140000D01*
X0280701Y0145000D02*
X0280703Y0145158D01*
X0280709Y0145316D01*
X0280719Y0145474D01*
X0280733Y0145632D01*
X0280751Y0145789D01*
X0280772Y0145946D01*
X0280798Y0146102D01*
X0280828Y0146258D01*
X0280861Y0146413D01*
X0280899Y0146566D01*
X0280940Y0146719D01*
X0280985Y0146871D01*
X0281034Y0147022D01*
X0281087Y0147171D01*
X0281143Y0147319D01*
X0281203Y0147465D01*
X0281267Y0147610D01*
X0281335Y0147753D01*
X0281406Y0147895D01*
X0281480Y0148035D01*
X0281558Y0148172D01*
X0281640Y0148308D01*
X0281724Y0148442D01*
X0281813Y0148573D01*
X0281904Y0148702D01*
X0281999Y0148829D01*
X0282096Y0148954D01*
X0282197Y0149076D01*
X0282301Y0149195D01*
X0282408Y0149312D01*
X0282518Y0149426D01*
X0282631Y0149537D01*
X0282746Y0149646D01*
X0282864Y0149751D01*
X0282985Y0149853D01*
X0283108Y0149953D01*
X0283234Y0150049D01*
X0283362Y0150142D01*
X0283492Y0150232D01*
X0283625Y0150318D01*
X0283760Y0150402D01*
X0283896Y0150481D01*
X0284035Y0150558D01*
X0284176Y0150630D01*
X0284318Y0150700D01*
X0284462Y0150765D01*
X0284608Y0150827D01*
X0284755Y0150885D01*
X0284904Y0150940D01*
X0285054Y0150991D01*
X0285205Y0151038D01*
X0285357Y0151081D01*
X0285510Y0151120D01*
X0285665Y0151156D01*
X0285820Y0151187D01*
X0285976Y0151215D01*
X0286132Y0151239D01*
X0286289Y0151259D01*
X0286447Y0151275D01*
X0286604Y0151287D01*
X0286763Y0151295D01*
X0286921Y0151299D01*
X0287079Y0151299D01*
X0287237Y0151295D01*
X0287396Y0151287D01*
X0287553Y0151275D01*
X0287711Y0151259D01*
X0287868Y0151239D01*
X0288024Y0151215D01*
X0288180Y0151187D01*
X0288335Y0151156D01*
X0288490Y0151120D01*
X0288643Y0151081D01*
X0288795Y0151038D01*
X0288946Y0150991D01*
X0289096Y0150940D01*
X0289245Y0150885D01*
X0289392Y0150827D01*
X0289538Y0150765D01*
X0289682Y0150700D01*
X0289824Y0150630D01*
X0289965Y0150558D01*
X0290104Y0150481D01*
X0290240Y0150402D01*
X0290375Y0150318D01*
X0290508Y0150232D01*
X0290638Y0150142D01*
X0290766Y0150049D01*
X0290892Y0149953D01*
X0291015Y0149853D01*
X0291136Y0149751D01*
X0291254Y0149646D01*
X0291369Y0149537D01*
X0291482Y0149426D01*
X0291592Y0149312D01*
X0291699Y0149195D01*
X0291803Y0149076D01*
X0291904Y0148954D01*
X0292001Y0148829D01*
X0292096Y0148702D01*
X0292187Y0148573D01*
X0292276Y0148442D01*
X0292360Y0148308D01*
X0292442Y0148172D01*
X0292520Y0148035D01*
X0292594Y0147895D01*
X0292665Y0147753D01*
X0292733Y0147610D01*
X0292797Y0147465D01*
X0292857Y0147319D01*
X0292913Y0147171D01*
X0292966Y0147022D01*
X0293015Y0146871D01*
X0293060Y0146719D01*
X0293101Y0146566D01*
X0293139Y0146413D01*
X0293172Y0146258D01*
X0293202Y0146102D01*
X0293228Y0145946D01*
X0293249Y0145789D01*
X0293267Y0145632D01*
X0293281Y0145474D01*
X0293291Y0145316D01*
X0293297Y0145158D01*
X0293299Y0145000D01*
X0293297Y0144842D01*
X0293291Y0144684D01*
X0293281Y0144526D01*
X0293267Y0144368D01*
X0293249Y0144211D01*
X0293228Y0144054D01*
X0293202Y0143898D01*
X0293172Y0143742D01*
X0293139Y0143587D01*
X0293101Y0143434D01*
X0293060Y0143281D01*
X0293015Y0143129D01*
X0292966Y0142978D01*
X0292913Y0142829D01*
X0292857Y0142681D01*
X0292797Y0142535D01*
X0292733Y0142390D01*
X0292665Y0142247D01*
X0292594Y0142105D01*
X0292520Y0141965D01*
X0292442Y0141828D01*
X0292360Y0141692D01*
X0292276Y0141558D01*
X0292187Y0141427D01*
X0292096Y0141298D01*
X0292001Y0141171D01*
X0291904Y0141046D01*
X0291803Y0140924D01*
X0291699Y0140805D01*
X0291592Y0140688D01*
X0291482Y0140574D01*
X0291369Y0140463D01*
X0291254Y0140354D01*
X0291136Y0140249D01*
X0291015Y0140147D01*
X0290892Y0140047D01*
X0290766Y0139951D01*
X0290638Y0139858D01*
X0290508Y0139768D01*
X0290375Y0139682D01*
X0290240Y0139598D01*
X0290104Y0139519D01*
X0289965Y0139442D01*
X0289824Y0139370D01*
X0289682Y0139300D01*
X0289538Y0139235D01*
X0289392Y0139173D01*
X0289245Y0139115D01*
X0289096Y0139060D01*
X0288946Y0139009D01*
X0288795Y0138962D01*
X0288643Y0138919D01*
X0288490Y0138880D01*
X0288335Y0138844D01*
X0288180Y0138813D01*
X0288024Y0138785D01*
X0287868Y0138761D01*
X0287711Y0138741D01*
X0287553Y0138725D01*
X0287396Y0138713D01*
X0287237Y0138705D01*
X0287079Y0138701D01*
X0286921Y0138701D01*
X0286763Y0138705D01*
X0286604Y0138713D01*
X0286447Y0138725D01*
X0286289Y0138741D01*
X0286132Y0138761D01*
X0285976Y0138785D01*
X0285820Y0138813D01*
X0285665Y0138844D01*
X0285510Y0138880D01*
X0285357Y0138919D01*
X0285205Y0138962D01*
X0285054Y0139009D01*
X0284904Y0139060D01*
X0284755Y0139115D01*
X0284608Y0139173D01*
X0284462Y0139235D01*
X0284318Y0139300D01*
X0284176Y0139370D01*
X0284035Y0139442D01*
X0283896Y0139519D01*
X0283760Y0139598D01*
X0283625Y0139682D01*
X0283492Y0139768D01*
X0283362Y0139858D01*
X0283234Y0139951D01*
X0283108Y0140047D01*
X0282985Y0140147D01*
X0282864Y0140249D01*
X0282746Y0140354D01*
X0282631Y0140463D01*
X0282518Y0140574D01*
X0282408Y0140688D01*
X0282301Y0140805D01*
X0282197Y0140924D01*
X0282096Y0141046D01*
X0281999Y0141171D01*
X0281904Y0141298D01*
X0281813Y0141427D01*
X0281724Y0141558D01*
X0281640Y0141692D01*
X0281558Y0141828D01*
X0281480Y0141965D01*
X0281406Y0142105D01*
X0281335Y0142247D01*
X0281267Y0142390D01*
X0281203Y0142535D01*
X0281143Y0142681D01*
X0281087Y0142829D01*
X0281034Y0142978D01*
X0280985Y0143129D01*
X0280940Y0143281D01*
X0280899Y0143434D01*
X0280861Y0143587D01*
X0280828Y0143742D01*
X0280798Y0143898D01*
X0280772Y0144054D01*
X0280751Y0144211D01*
X0280733Y0144368D01*
X0280719Y0144526D01*
X0280709Y0144684D01*
X0280703Y0144842D01*
X0280701Y0145000D01*
X0308100Y0185000D02*
X0308102Y0185160D01*
X0308108Y0185319D01*
X0308118Y0185478D01*
X0308132Y0185637D01*
X0308150Y0185796D01*
X0308171Y0185954D01*
X0308197Y0186111D01*
X0308227Y0186268D01*
X0308260Y0186424D01*
X0308298Y0186579D01*
X0308339Y0186733D01*
X0308384Y0186886D01*
X0308433Y0187038D01*
X0308486Y0187189D01*
X0308542Y0187338D01*
X0308603Y0187486D01*
X0308666Y0187632D01*
X0308734Y0187777D01*
X0308805Y0187920D01*
X0308879Y0188061D01*
X0308957Y0188200D01*
X0309039Y0188337D01*
X0309124Y0188472D01*
X0309212Y0188605D01*
X0309304Y0188736D01*
X0309398Y0188864D01*
X0309496Y0188990D01*
X0309597Y0189114D01*
X0309701Y0189235D01*
X0309808Y0189353D01*
X0309918Y0189469D01*
X0310031Y0189582D01*
X0310147Y0189692D01*
X0310265Y0189799D01*
X0310386Y0189903D01*
X0310510Y0190004D01*
X0310636Y0190102D01*
X0310764Y0190196D01*
X0310895Y0190288D01*
X0311028Y0190376D01*
X0311163Y0190461D01*
X0311300Y0190543D01*
X0311439Y0190621D01*
X0311580Y0190695D01*
X0311723Y0190766D01*
X0311868Y0190834D01*
X0312014Y0190897D01*
X0312162Y0190958D01*
X0312311Y0191014D01*
X0312462Y0191067D01*
X0312614Y0191116D01*
X0312767Y0191161D01*
X0312921Y0191202D01*
X0313076Y0191240D01*
X0313232Y0191273D01*
X0313389Y0191303D01*
X0313546Y0191329D01*
X0313704Y0191350D01*
X0313863Y0191368D01*
X0314022Y0191382D01*
X0314181Y0191392D01*
X0314340Y0191398D01*
X0314500Y0191400D01*
X0314660Y0191398D01*
X0314819Y0191392D01*
X0314978Y0191382D01*
X0315137Y0191368D01*
X0315296Y0191350D01*
X0315454Y0191329D01*
X0315611Y0191303D01*
X0315768Y0191273D01*
X0315924Y0191240D01*
X0316079Y0191202D01*
X0316233Y0191161D01*
X0316386Y0191116D01*
X0316538Y0191067D01*
X0316689Y0191014D01*
X0316838Y0190958D01*
X0316986Y0190897D01*
X0317132Y0190834D01*
X0317277Y0190766D01*
X0317420Y0190695D01*
X0317561Y0190621D01*
X0317700Y0190543D01*
X0317837Y0190461D01*
X0317972Y0190376D01*
X0318105Y0190288D01*
X0318236Y0190196D01*
X0318364Y0190102D01*
X0318490Y0190004D01*
X0318614Y0189903D01*
X0318735Y0189799D01*
X0318853Y0189692D01*
X0318969Y0189582D01*
X0319082Y0189469D01*
X0319192Y0189353D01*
X0319299Y0189235D01*
X0319403Y0189114D01*
X0319504Y0188990D01*
X0319602Y0188864D01*
X0319696Y0188736D01*
X0319788Y0188605D01*
X0319876Y0188472D01*
X0319961Y0188337D01*
X0320043Y0188200D01*
X0320121Y0188061D01*
X0320195Y0187920D01*
X0320266Y0187777D01*
X0320334Y0187632D01*
X0320397Y0187486D01*
X0320458Y0187338D01*
X0320514Y0187189D01*
X0320567Y0187038D01*
X0320616Y0186886D01*
X0320661Y0186733D01*
X0320702Y0186579D01*
X0320740Y0186424D01*
X0320773Y0186268D01*
X0320803Y0186111D01*
X0320829Y0185954D01*
X0320850Y0185796D01*
X0320868Y0185637D01*
X0320882Y0185478D01*
X0320892Y0185319D01*
X0320898Y0185160D01*
X0320900Y0185000D01*
X0320898Y0184840D01*
X0320892Y0184681D01*
X0320882Y0184522D01*
X0320868Y0184363D01*
X0320850Y0184204D01*
X0320829Y0184046D01*
X0320803Y0183889D01*
X0320773Y0183732D01*
X0320740Y0183576D01*
X0320702Y0183421D01*
X0320661Y0183267D01*
X0320616Y0183114D01*
X0320567Y0182962D01*
X0320514Y0182811D01*
X0320458Y0182662D01*
X0320397Y0182514D01*
X0320334Y0182368D01*
X0320266Y0182223D01*
X0320195Y0182080D01*
X0320121Y0181939D01*
X0320043Y0181800D01*
X0319961Y0181663D01*
X0319876Y0181528D01*
X0319788Y0181395D01*
X0319696Y0181264D01*
X0319602Y0181136D01*
X0319504Y0181010D01*
X0319403Y0180886D01*
X0319299Y0180765D01*
X0319192Y0180647D01*
X0319082Y0180531D01*
X0318969Y0180418D01*
X0318853Y0180308D01*
X0318735Y0180201D01*
X0318614Y0180097D01*
X0318490Y0179996D01*
X0318364Y0179898D01*
X0318236Y0179804D01*
X0318105Y0179712D01*
X0317972Y0179624D01*
X0317837Y0179539D01*
X0317700Y0179457D01*
X0317561Y0179379D01*
X0317420Y0179305D01*
X0317277Y0179234D01*
X0317132Y0179166D01*
X0316986Y0179103D01*
X0316838Y0179042D01*
X0316689Y0178986D01*
X0316538Y0178933D01*
X0316386Y0178884D01*
X0316233Y0178839D01*
X0316079Y0178798D01*
X0315924Y0178760D01*
X0315768Y0178727D01*
X0315611Y0178697D01*
X0315454Y0178671D01*
X0315296Y0178650D01*
X0315137Y0178632D01*
X0314978Y0178618D01*
X0314819Y0178608D01*
X0314660Y0178602D01*
X0314500Y0178600D01*
X0314340Y0178602D01*
X0314181Y0178608D01*
X0314022Y0178618D01*
X0313863Y0178632D01*
X0313704Y0178650D01*
X0313546Y0178671D01*
X0313389Y0178697D01*
X0313232Y0178727D01*
X0313076Y0178760D01*
X0312921Y0178798D01*
X0312767Y0178839D01*
X0312614Y0178884D01*
X0312462Y0178933D01*
X0312311Y0178986D01*
X0312162Y0179042D01*
X0312014Y0179103D01*
X0311868Y0179166D01*
X0311723Y0179234D01*
X0311580Y0179305D01*
X0311439Y0179379D01*
X0311300Y0179457D01*
X0311163Y0179539D01*
X0311028Y0179624D01*
X0310895Y0179712D01*
X0310764Y0179804D01*
X0310636Y0179898D01*
X0310510Y0179996D01*
X0310386Y0180097D01*
X0310265Y0180201D01*
X0310147Y0180308D01*
X0310031Y0180418D01*
X0309918Y0180531D01*
X0309808Y0180647D01*
X0309701Y0180765D01*
X0309597Y0180886D01*
X0309496Y0181010D01*
X0309398Y0181136D01*
X0309304Y0181264D01*
X0309212Y0181395D01*
X0309124Y0181528D01*
X0309039Y0181663D01*
X0308957Y0181800D01*
X0308879Y0181939D01*
X0308805Y0182080D01*
X0308734Y0182223D01*
X0308666Y0182368D01*
X0308603Y0182514D01*
X0308542Y0182662D01*
X0308486Y0182811D01*
X0308433Y0182962D01*
X0308384Y0183114D01*
X0308339Y0183267D01*
X0308298Y0183421D01*
X0308260Y0183576D01*
X0308227Y0183732D01*
X0308197Y0183889D01*
X0308171Y0184046D01*
X0308150Y0184204D01*
X0308132Y0184363D01*
X0308118Y0184522D01*
X0308108Y0184681D01*
X0308102Y0184840D01*
X0308100Y0185000D01*
X0348100Y0185000D02*
X0348102Y0185160D01*
X0348108Y0185319D01*
X0348118Y0185478D01*
X0348132Y0185637D01*
X0348150Y0185796D01*
X0348171Y0185954D01*
X0348197Y0186111D01*
X0348227Y0186268D01*
X0348260Y0186424D01*
X0348298Y0186579D01*
X0348339Y0186733D01*
X0348384Y0186886D01*
X0348433Y0187038D01*
X0348486Y0187189D01*
X0348542Y0187338D01*
X0348603Y0187486D01*
X0348666Y0187632D01*
X0348734Y0187777D01*
X0348805Y0187920D01*
X0348879Y0188061D01*
X0348957Y0188200D01*
X0349039Y0188337D01*
X0349124Y0188472D01*
X0349212Y0188605D01*
X0349304Y0188736D01*
X0349398Y0188864D01*
X0349496Y0188990D01*
X0349597Y0189114D01*
X0349701Y0189235D01*
X0349808Y0189353D01*
X0349918Y0189469D01*
X0350031Y0189582D01*
X0350147Y0189692D01*
X0350265Y0189799D01*
X0350386Y0189903D01*
X0350510Y0190004D01*
X0350636Y0190102D01*
X0350764Y0190196D01*
X0350895Y0190288D01*
X0351028Y0190376D01*
X0351163Y0190461D01*
X0351300Y0190543D01*
X0351439Y0190621D01*
X0351580Y0190695D01*
X0351723Y0190766D01*
X0351868Y0190834D01*
X0352014Y0190897D01*
X0352162Y0190958D01*
X0352311Y0191014D01*
X0352462Y0191067D01*
X0352614Y0191116D01*
X0352767Y0191161D01*
X0352921Y0191202D01*
X0353076Y0191240D01*
X0353232Y0191273D01*
X0353389Y0191303D01*
X0353546Y0191329D01*
X0353704Y0191350D01*
X0353863Y0191368D01*
X0354022Y0191382D01*
X0354181Y0191392D01*
X0354340Y0191398D01*
X0354500Y0191400D01*
X0354660Y0191398D01*
X0354819Y0191392D01*
X0354978Y0191382D01*
X0355137Y0191368D01*
X0355296Y0191350D01*
X0355454Y0191329D01*
X0355611Y0191303D01*
X0355768Y0191273D01*
X0355924Y0191240D01*
X0356079Y0191202D01*
X0356233Y0191161D01*
X0356386Y0191116D01*
X0356538Y0191067D01*
X0356689Y0191014D01*
X0356838Y0190958D01*
X0356986Y0190897D01*
X0357132Y0190834D01*
X0357277Y0190766D01*
X0357420Y0190695D01*
X0357561Y0190621D01*
X0357700Y0190543D01*
X0357837Y0190461D01*
X0357972Y0190376D01*
X0358105Y0190288D01*
X0358236Y0190196D01*
X0358364Y0190102D01*
X0358490Y0190004D01*
X0358614Y0189903D01*
X0358735Y0189799D01*
X0358853Y0189692D01*
X0358969Y0189582D01*
X0359082Y0189469D01*
X0359192Y0189353D01*
X0359299Y0189235D01*
X0359403Y0189114D01*
X0359504Y0188990D01*
X0359602Y0188864D01*
X0359696Y0188736D01*
X0359788Y0188605D01*
X0359876Y0188472D01*
X0359961Y0188337D01*
X0360043Y0188200D01*
X0360121Y0188061D01*
X0360195Y0187920D01*
X0360266Y0187777D01*
X0360334Y0187632D01*
X0360397Y0187486D01*
X0360458Y0187338D01*
X0360514Y0187189D01*
X0360567Y0187038D01*
X0360616Y0186886D01*
X0360661Y0186733D01*
X0360702Y0186579D01*
X0360740Y0186424D01*
X0360773Y0186268D01*
X0360803Y0186111D01*
X0360829Y0185954D01*
X0360850Y0185796D01*
X0360868Y0185637D01*
X0360882Y0185478D01*
X0360892Y0185319D01*
X0360898Y0185160D01*
X0360900Y0185000D01*
X0360898Y0184840D01*
X0360892Y0184681D01*
X0360882Y0184522D01*
X0360868Y0184363D01*
X0360850Y0184204D01*
X0360829Y0184046D01*
X0360803Y0183889D01*
X0360773Y0183732D01*
X0360740Y0183576D01*
X0360702Y0183421D01*
X0360661Y0183267D01*
X0360616Y0183114D01*
X0360567Y0182962D01*
X0360514Y0182811D01*
X0360458Y0182662D01*
X0360397Y0182514D01*
X0360334Y0182368D01*
X0360266Y0182223D01*
X0360195Y0182080D01*
X0360121Y0181939D01*
X0360043Y0181800D01*
X0359961Y0181663D01*
X0359876Y0181528D01*
X0359788Y0181395D01*
X0359696Y0181264D01*
X0359602Y0181136D01*
X0359504Y0181010D01*
X0359403Y0180886D01*
X0359299Y0180765D01*
X0359192Y0180647D01*
X0359082Y0180531D01*
X0358969Y0180418D01*
X0358853Y0180308D01*
X0358735Y0180201D01*
X0358614Y0180097D01*
X0358490Y0179996D01*
X0358364Y0179898D01*
X0358236Y0179804D01*
X0358105Y0179712D01*
X0357972Y0179624D01*
X0357837Y0179539D01*
X0357700Y0179457D01*
X0357561Y0179379D01*
X0357420Y0179305D01*
X0357277Y0179234D01*
X0357132Y0179166D01*
X0356986Y0179103D01*
X0356838Y0179042D01*
X0356689Y0178986D01*
X0356538Y0178933D01*
X0356386Y0178884D01*
X0356233Y0178839D01*
X0356079Y0178798D01*
X0355924Y0178760D01*
X0355768Y0178727D01*
X0355611Y0178697D01*
X0355454Y0178671D01*
X0355296Y0178650D01*
X0355137Y0178632D01*
X0354978Y0178618D01*
X0354819Y0178608D01*
X0354660Y0178602D01*
X0354500Y0178600D01*
X0354340Y0178602D01*
X0354181Y0178608D01*
X0354022Y0178618D01*
X0353863Y0178632D01*
X0353704Y0178650D01*
X0353546Y0178671D01*
X0353389Y0178697D01*
X0353232Y0178727D01*
X0353076Y0178760D01*
X0352921Y0178798D01*
X0352767Y0178839D01*
X0352614Y0178884D01*
X0352462Y0178933D01*
X0352311Y0178986D01*
X0352162Y0179042D01*
X0352014Y0179103D01*
X0351868Y0179166D01*
X0351723Y0179234D01*
X0351580Y0179305D01*
X0351439Y0179379D01*
X0351300Y0179457D01*
X0351163Y0179539D01*
X0351028Y0179624D01*
X0350895Y0179712D01*
X0350764Y0179804D01*
X0350636Y0179898D01*
X0350510Y0179996D01*
X0350386Y0180097D01*
X0350265Y0180201D01*
X0350147Y0180308D01*
X0350031Y0180418D01*
X0349918Y0180531D01*
X0349808Y0180647D01*
X0349701Y0180765D01*
X0349597Y0180886D01*
X0349496Y0181010D01*
X0349398Y0181136D01*
X0349304Y0181264D01*
X0349212Y0181395D01*
X0349124Y0181528D01*
X0349039Y0181663D01*
X0348957Y0181800D01*
X0348879Y0181939D01*
X0348805Y0182080D01*
X0348734Y0182223D01*
X0348666Y0182368D01*
X0348603Y0182514D01*
X0348542Y0182662D01*
X0348486Y0182811D01*
X0348433Y0182962D01*
X0348384Y0183114D01*
X0348339Y0183267D01*
X0348298Y0183421D01*
X0348260Y0183576D01*
X0348227Y0183732D01*
X0348197Y0183889D01*
X0348171Y0184046D01*
X0348150Y0184204D01*
X0348132Y0184363D01*
X0348118Y0184522D01*
X0348108Y0184681D01*
X0348102Y0184840D01*
X0348100Y0185000D01*
X0258500Y0080000D02*
X0258502Y0080118D01*
X0258508Y0080236D01*
X0258518Y0080354D01*
X0258532Y0080471D01*
X0258550Y0080588D01*
X0258572Y0080705D01*
X0258597Y0080820D01*
X0258627Y0080934D01*
X0258661Y0081048D01*
X0258698Y0081160D01*
X0258739Y0081271D01*
X0258784Y0081380D01*
X0258832Y0081488D01*
X0258884Y0081594D01*
X0258940Y0081699D01*
X0258999Y0081801D01*
X0259061Y0081901D01*
X0259127Y0081999D01*
X0259196Y0082095D01*
X0259269Y0082189D01*
X0259344Y0082280D01*
X0259423Y0082368D01*
X0259504Y0082454D01*
X0259589Y0082537D01*
X0259676Y0082617D01*
X0259765Y0082694D01*
X0259858Y0082768D01*
X0259952Y0082838D01*
X0260049Y0082906D01*
X0260149Y0082970D01*
X0260250Y0083031D01*
X0260353Y0083088D01*
X0260459Y0083142D01*
X0260566Y0083193D01*
X0260674Y0083239D01*
X0260784Y0083282D01*
X0260896Y0083321D01*
X0261009Y0083357D01*
X0261123Y0083388D01*
X0261238Y0083416D01*
X0261353Y0083440D01*
X0261470Y0083460D01*
X0261587Y0083476D01*
X0261705Y0083488D01*
X0261823Y0083496D01*
X0261941Y0083500D01*
X0262059Y0083500D01*
X0262177Y0083496D01*
X0262295Y0083488D01*
X0262413Y0083476D01*
X0262530Y0083460D01*
X0262647Y0083440D01*
X0262762Y0083416D01*
X0262877Y0083388D01*
X0262991Y0083357D01*
X0263104Y0083321D01*
X0263216Y0083282D01*
X0263326Y0083239D01*
X0263434Y0083193D01*
X0263541Y0083142D01*
X0263647Y0083088D01*
X0263750Y0083031D01*
X0263851Y0082970D01*
X0263951Y0082906D01*
X0264048Y0082838D01*
X0264142Y0082768D01*
X0264235Y0082694D01*
X0264324Y0082617D01*
X0264411Y0082537D01*
X0264496Y0082454D01*
X0264577Y0082368D01*
X0264656Y0082280D01*
X0264731Y0082189D01*
X0264804Y0082095D01*
X0264873Y0081999D01*
X0264939Y0081901D01*
X0265001Y0081801D01*
X0265060Y0081699D01*
X0265116Y0081594D01*
X0265168Y0081488D01*
X0265216Y0081380D01*
X0265261Y0081271D01*
X0265302Y0081160D01*
X0265339Y0081048D01*
X0265373Y0080934D01*
X0265403Y0080820D01*
X0265428Y0080705D01*
X0265450Y0080588D01*
X0265468Y0080471D01*
X0265482Y0080354D01*
X0265492Y0080236D01*
X0265498Y0080118D01*
X0265500Y0080000D01*
X0265498Y0079882D01*
X0265492Y0079764D01*
X0265482Y0079646D01*
X0265468Y0079529D01*
X0265450Y0079412D01*
X0265428Y0079295D01*
X0265403Y0079180D01*
X0265373Y0079066D01*
X0265339Y0078952D01*
X0265302Y0078840D01*
X0265261Y0078729D01*
X0265216Y0078620D01*
X0265168Y0078512D01*
X0265116Y0078406D01*
X0265060Y0078301D01*
X0265001Y0078199D01*
X0264939Y0078099D01*
X0264873Y0078001D01*
X0264804Y0077905D01*
X0264731Y0077811D01*
X0264656Y0077720D01*
X0264577Y0077632D01*
X0264496Y0077546D01*
X0264411Y0077463D01*
X0264324Y0077383D01*
X0264235Y0077306D01*
X0264142Y0077232D01*
X0264048Y0077162D01*
X0263951Y0077094D01*
X0263851Y0077030D01*
X0263750Y0076969D01*
X0263647Y0076912D01*
X0263541Y0076858D01*
X0263434Y0076807D01*
X0263326Y0076761D01*
X0263216Y0076718D01*
X0263104Y0076679D01*
X0262991Y0076643D01*
X0262877Y0076612D01*
X0262762Y0076584D01*
X0262647Y0076560D01*
X0262530Y0076540D01*
X0262413Y0076524D01*
X0262295Y0076512D01*
X0262177Y0076504D01*
X0262059Y0076500D01*
X0261941Y0076500D01*
X0261823Y0076504D01*
X0261705Y0076512D01*
X0261587Y0076524D01*
X0261470Y0076540D01*
X0261353Y0076560D01*
X0261238Y0076584D01*
X0261123Y0076612D01*
X0261009Y0076643D01*
X0260896Y0076679D01*
X0260784Y0076718D01*
X0260674Y0076761D01*
X0260566Y0076807D01*
X0260459Y0076858D01*
X0260353Y0076912D01*
X0260250Y0076969D01*
X0260149Y0077030D01*
X0260049Y0077094D01*
X0259952Y0077162D01*
X0259858Y0077232D01*
X0259765Y0077306D01*
X0259676Y0077383D01*
X0259589Y0077463D01*
X0259504Y0077546D01*
X0259423Y0077632D01*
X0259344Y0077720D01*
X0259269Y0077811D01*
X0259196Y0077905D01*
X0259127Y0078001D01*
X0259061Y0078099D01*
X0258999Y0078199D01*
X0258940Y0078301D01*
X0258884Y0078406D01*
X0258832Y0078512D01*
X0258784Y0078620D01*
X0258739Y0078729D01*
X0258698Y0078840D01*
X0258661Y0078952D01*
X0258627Y0079066D01*
X0258597Y0079180D01*
X0258572Y0079295D01*
X0258550Y0079412D01*
X0258532Y0079529D01*
X0258518Y0079646D01*
X0258508Y0079764D01*
X0258502Y0079882D01*
X0258500Y0080000D01*
X0308100Y0035000D02*
X0308102Y0035160D01*
X0308108Y0035319D01*
X0308118Y0035478D01*
X0308132Y0035637D01*
X0308150Y0035796D01*
X0308171Y0035954D01*
X0308197Y0036111D01*
X0308227Y0036268D01*
X0308260Y0036424D01*
X0308298Y0036579D01*
X0308339Y0036733D01*
X0308384Y0036886D01*
X0308433Y0037038D01*
X0308486Y0037189D01*
X0308542Y0037338D01*
X0308603Y0037486D01*
X0308666Y0037632D01*
X0308734Y0037777D01*
X0308805Y0037920D01*
X0308879Y0038061D01*
X0308957Y0038200D01*
X0309039Y0038337D01*
X0309124Y0038472D01*
X0309212Y0038605D01*
X0309304Y0038736D01*
X0309398Y0038864D01*
X0309496Y0038990D01*
X0309597Y0039114D01*
X0309701Y0039235D01*
X0309808Y0039353D01*
X0309918Y0039469D01*
X0310031Y0039582D01*
X0310147Y0039692D01*
X0310265Y0039799D01*
X0310386Y0039903D01*
X0310510Y0040004D01*
X0310636Y0040102D01*
X0310764Y0040196D01*
X0310895Y0040288D01*
X0311028Y0040376D01*
X0311163Y0040461D01*
X0311300Y0040543D01*
X0311439Y0040621D01*
X0311580Y0040695D01*
X0311723Y0040766D01*
X0311868Y0040834D01*
X0312014Y0040897D01*
X0312162Y0040958D01*
X0312311Y0041014D01*
X0312462Y0041067D01*
X0312614Y0041116D01*
X0312767Y0041161D01*
X0312921Y0041202D01*
X0313076Y0041240D01*
X0313232Y0041273D01*
X0313389Y0041303D01*
X0313546Y0041329D01*
X0313704Y0041350D01*
X0313863Y0041368D01*
X0314022Y0041382D01*
X0314181Y0041392D01*
X0314340Y0041398D01*
X0314500Y0041400D01*
X0314660Y0041398D01*
X0314819Y0041392D01*
X0314978Y0041382D01*
X0315137Y0041368D01*
X0315296Y0041350D01*
X0315454Y0041329D01*
X0315611Y0041303D01*
X0315768Y0041273D01*
X0315924Y0041240D01*
X0316079Y0041202D01*
X0316233Y0041161D01*
X0316386Y0041116D01*
X0316538Y0041067D01*
X0316689Y0041014D01*
X0316838Y0040958D01*
X0316986Y0040897D01*
X0317132Y0040834D01*
X0317277Y0040766D01*
X0317420Y0040695D01*
X0317561Y0040621D01*
X0317700Y0040543D01*
X0317837Y0040461D01*
X0317972Y0040376D01*
X0318105Y0040288D01*
X0318236Y0040196D01*
X0318364Y0040102D01*
X0318490Y0040004D01*
X0318614Y0039903D01*
X0318735Y0039799D01*
X0318853Y0039692D01*
X0318969Y0039582D01*
X0319082Y0039469D01*
X0319192Y0039353D01*
X0319299Y0039235D01*
X0319403Y0039114D01*
X0319504Y0038990D01*
X0319602Y0038864D01*
X0319696Y0038736D01*
X0319788Y0038605D01*
X0319876Y0038472D01*
X0319961Y0038337D01*
X0320043Y0038200D01*
X0320121Y0038061D01*
X0320195Y0037920D01*
X0320266Y0037777D01*
X0320334Y0037632D01*
X0320397Y0037486D01*
X0320458Y0037338D01*
X0320514Y0037189D01*
X0320567Y0037038D01*
X0320616Y0036886D01*
X0320661Y0036733D01*
X0320702Y0036579D01*
X0320740Y0036424D01*
X0320773Y0036268D01*
X0320803Y0036111D01*
X0320829Y0035954D01*
X0320850Y0035796D01*
X0320868Y0035637D01*
X0320882Y0035478D01*
X0320892Y0035319D01*
X0320898Y0035160D01*
X0320900Y0035000D01*
X0320898Y0034840D01*
X0320892Y0034681D01*
X0320882Y0034522D01*
X0320868Y0034363D01*
X0320850Y0034204D01*
X0320829Y0034046D01*
X0320803Y0033889D01*
X0320773Y0033732D01*
X0320740Y0033576D01*
X0320702Y0033421D01*
X0320661Y0033267D01*
X0320616Y0033114D01*
X0320567Y0032962D01*
X0320514Y0032811D01*
X0320458Y0032662D01*
X0320397Y0032514D01*
X0320334Y0032368D01*
X0320266Y0032223D01*
X0320195Y0032080D01*
X0320121Y0031939D01*
X0320043Y0031800D01*
X0319961Y0031663D01*
X0319876Y0031528D01*
X0319788Y0031395D01*
X0319696Y0031264D01*
X0319602Y0031136D01*
X0319504Y0031010D01*
X0319403Y0030886D01*
X0319299Y0030765D01*
X0319192Y0030647D01*
X0319082Y0030531D01*
X0318969Y0030418D01*
X0318853Y0030308D01*
X0318735Y0030201D01*
X0318614Y0030097D01*
X0318490Y0029996D01*
X0318364Y0029898D01*
X0318236Y0029804D01*
X0318105Y0029712D01*
X0317972Y0029624D01*
X0317837Y0029539D01*
X0317700Y0029457D01*
X0317561Y0029379D01*
X0317420Y0029305D01*
X0317277Y0029234D01*
X0317132Y0029166D01*
X0316986Y0029103D01*
X0316838Y0029042D01*
X0316689Y0028986D01*
X0316538Y0028933D01*
X0316386Y0028884D01*
X0316233Y0028839D01*
X0316079Y0028798D01*
X0315924Y0028760D01*
X0315768Y0028727D01*
X0315611Y0028697D01*
X0315454Y0028671D01*
X0315296Y0028650D01*
X0315137Y0028632D01*
X0314978Y0028618D01*
X0314819Y0028608D01*
X0314660Y0028602D01*
X0314500Y0028600D01*
X0314340Y0028602D01*
X0314181Y0028608D01*
X0314022Y0028618D01*
X0313863Y0028632D01*
X0313704Y0028650D01*
X0313546Y0028671D01*
X0313389Y0028697D01*
X0313232Y0028727D01*
X0313076Y0028760D01*
X0312921Y0028798D01*
X0312767Y0028839D01*
X0312614Y0028884D01*
X0312462Y0028933D01*
X0312311Y0028986D01*
X0312162Y0029042D01*
X0312014Y0029103D01*
X0311868Y0029166D01*
X0311723Y0029234D01*
X0311580Y0029305D01*
X0311439Y0029379D01*
X0311300Y0029457D01*
X0311163Y0029539D01*
X0311028Y0029624D01*
X0310895Y0029712D01*
X0310764Y0029804D01*
X0310636Y0029898D01*
X0310510Y0029996D01*
X0310386Y0030097D01*
X0310265Y0030201D01*
X0310147Y0030308D01*
X0310031Y0030418D01*
X0309918Y0030531D01*
X0309808Y0030647D01*
X0309701Y0030765D01*
X0309597Y0030886D01*
X0309496Y0031010D01*
X0309398Y0031136D01*
X0309304Y0031264D01*
X0309212Y0031395D01*
X0309124Y0031528D01*
X0309039Y0031663D01*
X0308957Y0031800D01*
X0308879Y0031939D01*
X0308805Y0032080D01*
X0308734Y0032223D01*
X0308666Y0032368D01*
X0308603Y0032514D01*
X0308542Y0032662D01*
X0308486Y0032811D01*
X0308433Y0032962D01*
X0308384Y0033114D01*
X0308339Y0033267D01*
X0308298Y0033421D01*
X0308260Y0033576D01*
X0308227Y0033732D01*
X0308197Y0033889D01*
X0308171Y0034046D01*
X0308150Y0034204D01*
X0308132Y0034363D01*
X0308118Y0034522D01*
X0308108Y0034681D01*
X0308102Y0034840D01*
X0308100Y0035000D01*
X0348100Y0035000D02*
X0348102Y0035160D01*
X0348108Y0035319D01*
X0348118Y0035478D01*
X0348132Y0035637D01*
X0348150Y0035796D01*
X0348171Y0035954D01*
X0348197Y0036111D01*
X0348227Y0036268D01*
X0348260Y0036424D01*
X0348298Y0036579D01*
X0348339Y0036733D01*
X0348384Y0036886D01*
X0348433Y0037038D01*
X0348486Y0037189D01*
X0348542Y0037338D01*
X0348603Y0037486D01*
X0348666Y0037632D01*
X0348734Y0037777D01*
X0348805Y0037920D01*
X0348879Y0038061D01*
X0348957Y0038200D01*
X0349039Y0038337D01*
X0349124Y0038472D01*
X0349212Y0038605D01*
X0349304Y0038736D01*
X0349398Y0038864D01*
X0349496Y0038990D01*
X0349597Y0039114D01*
X0349701Y0039235D01*
X0349808Y0039353D01*
X0349918Y0039469D01*
X0350031Y0039582D01*
X0350147Y0039692D01*
X0350265Y0039799D01*
X0350386Y0039903D01*
X0350510Y0040004D01*
X0350636Y0040102D01*
X0350764Y0040196D01*
X0350895Y0040288D01*
X0351028Y0040376D01*
X0351163Y0040461D01*
X0351300Y0040543D01*
X0351439Y0040621D01*
X0351580Y0040695D01*
X0351723Y0040766D01*
X0351868Y0040834D01*
X0352014Y0040897D01*
X0352162Y0040958D01*
X0352311Y0041014D01*
X0352462Y0041067D01*
X0352614Y0041116D01*
X0352767Y0041161D01*
X0352921Y0041202D01*
X0353076Y0041240D01*
X0353232Y0041273D01*
X0353389Y0041303D01*
X0353546Y0041329D01*
X0353704Y0041350D01*
X0353863Y0041368D01*
X0354022Y0041382D01*
X0354181Y0041392D01*
X0354340Y0041398D01*
X0354500Y0041400D01*
X0354660Y0041398D01*
X0354819Y0041392D01*
X0354978Y0041382D01*
X0355137Y0041368D01*
X0355296Y0041350D01*
X0355454Y0041329D01*
X0355611Y0041303D01*
X0355768Y0041273D01*
X0355924Y0041240D01*
X0356079Y0041202D01*
X0356233Y0041161D01*
X0356386Y0041116D01*
X0356538Y0041067D01*
X0356689Y0041014D01*
X0356838Y0040958D01*
X0356986Y0040897D01*
X0357132Y0040834D01*
X0357277Y0040766D01*
X0357420Y0040695D01*
X0357561Y0040621D01*
X0357700Y0040543D01*
X0357837Y0040461D01*
X0357972Y0040376D01*
X0358105Y0040288D01*
X0358236Y0040196D01*
X0358364Y0040102D01*
X0358490Y0040004D01*
X0358614Y0039903D01*
X0358735Y0039799D01*
X0358853Y0039692D01*
X0358969Y0039582D01*
X0359082Y0039469D01*
X0359192Y0039353D01*
X0359299Y0039235D01*
X0359403Y0039114D01*
X0359504Y0038990D01*
X0359602Y0038864D01*
X0359696Y0038736D01*
X0359788Y0038605D01*
X0359876Y0038472D01*
X0359961Y0038337D01*
X0360043Y0038200D01*
X0360121Y0038061D01*
X0360195Y0037920D01*
X0360266Y0037777D01*
X0360334Y0037632D01*
X0360397Y0037486D01*
X0360458Y0037338D01*
X0360514Y0037189D01*
X0360567Y0037038D01*
X0360616Y0036886D01*
X0360661Y0036733D01*
X0360702Y0036579D01*
X0360740Y0036424D01*
X0360773Y0036268D01*
X0360803Y0036111D01*
X0360829Y0035954D01*
X0360850Y0035796D01*
X0360868Y0035637D01*
X0360882Y0035478D01*
X0360892Y0035319D01*
X0360898Y0035160D01*
X0360900Y0035000D01*
X0360898Y0034840D01*
X0360892Y0034681D01*
X0360882Y0034522D01*
X0360868Y0034363D01*
X0360850Y0034204D01*
X0360829Y0034046D01*
X0360803Y0033889D01*
X0360773Y0033732D01*
X0360740Y0033576D01*
X0360702Y0033421D01*
X0360661Y0033267D01*
X0360616Y0033114D01*
X0360567Y0032962D01*
X0360514Y0032811D01*
X0360458Y0032662D01*
X0360397Y0032514D01*
X0360334Y0032368D01*
X0360266Y0032223D01*
X0360195Y0032080D01*
X0360121Y0031939D01*
X0360043Y0031800D01*
X0359961Y0031663D01*
X0359876Y0031528D01*
X0359788Y0031395D01*
X0359696Y0031264D01*
X0359602Y0031136D01*
X0359504Y0031010D01*
X0359403Y0030886D01*
X0359299Y0030765D01*
X0359192Y0030647D01*
X0359082Y0030531D01*
X0358969Y0030418D01*
X0358853Y0030308D01*
X0358735Y0030201D01*
X0358614Y0030097D01*
X0358490Y0029996D01*
X0358364Y0029898D01*
X0358236Y0029804D01*
X0358105Y0029712D01*
X0357972Y0029624D01*
X0357837Y0029539D01*
X0357700Y0029457D01*
X0357561Y0029379D01*
X0357420Y0029305D01*
X0357277Y0029234D01*
X0357132Y0029166D01*
X0356986Y0029103D01*
X0356838Y0029042D01*
X0356689Y0028986D01*
X0356538Y0028933D01*
X0356386Y0028884D01*
X0356233Y0028839D01*
X0356079Y0028798D01*
X0355924Y0028760D01*
X0355768Y0028727D01*
X0355611Y0028697D01*
X0355454Y0028671D01*
X0355296Y0028650D01*
X0355137Y0028632D01*
X0354978Y0028618D01*
X0354819Y0028608D01*
X0354660Y0028602D01*
X0354500Y0028600D01*
X0354340Y0028602D01*
X0354181Y0028608D01*
X0354022Y0028618D01*
X0353863Y0028632D01*
X0353704Y0028650D01*
X0353546Y0028671D01*
X0353389Y0028697D01*
X0353232Y0028727D01*
X0353076Y0028760D01*
X0352921Y0028798D01*
X0352767Y0028839D01*
X0352614Y0028884D01*
X0352462Y0028933D01*
X0352311Y0028986D01*
X0352162Y0029042D01*
X0352014Y0029103D01*
X0351868Y0029166D01*
X0351723Y0029234D01*
X0351580Y0029305D01*
X0351439Y0029379D01*
X0351300Y0029457D01*
X0351163Y0029539D01*
X0351028Y0029624D01*
X0350895Y0029712D01*
X0350764Y0029804D01*
X0350636Y0029898D01*
X0350510Y0029996D01*
X0350386Y0030097D01*
X0350265Y0030201D01*
X0350147Y0030308D01*
X0350031Y0030418D01*
X0349918Y0030531D01*
X0349808Y0030647D01*
X0349701Y0030765D01*
X0349597Y0030886D01*
X0349496Y0031010D01*
X0349398Y0031136D01*
X0349304Y0031264D01*
X0349212Y0031395D01*
X0349124Y0031528D01*
X0349039Y0031663D01*
X0348957Y0031800D01*
X0348879Y0031939D01*
X0348805Y0032080D01*
X0348734Y0032223D01*
X0348666Y0032368D01*
X0348603Y0032514D01*
X0348542Y0032662D01*
X0348486Y0032811D01*
X0348433Y0032962D01*
X0348384Y0033114D01*
X0348339Y0033267D01*
X0348298Y0033421D01*
X0348260Y0033576D01*
X0348227Y0033732D01*
X0348197Y0033889D01*
X0348171Y0034046D01*
X0348150Y0034204D01*
X0348132Y0034363D01*
X0348118Y0034522D01*
X0348108Y0034681D01*
X0348102Y0034840D01*
X0348100Y0035000D01*
D11*
X0172000Y0095000D03*
X0162000Y0095000D03*
X0152000Y0095000D03*
X0142000Y0095000D03*
X0142000Y0125000D03*
X0152000Y0125000D03*
X0162000Y0125000D03*
X0172000Y0125000D03*
D12*
X0303750Y0206693D02*
X0365250Y0206693D01*
X0365250Y0013307D02*
X0303750Y0013307D01*
D13*
X0327000Y0060000D03*
X0337000Y0060000D03*
X0347000Y0060000D03*
X0342000Y0070000D03*
X0332000Y0070000D03*
X0322000Y0070000D03*
X0327000Y0150000D03*
X0337000Y0150000D03*
X0347000Y0150000D03*
X0342000Y0160000D03*
X0332000Y0160000D03*
X0322000Y0160000D03*
D14*
X0290750Y0115000D03*
X0283250Y0110000D03*
X0290750Y0105000D03*
X0230750Y0095000D03*
X0215750Y0095000D03*
X0200750Y0095000D03*
X0187000Y0095000D03*
X0187000Y0125000D03*
X0200750Y0125000D03*
X0215750Y0125000D03*
X0230750Y0125000D03*
X0132000Y0125000D03*
X0122000Y0125000D03*
X0122000Y0095000D03*
X0132000Y0095000D03*
X0064500Y0105000D03*
X0064500Y0125000D03*
D15*
X0121000Y0205000D03*
X0131000Y0205000D03*
X0141000Y0205000D03*
X0151000Y0205000D03*
X0161000Y0205000D03*
X0171000Y0205000D03*
X0181000Y0205000D03*
X0191000Y0205000D03*
X0207000Y0205000D03*
X0217000Y0205000D03*
X0227000Y0205000D03*
X0237000Y0205000D03*
X0247000Y0205000D03*
X0257000Y0205000D03*
X0267000Y0205000D03*
X0277000Y0205000D03*
X0277000Y0015000D03*
X0267000Y0015000D03*
X0257000Y0015000D03*
X0247000Y0015000D03*
X0237000Y0015000D03*
X0227000Y0015000D03*
X0207000Y0015000D03*
X0197000Y0015000D03*
X0187000Y0015000D03*
X0177000Y0015000D03*
X0167000Y0015000D03*
X0157000Y0015000D03*
D16*
X0084500Y0052500D03*
X0072000Y0052500D03*
X0059500Y0052500D03*
X0047000Y0052500D03*
X0034500Y0052500D03*
X0034500Y0092500D03*
X0047000Y0092500D03*
X0059500Y0092500D03*
X0072000Y0092500D03*
X0084500Y0092500D03*
D17*
X0132000Y0060500D02*
X0132000Y0054500D01*
X0142000Y0054500D02*
X0142000Y0060500D01*
X0152000Y0060500D02*
X0152000Y0054500D01*
X0162000Y0054500D02*
X0162000Y0060500D01*
X0172000Y0060500D02*
X0172000Y0054500D01*
X0182000Y0054500D02*
X0182000Y0060500D01*
X0192000Y0060500D02*
X0192000Y0054500D01*
X0202000Y0054500D02*
X0202000Y0060500D01*
X0212000Y0060500D02*
X0212000Y0054500D01*
X0222000Y0054500D02*
X0222000Y0060500D01*
X0064500Y0134500D02*
X0064500Y0140500D01*
X0054500Y0140500D02*
X0054500Y0134500D01*
X0044500Y0134500D02*
X0044500Y0140500D01*
X0132000Y0159500D02*
X0132000Y0165500D01*
X0142000Y0165500D02*
X0142000Y0159500D01*
X0152000Y0159500D02*
X0152000Y0165500D01*
X0162000Y0165500D02*
X0162000Y0159500D01*
X0172000Y0159500D02*
X0172000Y0165500D01*
X0182000Y0165500D02*
X0182000Y0159500D01*
X0192000Y0159500D02*
X0192000Y0165500D01*
X0202000Y0165500D02*
X0202000Y0159500D01*
X0212000Y0159500D02*
X0212000Y0165500D01*
X0222000Y0165500D02*
X0222000Y0159500D01*
D18*
X0044500Y0105000D03*
D19*
X0044500Y0115000D03*
D20*
X0040975Y0034843D02*
X0048025Y0034843D01*
X0048025Y0015157D02*
X0040975Y0015157D01*
D21*
X0252000Y0140000D03*
D22*
X0242000Y0140000D03*
X0232000Y0140000D03*
X0222000Y0140000D03*
X0212000Y0140000D03*
X0202000Y0140000D03*
X0192000Y0140000D03*
X0182000Y0140000D03*
X0172000Y0140000D03*
X0162000Y0140000D03*
X0152000Y0140000D03*
X0142000Y0140000D03*
X0132000Y0140000D03*
X0122000Y0140000D03*
X0112000Y0140000D03*
X0112000Y0080000D03*
X0122000Y0080000D03*
X0132000Y0080000D03*
X0142000Y0080000D03*
X0152000Y0080000D03*
X0162000Y0080000D03*
X0172000Y0080000D03*
X0182000Y0080000D03*
X0192000Y0080000D03*
X0202000Y0080000D03*
X0212000Y0080000D03*
X0222000Y0080000D03*
X0232000Y0080000D03*
X0242000Y0080000D03*
X0252000Y0080000D03*
D23*
X0243250Y0087500D02*
X0279500Y0125000D01*
X0275750Y0135000D02*
X0297000Y0135000D01*
X0322000Y0160000D01*
X0275750Y0135000D02*
X0252000Y0111250D01*
X0113250Y0111250D01*
X0072000Y0070000D01*
X0072000Y0052500D01*
X0065750Y0060000D02*
X0062000Y0063750D01*
X0048250Y0063750D01*
X0047000Y0062500D01*
X0047000Y0052500D01*
X0065750Y0060000D02*
X0065750Y0043750D01*
X0069500Y0040000D01*
X0084500Y0040000D01*
X0102000Y0057500D01*
X0132000Y0057500D01*
X0098250Y0087500D02*
X0084500Y0073750D01*
X0084500Y0052500D01*
X0098250Y0087500D02*
X0140750Y0087500D01*
X0142000Y0088750D01*
X0142000Y0095000D01*
X0122000Y0125000D02*
X0117000Y0125000D01*
X0084500Y0092500D01*
X0097000Y0130000D02*
X0112000Y0130000D01*
X0097000Y0130000D02*
X0094500Y0132500D01*
X0094500Y0147500D01*
X0141000Y0194000D01*
X0141000Y0205000D01*
X0151000Y0205000D02*
X0151000Y0174000D01*
X0149500Y0172500D01*
X0128250Y0172500D01*
X0112000Y0156250D01*
X0112000Y0140000D01*
X0152000Y0140000D02*
X0152000Y0151250D01*
X0154500Y0153750D01*
X0227000Y0153750D01*
X0230750Y0157500D01*
X0230750Y0170000D01*
X0227000Y0173750D01*
X0193250Y0173750D01*
X0191000Y0176000D01*
X0191000Y0205000D01*
X0207000Y0205000D02*
X0207000Y0181250D01*
X0208250Y0180000D01*
X0230750Y0180000D01*
X0237000Y0173750D01*
X0237000Y0153750D01*
X0230750Y0147500D01*
X0163250Y0147500D01*
X0162000Y0146250D01*
X0162000Y0140000D01*
X0200750Y0128750D02*
X0200750Y0125000D01*
X0200750Y0128750D02*
X0203250Y0131250D01*
X0263250Y0131250D01*
X0268250Y0136250D01*
X0268250Y0146250D01*
X0263250Y0151250D01*
X0245750Y0151250D01*
X0243250Y0087500D02*
X0223250Y0087500D01*
X0222000Y0086250D01*
X0222000Y0080000D01*
X0242000Y0063750D02*
X0242000Y0047500D01*
X0219500Y0025000D01*
X0179500Y0025000D01*
X0177000Y0022500D01*
X0177000Y0015000D01*
D24*
X0219500Y0032500D02*
X0063250Y0032500D01*
X0059500Y0036250D01*
X0059500Y0052500D01*
X0132000Y0095000D02*
X0132000Y0100000D01*
X0133250Y0101250D01*
X0152000Y0101250D01*
X0152000Y0095000D01*
X0152000Y0101250D02*
X0199500Y0101250D01*
X0214500Y0101250D01*
X0215750Y0100000D01*
X0215750Y0095000D01*
X0200750Y0095000D02*
X0200750Y0100000D01*
X0199500Y0101250D01*
X0233250Y0070000D02*
X0230750Y0067500D01*
X0230750Y0043750D01*
X0219500Y0032500D01*
X0233250Y0070000D02*
X0322000Y0070000D01*
X0334500Y0082500D01*
X0343250Y0082500D01*
X0347000Y0086250D01*
X0347000Y0150000D01*
D25*
X0212000Y0080000D02*
X0212000Y0072500D01*
X0217000Y0067500D01*
X0217000Y0047500D01*
X0212000Y0042500D01*
X0177000Y0042500D01*
X0172000Y0047500D01*
X0172000Y0057500D01*
X0182000Y0057500D02*
X0182000Y0050000D01*
X0184500Y0047500D01*
X0204500Y0047500D01*
X0207000Y0050000D01*
X0207000Y0067500D01*
X0202000Y0072500D01*
X0202000Y0080000D01*
X0222000Y0057500D02*
X0222000Y0042500D01*
X0217000Y0037500D01*
X0172000Y0037500D01*
X0167000Y0042500D01*
X0167000Y0067500D01*
X0162000Y0072500D01*
X0162000Y0080000D01*
D26*
X0172000Y0080000D02*
X0172000Y0087500D01*
X0173250Y0088750D01*
X0205750Y0088750D01*
X0207000Y0087500D01*
X0207000Y0072500D01*
X0212000Y0067500D01*
X0212000Y0057500D01*
X0202000Y0057500D02*
X0202000Y0066250D01*
X0197000Y0071250D01*
X0197000Y0083750D01*
X0195750Y0085000D01*
X0183250Y0085000D01*
X0182000Y0083750D01*
X0182000Y0080000D01*
D27*
X0242000Y0063750D03*
X0279500Y0125000D03*
X0245750Y0151250D03*
X0112000Y0130000D03*
D28*
X0116167Y0131632D02*
X0197834Y0131632D01*
X0197274Y0131072D02*
X0196650Y0129566D01*
X0196650Y0127547D01*
X0196050Y0126947D01*
X0196050Y0123053D01*
X0198803Y0120300D01*
X0202697Y0120300D01*
X0205450Y0123053D01*
X0205450Y0126947D01*
X0205247Y0127150D01*
X0211253Y0127150D01*
X0211050Y0126947D01*
X0211050Y0123053D01*
X0213803Y0120300D01*
X0217697Y0120300D01*
X0220450Y0123053D01*
X0220450Y0126947D01*
X0220247Y0127150D01*
X0226253Y0127150D01*
X0226050Y0126947D01*
X0226050Y0123053D01*
X0228803Y0120300D01*
X0232697Y0120300D01*
X0235450Y0123053D01*
X0235450Y0126947D01*
X0235247Y0127150D01*
X0262102Y0127150D01*
X0250302Y0115350D01*
X0113148Y0115350D01*
X0118698Y0120900D01*
X0119453Y0120900D01*
X0120053Y0120300D01*
X0123947Y0120300D01*
X0126700Y0123053D01*
X0126700Y0126947D01*
X0123947Y0129700D01*
X0120053Y0129700D01*
X0119453Y0129100D01*
X0116471Y0129100D01*
X0116475Y0129110D01*
X0116475Y0130890D01*
X0115794Y0132535D01*
X0114535Y0133794D01*
X0113071Y0134400D01*
X0113114Y0134400D01*
X0115172Y0135253D01*
X0116747Y0136828D01*
X0117000Y0137438D01*
X0117253Y0136828D01*
X0118828Y0135253D01*
X0120886Y0134400D01*
X0123114Y0134400D01*
X0125172Y0135253D01*
X0126747Y0136828D01*
X0127000Y0137438D01*
X0127253Y0136828D01*
X0128828Y0135253D01*
X0130886Y0134400D01*
X0133114Y0134400D01*
X0135172Y0135253D01*
X0136747Y0136828D01*
X0137000Y0137438D01*
X0137253Y0136828D01*
X0138828Y0135253D01*
X0140886Y0134400D01*
X0143114Y0134400D01*
X0145172Y0135253D01*
X0146747Y0136828D01*
X0147000Y0137438D01*
X0147253Y0136828D01*
X0148828Y0135253D01*
X0150886Y0134400D01*
X0153114Y0134400D01*
X0155172Y0135253D01*
X0156747Y0136828D01*
X0157000Y0137438D01*
X0157253Y0136828D01*
X0158828Y0135253D01*
X0160886Y0134400D01*
X0163114Y0134400D01*
X0165172Y0135253D01*
X0166747Y0136828D01*
X0167000Y0137438D01*
X0167253Y0136828D01*
X0168828Y0135253D01*
X0170886Y0134400D01*
X0173114Y0134400D01*
X0175172Y0135253D01*
X0176747Y0136828D01*
X0177000Y0137438D01*
X0177253Y0136828D01*
X0178828Y0135253D01*
X0180886Y0134400D01*
X0183114Y0134400D01*
X0185172Y0135253D01*
X0186747Y0136828D01*
X0187000Y0137438D01*
X0187253Y0136828D01*
X0188828Y0135253D01*
X0190886Y0134400D01*
X0193114Y0134400D01*
X0195172Y0135253D01*
X0196747Y0136828D01*
X0197000Y0137438D01*
X0197253Y0136828D01*
X0198828Y0135253D01*
X0200685Y0134483D01*
X0199774Y0133572D01*
X0197274Y0131072D01*
X0197092Y0130634D02*
X0116475Y0130634D01*
X0116475Y0129635D02*
X0119988Y0129635D01*
X0124012Y0129635D02*
X0129988Y0129635D01*
X0130053Y0129700D02*
X0127300Y0126947D01*
X0127300Y0123053D01*
X0130053Y0120300D01*
X0133947Y0120300D01*
X0136700Y0123053D01*
X0136700Y0126947D01*
X0133947Y0129700D01*
X0130053Y0129700D01*
X0128990Y0128637D02*
X0125010Y0128637D01*
X0126009Y0127638D02*
X0127991Y0127638D01*
X0127300Y0126640D02*
X0126700Y0126640D01*
X0126700Y0125641D02*
X0127300Y0125641D01*
X0127300Y0124643D02*
X0126700Y0124643D01*
X0126700Y0123644D02*
X0127300Y0123644D01*
X0127708Y0122646D02*
X0126292Y0122646D01*
X0125294Y0121647D02*
X0128706Y0121647D01*
X0129705Y0120649D02*
X0124295Y0120649D01*
X0119705Y0120649D02*
X0118447Y0120649D01*
X0117448Y0119650D02*
X0254602Y0119650D01*
X0253603Y0118652D02*
X0116450Y0118652D01*
X0115451Y0117653D02*
X0252605Y0117653D01*
X0251606Y0116655D02*
X0114453Y0116655D01*
X0113454Y0115656D02*
X0250608Y0115656D01*
X0255600Y0120649D02*
X0233045Y0120649D01*
X0234044Y0121647D02*
X0256599Y0121647D01*
X0257597Y0122646D02*
X0235042Y0122646D01*
X0235450Y0123644D02*
X0258596Y0123644D01*
X0259594Y0124643D02*
X0235450Y0124643D01*
X0235450Y0125641D02*
X0260593Y0125641D01*
X0261591Y0126640D02*
X0235450Y0126640D01*
X0227456Y0121647D02*
X0219044Y0121647D01*
X0218045Y0120649D02*
X0228455Y0120649D01*
X0226458Y0122646D02*
X0220042Y0122646D01*
X0220450Y0123644D02*
X0226050Y0123644D01*
X0226050Y0124643D02*
X0220450Y0124643D01*
X0220450Y0125641D02*
X0226050Y0125641D01*
X0226050Y0126640D02*
X0220450Y0126640D01*
X0213455Y0120649D02*
X0203045Y0120649D01*
X0204044Y0121647D02*
X0212456Y0121647D01*
X0211458Y0122646D02*
X0205042Y0122646D01*
X0205450Y0123644D02*
X0211050Y0123644D01*
X0211050Y0124643D02*
X0205450Y0124643D01*
X0205450Y0125641D02*
X0211050Y0125641D01*
X0211050Y0126640D02*
X0205450Y0126640D01*
X0196650Y0127638D02*
X0191009Y0127638D01*
X0191700Y0126947D02*
X0188947Y0129700D01*
X0185053Y0129700D01*
X0182300Y0126947D01*
X0182300Y0123053D01*
X0185053Y0120300D01*
X0188947Y0120300D01*
X0191700Y0123053D01*
X0191700Y0126947D01*
X0191700Y0126640D02*
X0196050Y0126640D01*
X0196050Y0125641D02*
X0191700Y0125641D01*
X0191700Y0124643D02*
X0196050Y0124643D01*
X0196050Y0123644D02*
X0191700Y0123644D01*
X0191292Y0122646D02*
X0196458Y0122646D01*
X0197456Y0121647D02*
X0190294Y0121647D01*
X0189295Y0120649D02*
X0198455Y0120649D01*
X0196650Y0128637D02*
X0190010Y0128637D01*
X0189012Y0129635D02*
X0196679Y0129635D01*
X0198833Y0132631D02*
X0115698Y0132631D01*
X0114699Y0133629D02*
X0199831Y0133629D01*
X0200336Y0134628D02*
X0193664Y0134628D01*
X0195546Y0135626D02*
X0198454Y0135626D01*
X0197456Y0136625D02*
X0196544Y0136625D01*
X0190336Y0134628D02*
X0183664Y0134628D01*
X0185546Y0135626D02*
X0188454Y0135626D01*
X0187456Y0136625D02*
X0186544Y0136625D01*
X0180336Y0134628D02*
X0173664Y0134628D01*
X0175546Y0135626D02*
X0178454Y0135626D01*
X0177456Y0136625D02*
X0176544Y0136625D01*
X0170336Y0134628D02*
X0163664Y0134628D01*
X0165546Y0135626D02*
X0168454Y0135626D01*
X0167456Y0136625D02*
X0166544Y0136625D01*
X0160336Y0134628D02*
X0153664Y0134628D01*
X0155546Y0135626D02*
X0158454Y0135626D01*
X0157456Y0136625D02*
X0156544Y0136625D01*
X0150336Y0134628D02*
X0143664Y0134628D01*
X0145546Y0135626D02*
X0148454Y0135626D01*
X0147456Y0136625D02*
X0146544Y0136625D01*
X0140336Y0134628D02*
X0133664Y0134628D01*
X0135546Y0135626D02*
X0138454Y0135626D01*
X0137456Y0136625D02*
X0136544Y0136625D01*
X0130336Y0134628D02*
X0123664Y0134628D01*
X0125546Y0135626D02*
X0128454Y0135626D01*
X0127456Y0136625D02*
X0126544Y0136625D01*
X0120336Y0134628D02*
X0113664Y0134628D01*
X0115546Y0135626D02*
X0118454Y0135626D01*
X0117456Y0136625D02*
X0116544Y0136625D01*
X0110929Y0134400D02*
X0110205Y0134100D01*
X0107414Y0134100D01*
X0108697Y0135383D01*
X0108828Y0135253D01*
X0110886Y0134400D01*
X0110929Y0134400D01*
X0110336Y0134628D02*
X0107942Y0134628D01*
X0117000Y0142562D02*
X0116747Y0143172D01*
X0116100Y0143820D01*
X0116100Y0154552D01*
X0126900Y0165352D01*
X0126900Y0158486D01*
X0127676Y0156611D01*
X0129111Y0155176D01*
X0130986Y0154400D01*
X0133014Y0154400D01*
X0134889Y0155176D01*
X0136324Y0156611D01*
X0137000Y0158244D01*
X0137676Y0156611D01*
X0139111Y0155176D01*
X0140986Y0154400D01*
X0143014Y0154400D01*
X0144889Y0155176D01*
X0146324Y0156611D01*
X0147000Y0158244D01*
X0147676Y0156611D01*
X0149111Y0155176D01*
X0149830Y0154879D01*
X0149678Y0154726D01*
X0148524Y0153572D01*
X0147900Y0152066D01*
X0147900Y0143820D01*
X0147253Y0143172D01*
X0147000Y0142562D01*
X0146747Y0143172D01*
X0145172Y0144747D01*
X0143114Y0145600D01*
X0140886Y0145600D01*
X0138828Y0144747D01*
X0137253Y0143172D01*
X0137000Y0142562D01*
X0136747Y0143172D01*
X0135172Y0144747D01*
X0133114Y0145600D01*
X0130886Y0145600D01*
X0128828Y0144747D01*
X0127253Y0143172D01*
X0127000Y0142562D01*
X0126747Y0143172D01*
X0125172Y0144747D01*
X0123114Y0145600D01*
X0120886Y0145600D01*
X0118828Y0144747D01*
X0117253Y0143172D01*
X0117000Y0142562D01*
X0116978Y0142616D02*
X0117022Y0142616D01*
X0117695Y0143614D02*
X0116305Y0143614D01*
X0116100Y0144613D02*
X0118693Y0144613D01*
X0116100Y0145611D02*
X0147900Y0145611D01*
X0147900Y0144613D02*
X0145307Y0144613D01*
X0146305Y0143614D02*
X0147695Y0143614D01*
X0147022Y0142616D02*
X0146978Y0142616D01*
X0147900Y0146610D02*
X0116100Y0146610D01*
X0116100Y0147608D02*
X0147900Y0147608D01*
X0147900Y0148607D02*
X0116100Y0148607D01*
X0116100Y0149605D02*
X0147900Y0149605D01*
X0147900Y0150604D02*
X0116100Y0150604D01*
X0116100Y0151603D02*
X0147900Y0151603D01*
X0148122Y0152601D02*
X0116100Y0152601D01*
X0116100Y0153600D02*
X0148551Y0153600D01*
X0149550Y0154598D02*
X0143493Y0154598D01*
X0145309Y0155597D02*
X0148691Y0155597D01*
X0147692Y0156595D02*
X0146308Y0156595D01*
X0146731Y0157594D02*
X0147269Y0157594D01*
X0140507Y0154598D02*
X0133493Y0154598D01*
X0135309Y0155597D02*
X0138691Y0155597D01*
X0137692Y0156595D02*
X0136308Y0156595D01*
X0136731Y0157594D02*
X0137269Y0157594D01*
X0130507Y0154598D02*
X0116146Y0154598D01*
X0117145Y0155597D02*
X0128691Y0155597D01*
X0127692Y0156595D02*
X0118143Y0156595D01*
X0119142Y0157594D02*
X0127269Y0157594D01*
X0126900Y0158592D02*
X0120140Y0158592D01*
X0121139Y0159591D02*
X0126900Y0159591D01*
X0126900Y0160589D02*
X0122137Y0160589D01*
X0123136Y0161588D02*
X0126900Y0161588D01*
X0126900Y0162586D02*
X0124134Y0162586D01*
X0125133Y0163585D02*
X0126900Y0163585D01*
X0126900Y0164583D02*
X0126131Y0164583D01*
X0136312Y0168400D02*
X0137688Y0168400D01*
X0137676Y0168389D01*
X0137000Y0166756D01*
X0136324Y0168389D01*
X0136312Y0168400D01*
X0136659Y0167579D02*
X0137341Y0167579D01*
X0146312Y0168400D02*
X0147688Y0168400D01*
X0147676Y0168389D01*
X0147000Y0166756D01*
X0146324Y0168389D01*
X0146312Y0168400D01*
X0146659Y0167579D02*
X0147341Y0167579D01*
X0153286Y0170488D02*
X0154476Y0171678D01*
X0155100Y0173184D01*
X0155100Y0201463D01*
X0156000Y0202363D01*
X0158763Y0199600D01*
X0163237Y0199600D01*
X0166000Y0202363D01*
X0168763Y0199600D01*
X0173237Y0199600D01*
X0176000Y0202363D01*
X0178763Y0199600D01*
X0183237Y0199600D01*
X0186000Y0202363D01*
X0186900Y0201463D01*
X0186900Y0175184D01*
X0187524Y0173678D01*
X0189774Y0171428D01*
X0189774Y0171428D01*
X0190714Y0170488D01*
X0189111Y0169824D01*
X0187676Y0168389D01*
X0187000Y0166756D01*
X0186324Y0168389D01*
X0184889Y0169824D01*
X0183014Y0170600D01*
X0180986Y0170600D01*
X0179111Y0169824D01*
X0177676Y0168389D01*
X0177000Y0166756D01*
X0176324Y0168389D01*
X0174889Y0169824D01*
X0173014Y0170600D01*
X0170986Y0170600D01*
X0169111Y0169824D01*
X0167676Y0168389D01*
X0167000Y0166756D01*
X0166324Y0168389D01*
X0164889Y0169824D01*
X0163014Y0170600D01*
X0160986Y0170600D01*
X0159111Y0169824D01*
X0157676Y0168389D01*
X0157000Y0166756D01*
X0156324Y0168389D01*
X0154889Y0169824D01*
X0153286Y0170488D01*
X0153372Y0170574D02*
X0160923Y0170574D01*
X0163077Y0170574D02*
X0170923Y0170574D01*
X0173077Y0170574D02*
X0180923Y0170574D01*
X0183077Y0170574D02*
X0190627Y0170574D01*
X0189629Y0171573D02*
X0154371Y0171573D01*
X0154846Y0172571D02*
X0188630Y0172571D01*
X0187632Y0173570D02*
X0155100Y0173570D01*
X0155100Y0174568D02*
X0187155Y0174568D01*
X0186900Y0175567D02*
X0155100Y0175567D01*
X0155100Y0176565D02*
X0186900Y0176565D01*
X0186900Y0177564D02*
X0155100Y0177564D01*
X0155100Y0178562D02*
X0186900Y0178562D01*
X0186900Y0179561D02*
X0155100Y0179561D01*
X0155100Y0180559D02*
X0186900Y0180559D01*
X0186900Y0181558D02*
X0155100Y0181558D01*
X0155100Y0182556D02*
X0186900Y0182556D01*
X0186900Y0183555D02*
X0155100Y0183555D01*
X0155100Y0184553D02*
X0186900Y0184553D01*
X0186900Y0185552D02*
X0155100Y0185552D01*
X0155100Y0186550D02*
X0186900Y0186550D01*
X0186900Y0187549D02*
X0155100Y0187549D01*
X0155100Y0188547D02*
X0186900Y0188547D01*
X0186900Y0189546D02*
X0155100Y0189546D01*
X0155100Y0190544D02*
X0186900Y0190544D01*
X0186900Y0191543D02*
X0155100Y0191543D01*
X0155100Y0192541D02*
X0186900Y0192541D01*
X0186900Y0193540D02*
X0155100Y0193540D01*
X0155100Y0194539D02*
X0186900Y0194539D01*
X0186900Y0195537D02*
X0155100Y0195537D01*
X0155100Y0196536D02*
X0186900Y0196536D01*
X0186900Y0197534D02*
X0155100Y0197534D01*
X0155100Y0198533D02*
X0186900Y0198533D01*
X0186900Y0199531D02*
X0155100Y0199531D01*
X0155100Y0200530D02*
X0157834Y0200530D01*
X0156835Y0201528D02*
X0155165Y0201528D01*
X0146900Y0201463D02*
X0146900Y0176600D01*
X0129398Y0176600D01*
X0144476Y0191678D01*
X0145100Y0193184D01*
X0145100Y0194816D01*
X0145100Y0201463D01*
X0146000Y0202363D01*
X0146900Y0201463D01*
X0146835Y0201528D02*
X0145165Y0201528D01*
X0145100Y0200530D02*
X0146900Y0200530D01*
X0146900Y0199531D02*
X0145100Y0199531D01*
X0145100Y0198533D02*
X0146900Y0198533D01*
X0146900Y0197534D02*
X0145100Y0197534D01*
X0145100Y0196536D02*
X0146900Y0196536D01*
X0146900Y0195537D02*
X0145100Y0195537D01*
X0145100Y0194539D02*
X0146900Y0194539D01*
X0146900Y0193540D02*
X0145100Y0193540D01*
X0144834Y0192541D02*
X0146900Y0192541D01*
X0146900Y0191543D02*
X0144341Y0191543D01*
X0143343Y0190544D02*
X0146900Y0190544D01*
X0146900Y0189546D02*
X0142344Y0189546D01*
X0141346Y0188547D02*
X0146900Y0188547D01*
X0146900Y0187549D02*
X0140347Y0187549D01*
X0139349Y0186550D02*
X0146900Y0186550D01*
X0146900Y0185552D02*
X0138350Y0185552D01*
X0137352Y0184553D02*
X0146900Y0184553D01*
X0146900Y0183555D02*
X0136353Y0183555D01*
X0135355Y0182556D02*
X0146900Y0182556D01*
X0146900Y0181558D02*
X0134356Y0181558D01*
X0133358Y0180559D02*
X0146900Y0180559D01*
X0146900Y0179561D02*
X0132359Y0179561D01*
X0131361Y0178562D02*
X0146900Y0178562D01*
X0146900Y0177564D02*
X0130362Y0177564D01*
X0122760Y0181558D02*
X0031500Y0181558D01*
X0031500Y0182556D02*
X0123758Y0182556D01*
X0124757Y0183555D02*
X0031500Y0183555D01*
X0031500Y0184553D02*
X0125755Y0184553D01*
X0126754Y0185552D02*
X0056142Y0185552D01*
X0055948Y0185500D02*
X0058746Y0186250D01*
X0061254Y0187698D01*
X0063302Y0189746D01*
X0064750Y0192254D01*
X0065500Y0195052D01*
X0065500Y0197948D01*
X0064750Y0200746D01*
X0063302Y0203254D01*
X0061254Y0205302D01*
X0058746Y0206750D01*
X0055948Y0207500D01*
X0053052Y0207500D01*
X0050254Y0206750D01*
X0047746Y0205302D01*
X0045698Y0203254D01*
X0044250Y0200746D01*
X0043500Y0197948D01*
X0043500Y0195052D01*
X0044250Y0192254D01*
X0045698Y0189746D01*
X0047746Y0187698D01*
X0050254Y0186250D01*
X0053052Y0185500D01*
X0055948Y0185500D01*
X0052858Y0185552D02*
X0031500Y0185552D01*
X0031500Y0186550D02*
X0049733Y0186550D01*
X0048004Y0187549D02*
X0031500Y0187549D01*
X0031500Y0188547D02*
X0046896Y0188547D01*
X0045898Y0189546D02*
X0031500Y0189546D01*
X0031500Y0190544D02*
X0045237Y0190544D01*
X0044660Y0191543D02*
X0031500Y0191543D01*
X0031500Y0192541D02*
X0044173Y0192541D01*
X0043905Y0193540D02*
X0031500Y0193540D01*
X0031500Y0194539D02*
X0043638Y0194539D01*
X0043500Y0195537D02*
X0031500Y0195537D01*
X0031500Y0196536D02*
X0043500Y0196536D01*
X0043500Y0197534D02*
X0031500Y0197534D01*
X0031500Y0198533D02*
X0043657Y0198533D01*
X0043924Y0199531D02*
X0031500Y0199531D01*
X0031500Y0200530D02*
X0044192Y0200530D01*
X0044701Y0201528D02*
X0031500Y0201528D01*
X0031500Y0202527D02*
X0045278Y0202527D01*
X0045969Y0203525D02*
X0031500Y0203525D01*
X0031500Y0204524D02*
X0046967Y0204524D01*
X0048127Y0205522D02*
X0031500Y0205522D01*
X0031500Y0206521D02*
X0049856Y0206521D01*
X0059144Y0206521D02*
X0076227Y0206521D01*
X0076201Y0206422D02*
X0076201Y0203578D01*
X0076937Y0200832D01*
X0078358Y0198369D01*
X0080369Y0196358D01*
X0082832Y0194937D01*
X0085578Y0194201D01*
X0088422Y0194201D01*
X0091168Y0194937D01*
X0093631Y0196358D01*
X0095642Y0198369D01*
X0097063Y0200832D01*
X0097799Y0203578D01*
X0097799Y0206422D01*
X0097063Y0209168D01*
X0096323Y0210451D01*
X0279185Y0210451D01*
X0279236Y0210400D01*
X0274763Y0210400D01*
X0272000Y0207637D01*
X0269237Y0210400D01*
X0264763Y0210400D01*
X0262000Y0207637D01*
X0259237Y0210400D01*
X0254763Y0210400D01*
X0252000Y0207637D01*
X0249237Y0210400D01*
X0244763Y0210400D01*
X0242000Y0207637D01*
X0239237Y0210400D01*
X0234763Y0210400D01*
X0232000Y0207637D01*
X0229237Y0210400D01*
X0224763Y0210400D01*
X0222000Y0207637D01*
X0219237Y0210400D01*
X0214763Y0210400D01*
X0212000Y0207637D01*
X0209237Y0210400D01*
X0204763Y0210400D01*
X0201600Y0207237D01*
X0201600Y0202763D01*
X0202900Y0201463D01*
X0202900Y0180434D01*
X0203524Y0178928D01*
X0204602Y0177850D01*
X0195100Y0177850D01*
X0195100Y0201463D01*
X0196400Y0202763D01*
X0196400Y0207237D01*
X0193237Y0210400D01*
X0188763Y0210400D01*
X0186000Y0207637D01*
X0183237Y0210400D01*
X0178763Y0210400D01*
X0176000Y0207637D01*
X0173237Y0210400D01*
X0168763Y0210400D01*
X0166000Y0207637D01*
X0163237Y0210400D01*
X0158763Y0210400D01*
X0156000Y0207637D01*
X0153237Y0210400D01*
X0148763Y0210400D01*
X0146000Y0207637D01*
X0143237Y0210400D01*
X0138763Y0210400D01*
X0136000Y0207637D01*
X0133237Y0210400D01*
X0128763Y0210400D01*
X0126000Y0207637D01*
X0123237Y0210400D01*
X0118763Y0210400D01*
X0115600Y0207237D01*
X0115600Y0202763D01*
X0118763Y0199600D01*
X0123237Y0199600D01*
X0126000Y0202363D01*
X0128763Y0199600D01*
X0133237Y0199600D01*
X0136000Y0202363D01*
X0136900Y0201463D01*
X0136900Y0195698D01*
X0092178Y0150976D01*
X0091024Y0149822D01*
X0090400Y0148316D01*
X0090400Y0131684D01*
X0091024Y0130178D01*
X0093524Y0127678D01*
X0094678Y0126524D01*
X0096184Y0125900D01*
X0110205Y0125900D01*
X0111110Y0125525D01*
X0111727Y0125525D01*
X0084102Y0097900D01*
X0083426Y0097900D01*
X0081441Y0097078D01*
X0079922Y0095559D01*
X0079100Y0093574D01*
X0079100Y0091426D01*
X0079922Y0089441D01*
X0081441Y0087922D01*
X0083338Y0087136D01*
X0068524Y0072322D01*
X0067900Y0070816D01*
X0067900Y0063648D01*
X0065476Y0066072D01*
X0064322Y0067226D01*
X0062816Y0067850D01*
X0047434Y0067850D01*
X0045928Y0067226D01*
X0044678Y0065976D01*
X0043524Y0064822D01*
X0042900Y0063316D01*
X0042900Y0056037D01*
X0042422Y0055559D01*
X0041600Y0053574D01*
X0041600Y0051426D01*
X0042422Y0049441D01*
X0043941Y0047922D01*
X0045926Y0047100D01*
X0048074Y0047100D01*
X0050059Y0047922D01*
X0051578Y0049441D01*
X0052400Y0051426D01*
X0052400Y0053574D01*
X0051578Y0055559D01*
X0051100Y0056037D01*
X0051100Y0059650D01*
X0060302Y0059650D01*
X0061650Y0058302D01*
X0061650Y0057454D01*
X0060574Y0057900D01*
X0058426Y0057900D01*
X0056441Y0057078D01*
X0054922Y0055559D01*
X0054100Y0053574D01*
X0054100Y0051426D01*
X0054922Y0049441D01*
X0055800Y0048563D01*
X0055800Y0035514D01*
X0056363Y0034154D01*
X0057404Y0033113D01*
X0061154Y0029363D01*
X0062514Y0028800D01*
X0177960Y0028800D01*
X0177178Y0028476D01*
X0176024Y0027322D01*
X0173524Y0024822D01*
X0172900Y0023316D01*
X0172900Y0018537D01*
X0172000Y0017637D01*
X0169237Y0020400D01*
X0164763Y0020400D01*
X0162000Y0017637D01*
X0159237Y0020400D01*
X0154763Y0020400D01*
X0151600Y0017237D01*
X0151600Y0012763D01*
X0154763Y0009600D01*
X0159237Y0009600D01*
X0162000Y0012363D01*
X0164763Y0009600D01*
X0169237Y0009600D01*
X0172000Y0012363D01*
X0174763Y0009600D01*
X0179237Y0009600D01*
X0182000Y0012363D01*
X0184763Y0009600D01*
X0189237Y0009600D01*
X0192000Y0012363D01*
X0194763Y0009600D01*
X0199237Y0009600D01*
X0202000Y0012363D01*
X0204763Y0009600D01*
X0209237Y0009600D01*
X0212400Y0012763D01*
X0212400Y0017237D01*
X0209237Y0020400D01*
X0204763Y0020400D01*
X0202000Y0017637D01*
X0199237Y0020400D01*
X0194763Y0020400D01*
X0192000Y0017637D01*
X0189237Y0020400D01*
X0184763Y0020400D01*
X0182000Y0017637D01*
X0181100Y0018537D01*
X0181100Y0020802D01*
X0181198Y0020900D01*
X0220316Y0020900D01*
X0221822Y0021524D01*
X0244322Y0044024D01*
X0245476Y0045178D01*
X0246100Y0046684D01*
X0246100Y0061955D01*
X0246475Y0062860D01*
X0246475Y0064640D01*
X0245794Y0066285D01*
X0245778Y0066300D01*
X0292500Y0066300D01*
X0292500Y0026864D01*
X0283185Y0017549D01*
X0282500Y0015895D01*
X0282500Y0009500D01*
X0091294Y0009500D01*
X0092063Y0010832D01*
X0092799Y0013578D01*
X0092799Y0016422D01*
X0092063Y0019168D01*
X0090642Y0021631D01*
X0088631Y0023642D01*
X0086168Y0025063D01*
X0083422Y0025799D01*
X0080578Y0025799D01*
X0077832Y0025063D01*
X0075369Y0023642D01*
X0073358Y0021631D01*
X0071937Y0019168D01*
X0071201Y0016422D01*
X0071201Y0013578D01*
X0071937Y0010832D01*
X0072706Y0009500D01*
X0031500Y0009500D01*
X0031500Y0047898D01*
X0033426Y0047100D01*
X0035574Y0047100D01*
X0037559Y0047922D01*
X0039078Y0049441D01*
X0039900Y0051426D01*
X0039900Y0053574D01*
X0039078Y0055559D01*
X0037559Y0057078D01*
X0035574Y0057900D01*
X0033426Y0057900D01*
X0031500Y0057102D01*
X0031500Y0087898D01*
X0033426Y0087100D01*
X0035574Y0087100D01*
X0037559Y0087922D01*
X0039078Y0089441D01*
X0039900Y0091426D01*
X0039900Y0093574D01*
X0039078Y0095559D01*
X0037559Y0097078D01*
X0035574Y0097900D01*
X0033426Y0097900D01*
X0031500Y0097102D01*
X0031500Y0210451D01*
X0077677Y0210451D01*
X0076937Y0209168D01*
X0076201Y0206422D01*
X0076201Y0205522D02*
X0060873Y0205522D01*
X0062033Y0204524D02*
X0076201Y0204524D01*
X0076215Y0203525D02*
X0063031Y0203525D01*
X0063722Y0202527D02*
X0076483Y0202527D01*
X0076750Y0201528D02*
X0064299Y0201528D01*
X0064808Y0200530D02*
X0077111Y0200530D01*
X0077688Y0199531D02*
X0065076Y0199531D01*
X0065343Y0198533D02*
X0078264Y0198533D01*
X0079194Y0197534D02*
X0065500Y0197534D01*
X0065500Y0196536D02*
X0080192Y0196536D01*
X0081792Y0195537D02*
X0065500Y0195537D01*
X0065362Y0194539D02*
X0084318Y0194539D01*
X0089682Y0194539D02*
X0135740Y0194539D01*
X0136739Y0195537D02*
X0092208Y0195537D01*
X0093808Y0196536D02*
X0136900Y0196536D01*
X0136900Y0197534D02*
X0094806Y0197534D01*
X0095736Y0198533D02*
X0136900Y0198533D01*
X0136900Y0199531D02*
X0096312Y0199531D01*
X0096889Y0200530D02*
X0117834Y0200530D01*
X0116835Y0201528D02*
X0097250Y0201528D01*
X0097517Y0202527D02*
X0115837Y0202527D01*
X0115600Y0203525D02*
X0097785Y0203525D01*
X0097799Y0204524D02*
X0115600Y0204524D01*
X0115600Y0205522D02*
X0097799Y0205522D01*
X0097773Y0206521D02*
X0115600Y0206521D01*
X0115882Y0207519D02*
X0097505Y0207519D01*
X0097238Y0208518D02*
X0116881Y0208518D01*
X0117879Y0209516D02*
X0096862Y0209516D01*
X0077138Y0209516D02*
X0031500Y0209516D01*
X0031500Y0208518D02*
X0076762Y0208518D01*
X0076495Y0207519D02*
X0031500Y0207519D01*
X0060996Y0187549D02*
X0128751Y0187549D01*
X0129749Y0188547D02*
X0062104Y0188547D01*
X0063102Y0189546D02*
X0130748Y0189546D01*
X0131746Y0190544D02*
X0063763Y0190544D01*
X0064340Y0191543D02*
X0132745Y0191543D01*
X0133743Y0192541D02*
X0064827Y0192541D01*
X0065095Y0193540D02*
X0134742Y0193540D01*
X0134166Y0200530D02*
X0136900Y0200530D01*
X0136835Y0201528D02*
X0135165Y0201528D01*
X0127834Y0200530D02*
X0124166Y0200530D01*
X0125165Y0201528D02*
X0126835Y0201528D01*
X0126881Y0208518D02*
X0125119Y0208518D01*
X0124121Y0209516D02*
X0127879Y0209516D01*
X0134121Y0209516D02*
X0137879Y0209516D01*
X0136881Y0208518D02*
X0135119Y0208518D01*
X0144121Y0209516D02*
X0147879Y0209516D01*
X0146881Y0208518D02*
X0145119Y0208518D01*
X0154121Y0209516D02*
X0157879Y0209516D01*
X0156881Y0208518D02*
X0155119Y0208518D01*
X0164121Y0209516D02*
X0167879Y0209516D01*
X0166881Y0208518D02*
X0165119Y0208518D01*
X0174121Y0209516D02*
X0177879Y0209516D01*
X0176881Y0208518D02*
X0175119Y0208518D01*
X0184121Y0209516D02*
X0187879Y0209516D01*
X0186881Y0208518D02*
X0185119Y0208518D01*
X0194121Y0209516D02*
X0203879Y0209516D01*
X0202881Y0208518D02*
X0195119Y0208518D01*
X0196118Y0207519D02*
X0201882Y0207519D01*
X0201600Y0206521D02*
X0196400Y0206521D01*
X0196400Y0205522D02*
X0201600Y0205522D01*
X0201600Y0204524D02*
X0196400Y0204524D01*
X0196400Y0203525D02*
X0201600Y0203525D01*
X0201837Y0202527D02*
X0196163Y0202527D01*
X0195165Y0201528D02*
X0202835Y0201528D01*
X0202900Y0200530D02*
X0195100Y0200530D01*
X0195100Y0199531D02*
X0202900Y0199531D01*
X0202900Y0198533D02*
X0195100Y0198533D01*
X0195100Y0197534D02*
X0202900Y0197534D01*
X0202900Y0196536D02*
X0195100Y0196536D01*
X0195100Y0195537D02*
X0202900Y0195537D01*
X0202900Y0194539D02*
X0195100Y0194539D01*
X0195100Y0193540D02*
X0202900Y0193540D01*
X0202900Y0192541D02*
X0195100Y0192541D01*
X0195100Y0191543D02*
X0202900Y0191543D01*
X0202900Y0190544D02*
X0195100Y0190544D01*
X0195100Y0189546D02*
X0202900Y0189546D01*
X0202900Y0188547D02*
X0195100Y0188547D01*
X0195100Y0187549D02*
X0202900Y0187549D01*
X0202900Y0186550D02*
X0195100Y0186550D01*
X0195100Y0185552D02*
X0202900Y0185552D01*
X0202900Y0184553D02*
X0195100Y0184553D01*
X0195100Y0183555D02*
X0202900Y0183555D01*
X0202900Y0182556D02*
X0195100Y0182556D01*
X0195100Y0181558D02*
X0202900Y0181558D01*
X0202900Y0180559D02*
X0195100Y0180559D01*
X0195100Y0179561D02*
X0203262Y0179561D01*
X0203889Y0178562D02*
X0195100Y0178562D01*
X0195062Y0169650D02*
X0198938Y0169650D01*
X0197676Y0168389D01*
X0197000Y0166756D01*
X0196324Y0168389D01*
X0195062Y0169650D01*
X0195137Y0169576D02*
X0198863Y0169576D01*
X0197865Y0168577D02*
X0196135Y0168577D01*
X0196659Y0167579D02*
X0197341Y0167579D01*
X0205062Y0169650D02*
X0208938Y0169650D01*
X0207676Y0168389D01*
X0207000Y0166756D01*
X0206324Y0168389D01*
X0205062Y0169650D01*
X0205137Y0169576D02*
X0208863Y0169576D01*
X0207865Y0168577D02*
X0206135Y0168577D01*
X0206659Y0167579D02*
X0207341Y0167579D01*
X0215062Y0169650D02*
X0218938Y0169650D01*
X0217676Y0168389D01*
X0217000Y0166756D01*
X0216324Y0168389D01*
X0215062Y0169650D01*
X0215137Y0169576D02*
X0218863Y0169576D01*
X0217865Y0168577D02*
X0216135Y0168577D01*
X0216659Y0167579D02*
X0217341Y0167579D01*
X0225062Y0169650D02*
X0226324Y0168389D01*
X0226650Y0167601D01*
X0226650Y0168302D01*
X0225302Y0169650D01*
X0225062Y0169650D01*
X0225137Y0169576D02*
X0225376Y0169576D01*
X0226135Y0168577D02*
X0226375Y0168577D01*
X0241100Y0168577D02*
X0282500Y0168577D01*
X0282500Y0167579D02*
X0241100Y0167579D01*
X0241100Y0166580D02*
X0282500Y0166580D01*
X0282500Y0165582D02*
X0241100Y0165582D01*
X0241100Y0164583D02*
X0282500Y0164583D01*
X0282500Y0163585D02*
X0241100Y0163585D01*
X0241100Y0162586D02*
X0282715Y0162586D01*
X0282500Y0163105D02*
X0283185Y0161451D01*
X0284451Y0160185D01*
X0288989Y0155647D01*
X0288422Y0155799D01*
X0285578Y0155799D01*
X0282832Y0155063D01*
X0280369Y0153642D01*
X0278358Y0151631D01*
X0276937Y0149168D01*
X0276201Y0146422D01*
X0276201Y0143578D01*
X0276937Y0140832D01*
X0277937Y0139100D01*
X0274934Y0139100D01*
X0273428Y0138476D01*
X0272350Y0137398D01*
X0272350Y0145434D01*
X0272350Y0147066D01*
X0271726Y0148572D01*
X0266726Y0153572D01*
X0265572Y0154726D01*
X0264066Y0155350D01*
X0247545Y0155350D01*
X0246640Y0155725D01*
X0244860Y0155725D01*
X0243215Y0155044D01*
X0241956Y0153785D01*
X0241275Y0152140D01*
X0241275Y0150360D01*
X0241956Y0148715D01*
X0243215Y0147456D01*
X0244860Y0146775D01*
X0246640Y0146775D01*
X0247545Y0147150D01*
X0258357Y0147150D01*
X0257468Y0146782D01*
X0256286Y0145600D01*
X0247630Y0145600D01*
X0246400Y0144370D01*
X0246400Y0143520D01*
X0245172Y0144747D01*
X0243114Y0145600D01*
X0240886Y0145600D01*
X0238828Y0144747D01*
X0237253Y0143172D01*
X0237000Y0142562D01*
X0236747Y0143172D01*
X0235172Y0144747D01*
X0234199Y0145151D01*
X0234226Y0145178D01*
X0240476Y0151428D01*
X0241100Y0152934D01*
X0241100Y0174566D01*
X0240476Y0176072D01*
X0239322Y0177226D01*
X0233072Y0183476D01*
X0231566Y0184100D01*
X0211100Y0184100D01*
X0211100Y0201463D01*
X0212000Y0202363D01*
X0214763Y0199600D01*
X0219237Y0199600D01*
X0222000Y0202363D01*
X0224763Y0199600D01*
X0229237Y0199600D01*
X0232000Y0202363D01*
X0234763Y0199600D01*
X0239237Y0199600D01*
X0242000Y0202363D01*
X0244763Y0199600D01*
X0249237Y0199600D01*
X0252000Y0202363D01*
X0254763Y0199600D01*
X0259237Y0199600D01*
X0262000Y0202363D01*
X0264763Y0199600D01*
X0269237Y0199600D01*
X0272000Y0202363D01*
X0274763Y0199600D01*
X0279237Y0199600D01*
X0282400Y0202763D01*
X0282400Y0207236D01*
X0282500Y0207136D01*
X0282500Y0163105D01*
X0283128Y0161588D02*
X0241100Y0161588D01*
X0241100Y0160589D02*
X0284047Y0160589D01*
X0285045Y0159591D02*
X0241100Y0159591D01*
X0241100Y0158592D02*
X0286044Y0158592D01*
X0287042Y0157594D02*
X0241100Y0157594D01*
X0241100Y0156595D02*
X0288041Y0156595D01*
X0284822Y0155597D02*
X0246950Y0155597D01*
X0244550Y0155597D02*
X0241100Y0155597D01*
X0241100Y0154598D02*
X0242770Y0154598D01*
X0241880Y0153600D02*
X0241100Y0153600D01*
X0240962Y0152601D02*
X0241466Y0152601D01*
X0241275Y0151603D02*
X0240548Y0151603D01*
X0241275Y0150604D02*
X0239652Y0150604D01*
X0238654Y0149605D02*
X0241588Y0149605D01*
X0242065Y0148607D02*
X0237655Y0148607D01*
X0236657Y0147608D02*
X0243063Y0147608D01*
X0245307Y0144613D02*
X0246643Y0144613D01*
X0246400Y0143614D02*
X0246305Y0143614D01*
X0238693Y0144613D02*
X0235307Y0144613D01*
X0234660Y0145611D02*
X0256298Y0145611D01*
X0257296Y0146610D02*
X0235658Y0146610D01*
X0236305Y0143614D02*
X0237695Y0143614D01*
X0237022Y0142616D02*
X0236978Y0142616D01*
X0237000Y0137438D02*
X0237253Y0136828D01*
X0238730Y0135350D01*
X0235270Y0135350D01*
X0236747Y0136828D01*
X0237000Y0137438D01*
X0236544Y0136625D02*
X0237456Y0136625D01*
X0238454Y0135626D02*
X0235546Y0135626D01*
X0228730Y0135350D02*
X0225270Y0135350D01*
X0226747Y0136828D01*
X0227000Y0137438D01*
X0227253Y0136828D01*
X0228730Y0135350D01*
X0228454Y0135626D02*
X0225546Y0135626D01*
X0226544Y0136625D02*
X0227456Y0136625D01*
X0227000Y0142562D02*
X0226747Y0143172D01*
X0226520Y0143400D01*
X0227480Y0143400D01*
X0227253Y0143172D01*
X0227000Y0142562D01*
X0226978Y0142616D02*
X0227022Y0142616D01*
X0217480Y0143400D02*
X0217253Y0143172D01*
X0217000Y0142562D01*
X0216747Y0143172D01*
X0216520Y0143400D01*
X0217480Y0143400D01*
X0217022Y0142616D02*
X0216978Y0142616D01*
X0217000Y0137438D02*
X0217253Y0136828D01*
X0218730Y0135350D01*
X0215270Y0135350D01*
X0216747Y0136828D01*
X0217000Y0137438D01*
X0216544Y0136625D02*
X0217456Y0136625D01*
X0218454Y0135626D02*
X0215546Y0135626D01*
X0208730Y0135350D02*
X0205270Y0135350D01*
X0206747Y0136828D01*
X0207000Y0137438D01*
X0207253Y0136828D01*
X0208730Y0135350D01*
X0208454Y0135626D02*
X0205546Y0135626D01*
X0206544Y0136625D02*
X0207456Y0136625D01*
X0207000Y0142562D02*
X0206747Y0143172D01*
X0206520Y0143400D01*
X0207480Y0143400D01*
X0207253Y0143172D01*
X0207000Y0142562D01*
X0206978Y0142616D02*
X0207022Y0142616D01*
X0197480Y0143400D02*
X0197253Y0143172D01*
X0197000Y0142562D01*
X0196747Y0143172D01*
X0196520Y0143400D01*
X0197480Y0143400D01*
X0197022Y0142616D02*
X0196978Y0142616D01*
X0187480Y0143400D02*
X0187253Y0143172D01*
X0187000Y0142562D01*
X0186747Y0143172D01*
X0186520Y0143400D01*
X0187480Y0143400D01*
X0187022Y0142616D02*
X0186978Y0142616D01*
X0177480Y0143400D02*
X0177253Y0143172D01*
X0177000Y0142562D01*
X0176747Y0143172D01*
X0176520Y0143400D01*
X0177480Y0143400D01*
X0177022Y0142616D02*
X0176978Y0142616D01*
X0167480Y0143400D02*
X0167253Y0143172D01*
X0167000Y0142562D01*
X0166747Y0143172D01*
X0166520Y0143400D01*
X0167480Y0143400D01*
X0167022Y0142616D02*
X0166978Y0142616D01*
X0157900Y0143820D02*
X0157900Y0147066D01*
X0158524Y0148572D01*
X0159602Y0149650D01*
X0156198Y0149650D01*
X0156100Y0149552D01*
X0156100Y0143820D01*
X0156747Y0143172D01*
X0157000Y0142562D01*
X0157253Y0143172D01*
X0157900Y0143820D01*
X0157695Y0143614D02*
X0156305Y0143614D01*
X0156100Y0144613D02*
X0157900Y0144613D01*
X0157900Y0145611D02*
X0156100Y0145611D01*
X0156100Y0146610D02*
X0157900Y0146610D01*
X0158125Y0147608D02*
X0156100Y0147608D01*
X0156100Y0148607D02*
X0158559Y0148607D01*
X0159557Y0149605D02*
X0156154Y0149605D01*
X0156978Y0142616D02*
X0157022Y0142616D01*
X0138693Y0144613D02*
X0135307Y0144613D01*
X0136305Y0143614D02*
X0137695Y0143614D01*
X0137022Y0142616D02*
X0136978Y0142616D01*
X0128693Y0144613D02*
X0125307Y0144613D01*
X0126305Y0143614D02*
X0127695Y0143614D01*
X0127022Y0142616D02*
X0126978Y0142616D01*
X0107900Y0145414D02*
X0107900Y0155102D01*
X0100798Y0148000D01*
X0103591Y0148000D01*
X0106532Y0146782D01*
X0107900Y0145414D01*
X0107900Y0145611D02*
X0107702Y0145611D01*
X0107900Y0146610D02*
X0106704Y0146610D01*
X0107900Y0147608D02*
X0104537Y0147608D01*
X0102404Y0149605D02*
X0107900Y0149605D01*
X0107900Y0148607D02*
X0101405Y0148607D01*
X0103402Y0150604D02*
X0107900Y0150604D01*
X0107900Y0151603D02*
X0104401Y0151603D01*
X0105399Y0152601D02*
X0107900Y0152601D01*
X0107900Y0153600D02*
X0106398Y0153600D01*
X0107396Y0154598D02*
X0107900Y0154598D01*
X0101791Y0160589D02*
X0031500Y0160589D01*
X0031500Y0159591D02*
X0100792Y0159591D01*
X0099794Y0158592D02*
X0031500Y0158592D01*
X0031500Y0157594D02*
X0098795Y0157594D01*
X0097797Y0156595D02*
X0031500Y0156595D01*
X0031500Y0155597D02*
X0096798Y0155597D01*
X0095800Y0154598D02*
X0031500Y0154598D01*
X0031500Y0153600D02*
X0094801Y0153600D01*
X0093803Y0152601D02*
X0031500Y0152601D01*
X0031500Y0151603D02*
X0092804Y0151603D01*
X0091806Y0150604D02*
X0031500Y0150604D01*
X0031500Y0149605D02*
X0090934Y0149605D01*
X0090521Y0148607D02*
X0031500Y0148607D01*
X0031500Y0147608D02*
X0090400Y0147608D01*
X0090400Y0146610D02*
X0031500Y0146610D01*
X0031500Y0145611D02*
X0090400Y0145611D01*
X0090400Y0144613D02*
X0067600Y0144613D01*
X0067389Y0144824D02*
X0065514Y0145600D01*
X0063486Y0145600D01*
X0061611Y0144824D01*
X0060176Y0143389D01*
X0059500Y0141756D01*
X0058824Y0143389D01*
X0057389Y0144824D01*
X0055514Y0145600D01*
X0053486Y0145600D01*
X0051611Y0144824D01*
X0050176Y0143389D01*
X0049500Y0141756D01*
X0048824Y0143389D01*
X0047389Y0144824D01*
X0045514Y0145600D01*
X0043486Y0145600D01*
X0041611Y0144824D01*
X0040176Y0143389D01*
X0039400Y0141514D01*
X0039400Y0133486D01*
X0040176Y0131611D01*
X0041611Y0130176D01*
X0043486Y0129400D01*
X0045514Y0129400D01*
X0047389Y0130176D01*
X0048824Y0131611D01*
X0049500Y0133244D01*
X0050176Y0131611D01*
X0051611Y0130176D01*
X0053486Y0129400D01*
X0055514Y0129400D01*
X0057389Y0130176D01*
X0058824Y0131611D01*
X0059500Y0133244D01*
X0060176Y0131611D01*
X0061611Y0130176D01*
X0062761Y0129700D01*
X0062553Y0129700D01*
X0059800Y0126947D01*
X0059800Y0123053D01*
X0062553Y0120300D01*
X0066447Y0120300D01*
X0069200Y0123053D01*
X0069200Y0126947D01*
X0066447Y0129700D01*
X0066239Y0129700D01*
X0067389Y0130176D01*
X0068824Y0131611D01*
X0069600Y0133486D01*
X0069600Y0141514D01*
X0068824Y0143389D01*
X0067389Y0144824D01*
X0068598Y0143614D02*
X0090400Y0143614D01*
X0090400Y0142616D02*
X0069144Y0142616D01*
X0069557Y0141617D02*
X0090400Y0141617D01*
X0090400Y0140619D02*
X0069600Y0140619D01*
X0069600Y0139620D02*
X0090400Y0139620D01*
X0090400Y0138622D02*
X0069600Y0138622D01*
X0069600Y0137623D02*
X0090400Y0137623D01*
X0090400Y0136625D02*
X0069600Y0136625D01*
X0069600Y0135626D02*
X0090400Y0135626D01*
X0090400Y0134628D02*
X0069600Y0134628D01*
X0069600Y0133629D02*
X0090400Y0133629D01*
X0090400Y0132631D02*
X0069246Y0132631D01*
X0068832Y0131632D02*
X0090422Y0131632D01*
X0090835Y0130634D02*
X0067846Y0130634D01*
X0066512Y0129635D02*
X0091566Y0129635D01*
X0092565Y0128637D02*
X0067510Y0128637D01*
X0068509Y0127638D02*
X0093563Y0127638D01*
X0094562Y0126640D02*
X0069200Y0126640D01*
X0069200Y0125641D02*
X0110830Y0125641D01*
X0110844Y0124643D02*
X0069200Y0124643D01*
X0069200Y0123644D02*
X0109846Y0123644D01*
X0108847Y0122646D02*
X0068792Y0122646D01*
X0067794Y0121647D02*
X0107849Y0121647D01*
X0106850Y0120649D02*
X0066795Y0120649D01*
X0062205Y0120649D02*
X0031500Y0120649D01*
X0031500Y0121647D02*
X0061206Y0121647D01*
X0060208Y0122646D02*
X0031500Y0122646D01*
X0031500Y0123644D02*
X0059800Y0123644D01*
X0059800Y0124643D02*
X0031500Y0124643D01*
X0031500Y0125641D02*
X0059800Y0125641D01*
X0059800Y0126640D02*
X0031500Y0126640D01*
X0031500Y0127638D02*
X0060491Y0127638D01*
X0061490Y0128637D02*
X0031500Y0128637D01*
X0031500Y0129635D02*
X0042918Y0129635D01*
X0041154Y0130634D02*
X0031500Y0130634D01*
X0031500Y0131632D02*
X0040168Y0131632D01*
X0039754Y0132631D02*
X0031500Y0132631D01*
X0031500Y0133629D02*
X0039400Y0133629D01*
X0039400Y0134628D02*
X0031500Y0134628D01*
X0031500Y0135626D02*
X0039400Y0135626D01*
X0039400Y0136625D02*
X0031500Y0136625D01*
X0031500Y0137623D02*
X0039400Y0137623D01*
X0039400Y0138622D02*
X0031500Y0138622D01*
X0031500Y0139620D02*
X0039400Y0139620D01*
X0039400Y0140619D02*
X0031500Y0140619D01*
X0031500Y0141617D02*
X0039443Y0141617D01*
X0039856Y0142616D02*
X0031500Y0142616D01*
X0031500Y0143614D02*
X0040402Y0143614D01*
X0041400Y0144613D02*
X0031500Y0144613D01*
X0047600Y0144613D02*
X0051400Y0144613D01*
X0050402Y0143614D02*
X0048598Y0143614D01*
X0049144Y0142616D02*
X0049856Y0142616D01*
X0057600Y0144613D02*
X0061400Y0144613D01*
X0060402Y0143614D02*
X0058598Y0143614D01*
X0059144Y0142616D02*
X0059856Y0142616D01*
X0059754Y0132631D02*
X0059246Y0132631D01*
X0058832Y0131632D02*
X0060168Y0131632D01*
X0061154Y0130634D02*
X0057846Y0130634D01*
X0056082Y0129635D02*
X0062488Y0129635D01*
X0052918Y0129635D02*
X0046082Y0129635D01*
X0047846Y0130634D02*
X0051154Y0130634D01*
X0050168Y0131632D02*
X0048832Y0131632D01*
X0049246Y0132631D02*
X0049754Y0132631D01*
X0045544Y0120250D02*
X0043456Y0120250D01*
X0041526Y0119451D01*
X0040049Y0117974D01*
X0039250Y0116044D01*
X0039250Y0113956D01*
X0040049Y0112026D01*
X0041526Y0110549D01*
X0042303Y0110228D01*
X0039250Y0107175D01*
X0039250Y0102825D01*
X0042325Y0099750D01*
X0046675Y0099750D01*
X0049750Y0102825D01*
X0049750Y0107175D01*
X0046697Y0110228D01*
X0047474Y0110549D01*
X0048951Y0112026D01*
X0049750Y0113956D01*
X0049750Y0116044D01*
X0048951Y0117974D01*
X0047474Y0119451D01*
X0045544Y0120250D01*
X0046992Y0119650D02*
X0105852Y0119650D01*
X0104853Y0118652D02*
X0048273Y0118652D01*
X0049084Y0117653D02*
X0103855Y0117653D01*
X0102856Y0116655D02*
X0049497Y0116655D01*
X0049750Y0115656D02*
X0101858Y0115656D01*
X0100859Y0114658D02*
X0049750Y0114658D01*
X0049627Y0113659D02*
X0099861Y0113659D01*
X0098862Y0112661D02*
X0049214Y0112661D01*
X0048587Y0111662D02*
X0097864Y0111662D01*
X0096865Y0110664D02*
X0047588Y0110664D01*
X0047260Y0109665D02*
X0062518Y0109665D01*
X0062553Y0109700D02*
X0059800Y0106947D01*
X0059800Y0103053D01*
X0062553Y0100300D01*
X0066447Y0100300D01*
X0069200Y0103053D01*
X0069200Y0106947D01*
X0066447Y0109700D01*
X0062553Y0109700D01*
X0061520Y0108667D02*
X0048258Y0108667D01*
X0049257Y0107668D02*
X0060521Y0107668D01*
X0059800Y0106670D02*
X0049750Y0106670D01*
X0049750Y0105671D02*
X0059800Y0105671D01*
X0059800Y0104672D02*
X0049750Y0104672D01*
X0049750Y0103674D02*
X0059800Y0103674D01*
X0060178Y0102675D02*
X0049600Y0102675D01*
X0048602Y0101677D02*
X0061176Y0101677D01*
X0062175Y0100678D02*
X0047603Y0100678D01*
X0048074Y0097900D02*
X0045926Y0097900D01*
X0043941Y0097078D01*
X0042422Y0095559D01*
X0041600Y0093574D01*
X0041600Y0091426D01*
X0042422Y0089441D01*
X0043941Y0087922D01*
X0045926Y0087100D01*
X0048074Y0087100D01*
X0050059Y0087922D01*
X0051578Y0089441D01*
X0052400Y0091426D01*
X0052400Y0093574D01*
X0051578Y0095559D01*
X0050059Y0097078D01*
X0048074Y0097900D01*
X0048598Y0097683D02*
X0057902Y0097683D01*
X0058426Y0097900D02*
X0056441Y0097078D01*
X0054922Y0095559D01*
X0054100Y0093574D01*
X0054100Y0091426D01*
X0054922Y0089441D01*
X0056441Y0087922D01*
X0058426Y0087100D01*
X0060574Y0087100D01*
X0062559Y0087922D01*
X0064078Y0089441D01*
X0064900Y0091426D01*
X0064900Y0093574D01*
X0064078Y0095559D01*
X0062559Y0097078D01*
X0060574Y0097900D01*
X0058426Y0097900D01*
X0056048Y0096684D02*
X0050452Y0096684D01*
X0051451Y0095686D02*
X0055049Y0095686D01*
X0054561Y0094687D02*
X0051939Y0094687D01*
X0052352Y0093689D02*
X0054148Y0093689D01*
X0054100Y0092690D02*
X0052400Y0092690D01*
X0052400Y0091692D02*
X0054100Y0091692D01*
X0054403Y0090693D02*
X0052097Y0090693D01*
X0051683Y0089695D02*
X0054817Y0089695D01*
X0055667Y0088696D02*
X0050833Y0088696D01*
X0049517Y0087698D02*
X0056983Y0087698D01*
X0062017Y0087698D02*
X0069483Y0087698D01*
X0068941Y0087922D02*
X0070926Y0087100D01*
X0073074Y0087100D01*
X0075059Y0087922D01*
X0076578Y0089441D01*
X0077400Y0091426D01*
X0077400Y0093574D01*
X0076578Y0095559D01*
X0075059Y0097078D01*
X0073074Y0097900D01*
X0070926Y0097900D01*
X0068941Y0097078D01*
X0067422Y0095559D01*
X0066600Y0093574D01*
X0066600Y0091426D01*
X0067422Y0089441D01*
X0068941Y0087922D01*
X0068167Y0088696D02*
X0063333Y0088696D01*
X0064183Y0089695D02*
X0067317Y0089695D01*
X0066903Y0090693D02*
X0064597Y0090693D01*
X0064900Y0091692D02*
X0066600Y0091692D01*
X0066600Y0092690D02*
X0064900Y0092690D01*
X0064852Y0093689D02*
X0066648Y0093689D01*
X0067061Y0094687D02*
X0064439Y0094687D01*
X0063951Y0095686D02*
X0067549Y0095686D01*
X0068548Y0096684D02*
X0062952Y0096684D01*
X0061098Y0097683D02*
X0070402Y0097683D01*
X0073598Y0097683D02*
X0082902Y0097683D01*
X0081048Y0096684D02*
X0075452Y0096684D01*
X0076451Y0095686D02*
X0080049Y0095686D01*
X0079561Y0094687D02*
X0076939Y0094687D01*
X0077352Y0093689D02*
X0079148Y0093689D01*
X0079100Y0092690D02*
X0077400Y0092690D01*
X0077400Y0091692D02*
X0079100Y0091692D01*
X0079403Y0090693D02*
X0077097Y0090693D01*
X0076683Y0089695D02*
X0079817Y0089695D01*
X0080667Y0088696D02*
X0075833Y0088696D01*
X0074517Y0087698D02*
X0081983Y0087698D01*
X0082901Y0086699D02*
X0031500Y0086699D01*
X0031500Y0085701D02*
X0081903Y0085701D01*
X0080904Y0084702D02*
X0031500Y0084702D01*
X0031500Y0083704D02*
X0079905Y0083704D01*
X0078907Y0082705D02*
X0031500Y0082705D01*
X0031500Y0081707D02*
X0077908Y0081707D01*
X0076910Y0080708D02*
X0031500Y0080708D01*
X0031500Y0079710D02*
X0075911Y0079710D01*
X0074913Y0078711D02*
X0031500Y0078711D01*
X0031500Y0077713D02*
X0073914Y0077713D01*
X0072916Y0076714D02*
X0031500Y0076714D01*
X0031500Y0075716D02*
X0071917Y0075716D01*
X0070919Y0074717D02*
X0031500Y0074717D01*
X0031500Y0073719D02*
X0069920Y0073719D01*
X0068922Y0072720D02*
X0031500Y0072720D01*
X0031500Y0071722D02*
X0068275Y0071722D01*
X0067900Y0070723D02*
X0031500Y0070723D01*
X0031500Y0069725D02*
X0067900Y0069725D01*
X0067900Y0068726D02*
X0031500Y0068726D01*
X0031500Y0067728D02*
X0047139Y0067728D01*
X0045431Y0066729D02*
X0031500Y0066729D01*
X0031500Y0065731D02*
X0044432Y0065731D01*
X0043487Y0064732D02*
X0031500Y0064732D01*
X0031500Y0063734D02*
X0043073Y0063734D01*
X0042900Y0062735D02*
X0031500Y0062735D01*
X0031500Y0061737D02*
X0042900Y0061737D01*
X0042900Y0060738D02*
X0031500Y0060738D01*
X0031500Y0059739D02*
X0042900Y0059739D01*
X0042900Y0058741D02*
X0031500Y0058741D01*
X0031500Y0057742D02*
X0033046Y0057742D01*
X0035954Y0057742D02*
X0042900Y0057742D01*
X0042900Y0056744D02*
X0037893Y0056744D01*
X0038891Y0055745D02*
X0042609Y0055745D01*
X0042086Y0054747D02*
X0039414Y0054747D01*
X0039828Y0053748D02*
X0041672Y0053748D01*
X0041600Y0052750D02*
X0039900Y0052750D01*
X0039900Y0051751D02*
X0041600Y0051751D01*
X0041879Y0050753D02*
X0039621Y0050753D01*
X0039208Y0049754D02*
X0042292Y0049754D01*
X0043107Y0048756D02*
X0038393Y0048756D01*
X0037161Y0047757D02*
X0044339Y0047757D01*
X0049661Y0047757D02*
X0055800Y0047757D01*
X0055800Y0046759D02*
X0031500Y0046759D01*
X0031500Y0047757D02*
X0031839Y0047757D01*
X0031500Y0045760D02*
X0055800Y0045760D01*
X0055800Y0044762D02*
X0031500Y0044762D01*
X0031500Y0043763D02*
X0055800Y0043763D01*
X0055800Y0042765D02*
X0031500Y0042765D01*
X0031500Y0041766D02*
X0055800Y0041766D01*
X0055800Y0040768D02*
X0031500Y0040768D01*
X0031500Y0039769D02*
X0038170Y0039769D01*
X0037789Y0039611D02*
X0036206Y0038029D01*
X0035350Y0035961D01*
X0035350Y0033724D01*
X0036206Y0031656D01*
X0037789Y0030074D01*
X0039856Y0029218D01*
X0049144Y0029218D01*
X0051211Y0030074D01*
X0052794Y0031656D01*
X0053650Y0033724D01*
X0053650Y0035961D01*
X0052794Y0038029D01*
X0051211Y0039611D01*
X0049144Y0040468D01*
X0039856Y0040468D01*
X0037789Y0039611D01*
X0036948Y0038771D02*
X0031500Y0038771D01*
X0031500Y0037772D02*
X0036100Y0037772D01*
X0035686Y0036774D02*
X0031500Y0036774D01*
X0031500Y0035775D02*
X0035350Y0035775D01*
X0035350Y0034777D02*
X0031500Y0034777D01*
X0031500Y0033778D02*
X0035350Y0033778D01*
X0035741Y0032780D02*
X0031500Y0032780D01*
X0031500Y0031781D02*
X0036155Y0031781D01*
X0037080Y0030783D02*
X0031500Y0030783D01*
X0031500Y0029784D02*
X0038488Y0029784D01*
X0031500Y0028786D02*
X0177926Y0028786D01*
X0176489Y0027787D02*
X0031500Y0027787D01*
X0031500Y0026789D02*
X0175490Y0026789D01*
X0174492Y0025790D02*
X0083456Y0025790D01*
X0080544Y0025790D02*
X0031500Y0025790D01*
X0031500Y0024792D02*
X0077361Y0024792D01*
X0075632Y0023793D02*
X0031500Y0023793D01*
X0031500Y0022795D02*
X0074522Y0022795D01*
X0073524Y0021796D02*
X0031500Y0021796D01*
X0031500Y0020798D02*
X0072877Y0020798D01*
X0072301Y0019799D02*
X0051338Y0019799D01*
X0051211Y0019926D02*
X0052794Y0018344D01*
X0053650Y0016276D01*
X0053650Y0014039D01*
X0052794Y0011971D01*
X0051211Y0010389D01*
X0049144Y0009532D01*
X0039856Y0009532D01*
X0037789Y0010389D01*
X0036206Y0011971D01*
X0035350Y0014039D01*
X0035350Y0016276D01*
X0036206Y0018344D01*
X0037789Y0019926D01*
X0039856Y0020782D01*
X0049144Y0020782D01*
X0051211Y0019926D01*
X0052337Y0018801D02*
X0071838Y0018801D01*
X0071571Y0017802D02*
X0053018Y0017802D01*
X0053432Y0016803D02*
X0071303Y0016803D01*
X0071201Y0015805D02*
X0053650Y0015805D01*
X0053650Y0014806D02*
X0071201Y0014806D01*
X0071201Y0013808D02*
X0053554Y0013808D01*
X0053141Y0012809D02*
X0071407Y0012809D01*
X0071674Y0011811D02*
X0052633Y0011811D01*
X0051635Y0010812D02*
X0071948Y0010812D01*
X0072524Y0009814D02*
X0049823Y0009814D01*
X0039177Y0009814D02*
X0031500Y0009814D01*
X0031500Y0010812D02*
X0037365Y0010812D01*
X0036367Y0011811D02*
X0031500Y0011811D01*
X0031500Y0012809D02*
X0035859Y0012809D01*
X0035446Y0013808D02*
X0031500Y0013808D01*
X0031500Y0014806D02*
X0035350Y0014806D01*
X0035350Y0015805D02*
X0031500Y0015805D01*
X0031500Y0016803D02*
X0035568Y0016803D01*
X0035982Y0017802D02*
X0031500Y0017802D01*
X0031500Y0018801D02*
X0036663Y0018801D01*
X0037662Y0019799D02*
X0031500Y0019799D01*
X0050512Y0029784D02*
X0060733Y0029784D01*
X0059735Y0030783D02*
X0051920Y0030783D01*
X0052845Y0031781D02*
X0058736Y0031781D01*
X0057738Y0032780D02*
X0053259Y0032780D01*
X0053650Y0033778D02*
X0056739Y0033778D01*
X0056105Y0034777D02*
X0053650Y0034777D01*
X0053650Y0035775D02*
X0055800Y0035775D01*
X0055800Y0036774D02*
X0053314Y0036774D01*
X0052900Y0037772D02*
X0055800Y0037772D01*
X0055800Y0038771D02*
X0052052Y0038771D01*
X0050830Y0039769D02*
X0055800Y0039769D01*
X0063200Y0039769D02*
X0063932Y0039769D01*
X0063428Y0040274D02*
X0063200Y0040502D01*
X0063200Y0037783D01*
X0064783Y0036200D01*
X0067960Y0036200D01*
X0067178Y0036524D01*
X0063428Y0040274D01*
X0063200Y0038771D02*
X0064931Y0038771D01*
X0065929Y0037772D02*
X0063210Y0037772D01*
X0064209Y0036774D02*
X0066928Y0036774D01*
X0071198Y0044100D02*
X0069850Y0045448D01*
X0069850Y0047546D01*
X0070926Y0047100D01*
X0073074Y0047100D01*
X0075059Y0047922D01*
X0076578Y0049441D01*
X0077400Y0051426D01*
X0077400Y0053574D01*
X0076578Y0055559D01*
X0076100Y0056037D01*
X0076100Y0068302D01*
X0080400Y0072602D01*
X0080400Y0056037D01*
X0079922Y0055559D01*
X0079100Y0053574D01*
X0079100Y0051426D01*
X0079922Y0049441D01*
X0081441Y0047922D01*
X0083426Y0047100D01*
X0085574Y0047100D01*
X0085963Y0047261D01*
X0082802Y0044100D01*
X0071198Y0044100D01*
X0070536Y0044762D02*
X0083464Y0044762D01*
X0084462Y0045760D02*
X0069850Y0045760D01*
X0069850Y0046759D02*
X0085461Y0046759D01*
X0081839Y0047757D02*
X0074661Y0047757D01*
X0075893Y0048756D02*
X0080607Y0048756D01*
X0079792Y0049754D02*
X0076708Y0049754D01*
X0077121Y0050753D02*
X0079379Y0050753D01*
X0079100Y0051751D02*
X0077400Y0051751D01*
X0077400Y0052750D02*
X0079100Y0052750D01*
X0079172Y0053748D02*
X0077328Y0053748D01*
X0076914Y0054747D02*
X0079586Y0054747D01*
X0080109Y0055745D02*
X0076391Y0055745D01*
X0076100Y0056744D02*
X0080400Y0056744D01*
X0080400Y0057742D02*
X0076100Y0057742D01*
X0076100Y0058741D02*
X0080400Y0058741D01*
X0080400Y0059739D02*
X0076100Y0059739D01*
X0076100Y0060738D02*
X0080400Y0060738D01*
X0080400Y0061737D02*
X0076100Y0061737D01*
X0076100Y0062735D02*
X0080400Y0062735D01*
X0080400Y0063734D02*
X0076100Y0063734D01*
X0076100Y0064732D02*
X0080400Y0064732D01*
X0080400Y0065731D02*
X0076100Y0065731D01*
X0076100Y0066729D02*
X0080400Y0066729D01*
X0080400Y0067728D02*
X0076100Y0067728D01*
X0076524Y0068726D02*
X0080400Y0068726D01*
X0080400Y0069725D02*
X0077523Y0069725D01*
X0078521Y0070723D02*
X0080400Y0070723D01*
X0080400Y0071722D02*
X0079520Y0071722D01*
X0088600Y0071722D02*
X0158751Y0071722D01*
X0158700Y0071844D02*
X0159202Y0070631D01*
X0160131Y0069702D01*
X0163700Y0066133D01*
X0163700Y0065316D01*
X0163014Y0065600D01*
X0160986Y0065600D01*
X0159111Y0064824D01*
X0157676Y0063389D01*
X0157000Y0061756D01*
X0156324Y0063389D01*
X0154889Y0064824D01*
X0153014Y0065600D01*
X0150986Y0065600D01*
X0149111Y0064824D01*
X0147676Y0063389D01*
X0147000Y0061756D01*
X0146324Y0063389D01*
X0144889Y0064824D01*
X0143014Y0065600D01*
X0140986Y0065600D01*
X0139111Y0064824D01*
X0137676Y0063389D01*
X0137000Y0061756D01*
X0136324Y0063389D01*
X0134889Y0064824D01*
X0133014Y0065600D01*
X0130986Y0065600D01*
X0129111Y0064824D01*
X0127676Y0063389D01*
X0126935Y0061600D01*
X0101184Y0061600D01*
X0099678Y0060976D01*
X0089739Y0051037D01*
X0089900Y0051426D01*
X0089900Y0053574D01*
X0089078Y0055559D01*
X0088600Y0056037D01*
X0088600Y0072052D01*
X0094280Y0077732D01*
X0095218Y0075468D01*
X0097468Y0073218D01*
X0100409Y0072000D01*
X0103591Y0072000D01*
X0106532Y0073218D01*
X0108697Y0075383D01*
X0108828Y0075253D01*
X0110886Y0074400D01*
X0113114Y0074400D01*
X0115172Y0075253D01*
X0116747Y0076828D01*
X0117000Y0077438D01*
X0117253Y0076828D01*
X0118828Y0075253D01*
X0120886Y0074400D01*
X0123114Y0074400D01*
X0125172Y0075253D01*
X0126747Y0076828D01*
X0127000Y0077438D01*
X0127253Y0076828D01*
X0128828Y0075253D01*
X0130886Y0074400D01*
X0133114Y0074400D01*
X0135172Y0075253D01*
X0136747Y0076828D01*
X0137000Y0077438D01*
X0137253Y0076828D01*
X0138828Y0075253D01*
X0140886Y0074400D01*
X0143114Y0074400D01*
X0145172Y0075253D01*
X0146747Y0076828D01*
X0147000Y0077438D01*
X0147253Y0076828D01*
X0148828Y0075253D01*
X0150886Y0074400D01*
X0153114Y0074400D01*
X0155172Y0075253D01*
X0156747Y0076828D01*
X0157000Y0077438D01*
X0157253Y0076828D01*
X0158700Y0075380D01*
X0158700Y0071844D01*
X0158700Y0072720D02*
X0105330Y0072720D01*
X0107032Y0073719D02*
X0158700Y0073719D01*
X0158700Y0074717D02*
X0153880Y0074717D01*
X0155635Y0075716D02*
X0158365Y0075716D01*
X0157366Y0076714D02*
X0156634Y0076714D01*
X0150120Y0074717D02*
X0143880Y0074717D01*
X0145635Y0075716D02*
X0148365Y0075716D01*
X0147366Y0076714D02*
X0146634Y0076714D01*
X0140120Y0074717D02*
X0133880Y0074717D01*
X0135635Y0075716D02*
X0138365Y0075716D01*
X0137366Y0076714D02*
X0136634Y0076714D01*
X0130120Y0074717D02*
X0123880Y0074717D01*
X0125635Y0075716D02*
X0128365Y0075716D01*
X0127366Y0076714D02*
X0126634Y0076714D01*
X0120120Y0074717D02*
X0113880Y0074717D01*
X0115635Y0075716D02*
X0118365Y0075716D01*
X0117366Y0076714D02*
X0116634Y0076714D01*
X0110120Y0074717D02*
X0108031Y0074717D01*
X0098670Y0072720D02*
X0089268Y0072720D01*
X0090267Y0073719D02*
X0096968Y0073719D01*
X0095969Y0074717D02*
X0091265Y0074717D01*
X0092264Y0075716D02*
X0095115Y0075716D01*
X0094702Y0076714D02*
X0093262Y0076714D01*
X0094261Y0077713D02*
X0094288Y0077713D01*
X0088600Y0070723D02*
X0159164Y0070723D01*
X0160109Y0069725D02*
X0088600Y0069725D01*
X0088600Y0068726D02*
X0161107Y0068726D01*
X0162106Y0067728D02*
X0088600Y0067728D01*
X0088600Y0066729D02*
X0163104Y0066729D01*
X0163700Y0065731D02*
X0088600Y0065731D01*
X0088600Y0064732D02*
X0129020Y0064732D01*
X0128021Y0063734D02*
X0088600Y0063734D01*
X0088600Y0062735D02*
X0127406Y0062735D01*
X0126992Y0061737D02*
X0088600Y0061737D01*
X0088600Y0060738D02*
X0099440Y0060738D01*
X0098441Y0059739D02*
X0088600Y0059739D01*
X0088600Y0058741D02*
X0097443Y0058741D01*
X0096444Y0057742D02*
X0088600Y0057742D01*
X0088600Y0056744D02*
X0095446Y0056744D01*
X0094447Y0055745D02*
X0088891Y0055745D01*
X0089414Y0054747D02*
X0093449Y0054747D01*
X0092450Y0053748D02*
X0089828Y0053748D01*
X0089900Y0052750D02*
X0091452Y0052750D01*
X0090453Y0051751D02*
X0089900Y0051751D01*
X0096059Y0045760D02*
X0163700Y0045760D01*
X0163700Y0044762D02*
X0095060Y0044762D01*
X0094062Y0043763D02*
X0163700Y0043763D01*
X0163700Y0042765D02*
X0093063Y0042765D01*
X0092065Y0041766D02*
X0163732Y0041766D01*
X0163700Y0041844D02*
X0164202Y0040631D01*
X0165131Y0039702D01*
X0168633Y0036200D01*
X0086040Y0036200D01*
X0086822Y0036524D01*
X0087976Y0037678D01*
X0103698Y0053400D01*
X0126935Y0053400D01*
X0127676Y0051611D01*
X0129111Y0050176D01*
X0130986Y0049400D01*
X0133014Y0049400D01*
X0134889Y0050176D01*
X0136324Y0051611D01*
X0137000Y0053244D01*
X0137676Y0051611D01*
X0139111Y0050176D01*
X0140986Y0049400D01*
X0143014Y0049400D01*
X0144889Y0050176D01*
X0146324Y0051611D01*
X0147000Y0053244D01*
X0147676Y0051611D01*
X0149111Y0050176D01*
X0150986Y0049400D01*
X0153014Y0049400D01*
X0154889Y0050176D01*
X0156324Y0051611D01*
X0157000Y0053244D01*
X0157676Y0051611D01*
X0159111Y0050176D01*
X0160986Y0049400D01*
X0163014Y0049400D01*
X0163700Y0049684D01*
X0163700Y0041844D01*
X0164146Y0040768D02*
X0091066Y0040768D01*
X0090068Y0039769D02*
X0165064Y0039769D01*
X0166062Y0038771D02*
X0089069Y0038771D01*
X0088070Y0037772D02*
X0167061Y0037772D01*
X0168059Y0036774D02*
X0087072Y0036774D01*
X0086639Y0024792D02*
X0173511Y0024792D01*
X0173098Y0023793D02*
X0088368Y0023793D01*
X0089478Y0022795D02*
X0172900Y0022795D01*
X0172900Y0021796D02*
X0090476Y0021796D01*
X0091123Y0020798D02*
X0172900Y0020798D01*
X0172900Y0019799D02*
X0169838Y0019799D01*
X0170836Y0018801D02*
X0172900Y0018801D01*
X0172165Y0017802D02*
X0171835Y0017802D01*
X0164162Y0019799D02*
X0159838Y0019799D01*
X0160836Y0018801D02*
X0163164Y0018801D01*
X0162165Y0017802D02*
X0161835Y0017802D01*
X0154162Y0019799D02*
X0091699Y0019799D01*
X0092162Y0018801D02*
X0153164Y0018801D01*
X0152165Y0017802D02*
X0092429Y0017802D01*
X0092697Y0016803D02*
X0151600Y0016803D01*
X0151600Y0015805D02*
X0092799Y0015805D01*
X0092799Y0014806D02*
X0151600Y0014806D01*
X0151600Y0013808D02*
X0092799Y0013808D01*
X0092593Y0012809D02*
X0151600Y0012809D01*
X0152552Y0011811D02*
X0092326Y0011811D01*
X0092052Y0010812D02*
X0153551Y0010812D01*
X0154549Y0009814D02*
X0091476Y0009814D01*
X0097057Y0046759D02*
X0163700Y0046759D01*
X0163700Y0047757D02*
X0098056Y0047757D01*
X0099054Y0048756D02*
X0163700Y0048756D01*
X0160130Y0049754D02*
X0153870Y0049754D01*
X0155465Y0050753D02*
X0158535Y0050753D01*
X0157618Y0051751D02*
X0156382Y0051751D01*
X0156795Y0052750D02*
X0157205Y0052750D01*
X0150130Y0049754D02*
X0143870Y0049754D01*
X0145465Y0050753D02*
X0148535Y0050753D01*
X0147618Y0051751D02*
X0146382Y0051751D01*
X0146795Y0052750D02*
X0147205Y0052750D01*
X0140130Y0049754D02*
X0133870Y0049754D01*
X0135465Y0050753D02*
X0138535Y0050753D01*
X0137618Y0051751D02*
X0136382Y0051751D01*
X0136795Y0052750D02*
X0137205Y0052750D01*
X0130130Y0049754D02*
X0100053Y0049754D01*
X0101051Y0050753D02*
X0128535Y0050753D01*
X0127618Y0051751D02*
X0102050Y0051751D01*
X0103048Y0052750D02*
X0127205Y0052750D01*
X0136594Y0062735D02*
X0137406Y0062735D01*
X0138021Y0063734D02*
X0135979Y0063734D01*
X0134980Y0064732D02*
X0139020Y0064732D01*
X0144980Y0064732D02*
X0149020Y0064732D01*
X0148021Y0063734D02*
X0145979Y0063734D01*
X0146594Y0062735D02*
X0147406Y0062735D01*
X0154980Y0064732D02*
X0159020Y0064732D01*
X0158021Y0063734D02*
X0155979Y0063734D01*
X0156594Y0062735D02*
X0157406Y0062735D01*
X0170300Y0065316D02*
X0170300Y0068156D01*
X0169798Y0069369D01*
X0165300Y0073867D01*
X0165300Y0075380D01*
X0166747Y0076828D01*
X0167000Y0077438D01*
X0167253Y0076828D01*
X0168828Y0075253D01*
X0170886Y0074400D01*
X0173114Y0074400D01*
X0175172Y0075253D01*
X0176747Y0076828D01*
X0177000Y0077438D01*
X0177253Y0076828D01*
X0178828Y0075253D01*
X0180886Y0074400D01*
X0183114Y0074400D01*
X0185172Y0075253D01*
X0186747Y0076828D01*
X0187000Y0077438D01*
X0187253Y0076828D01*
X0188828Y0075253D01*
X0190886Y0074400D01*
X0193114Y0074400D01*
X0194100Y0074808D01*
X0194100Y0070673D01*
X0194541Y0069607D01*
X0195357Y0068791D01*
X0199100Y0065049D01*
X0199100Y0064812D01*
X0197676Y0063389D01*
X0197000Y0061756D01*
X0196324Y0063389D01*
X0194889Y0064824D01*
X0193014Y0065600D01*
X0190986Y0065600D01*
X0189111Y0064824D01*
X0187676Y0063389D01*
X0187000Y0061756D01*
X0186324Y0063389D01*
X0184889Y0064824D01*
X0183014Y0065600D01*
X0180986Y0065600D01*
X0179111Y0064824D01*
X0177676Y0063389D01*
X0177000Y0061756D01*
X0176324Y0063389D01*
X0174889Y0064824D01*
X0173014Y0065600D01*
X0170986Y0065600D01*
X0170300Y0065316D01*
X0170300Y0065731D02*
X0198418Y0065731D01*
X0199020Y0064732D02*
X0194980Y0064732D01*
X0195979Y0063734D02*
X0198021Y0063734D01*
X0197406Y0062735D02*
X0196594Y0062735D01*
X0197420Y0066729D02*
X0170300Y0066729D01*
X0170300Y0067728D02*
X0196421Y0067728D01*
X0195423Y0068726D02*
X0170064Y0068726D01*
X0169442Y0069725D02*
X0194493Y0069725D01*
X0194100Y0070723D02*
X0168444Y0070723D01*
X0167445Y0071722D02*
X0194100Y0071722D01*
X0194100Y0072720D02*
X0166447Y0072720D01*
X0165448Y0073719D02*
X0194100Y0073719D01*
X0194100Y0074717D02*
X0193880Y0074717D01*
X0190120Y0074717D02*
X0183880Y0074717D01*
X0185635Y0075716D02*
X0188365Y0075716D01*
X0187366Y0076714D02*
X0186634Y0076714D01*
X0180120Y0074717D02*
X0173880Y0074717D01*
X0175635Y0075716D02*
X0178365Y0075716D01*
X0177366Y0076714D02*
X0176634Y0076714D01*
X0170120Y0074717D02*
X0165300Y0074717D01*
X0165635Y0075716D02*
X0168365Y0075716D01*
X0167366Y0076714D02*
X0166634Y0076714D01*
X0167000Y0082562D02*
X0166747Y0083172D01*
X0165172Y0084747D01*
X0163114Y0085600D01*
X0160886Y0085600D01*
X0158828Y0084747D01*
X0157253Y0083172D01*
X0157000Y0082562D01*
X0156747Y0083172D01*
X0155172Y0084747D01*
X0153114Y0085600D01*
X0150886Y0085600D01*
X0148828Y0084747D01*
X0147253Y0083172D01*
X0147000Y0082562D01*
X0146747Y0083172D01*
X0145172Y0084747D01*
X0144199Y0085151D01*
X0144226Y0085178D01*
X0145476Y0086428D01*
X0146100Y0087934D01*
X0146100Y0092617D01*
X0146700Y0094065D01*
X0146700Y0095935D01*
X0146031Y0097550D01*
X0147969Y0097550D01*
X0147300Y0095935D01*
X0147300Y0094065D01*
X0148016Y0092338D01*
X0149338Y0091016D01*
X0151065Y0090300D01*
X0152935Y0090300D01*
X0154662Y0091016D01*
X0155984Y0092338D01*
X0156700Y0094065D01*
X0156700Y0095935D01*
X0156031Y0097550D01*
X0157969Y0097550D01*
X0157300Y0095935D01*
X0157300Y0094065D01*
X0158016Y0092338D01*
X0159338Y0091016D01*
X0161065Y0090300D01*
X0162935Y0090300D01*
X0164662Y0091016D01*
X0165984Y0092338D01*
X0166700Y0094065D01*
X0166700Y0095935D01*
X0166031Y0097550D01*
X0167969Y0097550D01*
X0167300Y0095935D01*
X0167300Y0094065D01*
X0168016Y0092338D01*
X0169338Y0091016D01*
X0170806Y0090407D01*
X0170357Y0089958D01*
X0169541Y0089143D01*
X0169100Y0088077D01*
X0169100Y0084860D01*
X0168828Y0084747D01*
X0167253Y0083172D01*
X0167000Y0082562D01*
X0166941Y0082705D02*
X0167059Y0082705D01*
X0167784Y0083704D02*
X0166216Y0083704D01*
X0165217Y0084702D02*
X0168783Y0084702D01*
X0169100Y0085701D02*
X0144749Y0085701D01*
X0145217Y0084702D02*
X0148783Y0084702D01*
X0147784Y0083704D02*
X0146216Y0083704D01*
X0146941Y0082705D02*
X0147059Y0082705D01*
X0145588Y0086699D02*
X0169100Y0086699D01*
X0169100Y0087698D02*
X0146002Y0087698D01*
X0146100Y0088696D02*
X0169357Y0088696D01*
X0170094Y0089695D02*
X0146100Y0089695D01*
X0146100Y0090693D02*
X0150116Y0090693D01*
X0148661Y0091692D02*
X0146100Y0091692D01*
X0146131Y0092690D02*
X0147869Y0092690D01*
X0147456Y0093689D02*
X0146544Y0093689D01*
X0146700Y0094687D02*
X0147300Y0094687D01*
X0147300Y0095686D02*
X0146700Y0095686D01*
X0146390Y0096684D02*
X0147610Y0096684D01*
X0156390Y0096684D02*
X0157610Y0096684D01*
X0157300Y0095686D02*
X0156700Y0095686D01*
X0156700Y0094687D02*
X0157300Y0094687D01*
X0157456Y0093689D02*
X0156544Y0093689D01*
X0156131Y0092690D02*
X0157869Y0092690D01*
X0158661Y0091692D02*
X0155339Y0091692D01*
X0153884Y0090693D02*
X0160116Y0090693D01*
X0163884Y0090693D02*
X0170116Y0090693D01*
X0168661Y0091692D02*
X0165339Y0091692D01*
X0166131Y0092690D02*
X0167869Y0092690D01*
X0167456Y0093689D02*
X0166544Y0093689D01*
X0166700Y0094687D02*
X0167300Y0094687D01*
X0167300Y0095686D02*
X0166700Y0095686D01*
X0166390Y0096684D02*
X0167610Y0096684D01*
X0175297Y0091650D02*
X0175984Y0092338D01*
X0176700Y0094065D01*
X0176700Y0095935D01*
X0176031Y0097550D01*
X0182903Y0097550D01*
X0182300Y0096947D01*
X0182300Y0093053D01*
X0183703Y0091650D01*
X0175297Y0091650D01*
X0175339Y0091692D02*
X0183661Y0091692D01*
X0182663Y0092690D02*
X0176131Y0092690D01*
X0176544Y0093689D02*
X0182300Y0093689D01*
X0182300Y0094687D02*
X0176700Y0094687D01*
X0176700Y0095686D02*
X0182300Y0095686D01*
X0182300Y0096684D02*
X0176390Y0096684D01*
X0190297Y0091650D02*
X0191700Y0093053D01*
X0191700Y0096947D01*
X0191097Y0097550D01*
X0196653Y0097550D01*
X0196050Y0096947D01*
X0196050Y0093053D01*
X0197453Y0091650D01*
X0190297Y0091650D01*
X0190339Y0091692D02*
X0197411Y0091692D01*
X0196413Y0092690D02*
X0191337Y0092690D01*
X0191700Y0093689D02*
X0196050Y0093689D01*
X0196050Y0094687D02*
X0191700Y0094687D01*
X0191700Y0095686D02*
X0196050Y0095686D01*
X0196050Y0096684D02*
X0191700Y0096684D01*
X0204847Y0097550D02*
X0211653Y0097550D01*
X0211050Y0096947D01*
X0211050Y0093053D01*
X0213803Y0090300D01*
X0217697Y0090300D01*
X0220450Y0093053D01*
X0220450Y0096947D01*
X0219450Y0097947D01*
X0219450Y0100736D01*
X0218887Y0102096D01*
X0217637Y0103346D01*
X0216596Y0104387D01*
X0215236Y0104950D01*
X0132514Y0104950D01*
X0131154Y0104387D01*
X0130113Y0103346D01*
X0128863Y0102096D01*
X0128300Y0100736D01*
X0128300Y0097947D01*
X0127300Y0096947D01*
X0127300Y0093053D01*
X0128753Y0091600D01*
X0125247Y0091600D01*
X0126700Y0093053D01*
X0126700Y0096947D01*
X0123947Y0099700D01*
X0120053Y0099700D01*
X0117300Y0096947D01*
X0117300Y0093053D01*
X0118753Y0091600D01*
X0099398Y0091600D01*
X0114948Y0107150D01*
X0252816Y0107150D01*
X0254322Y0107774D01*
X0277448Y0130900D01*
X0292500Y0130900D01*
X0292500Y0119700D01*
X0288803Y0119700D01*
X0286050Y0116947D01*
X0286050Y0113847D01*
X0285197Y0114700D01*
X0281303Y0114700D01*
X0278550Y0111947D01*
X0278550Y0108053D01*
X0281303Y0105300D01*
X0285197Y0105300D01*
X0286050Y0106153D01*
X0286050Y0103053D01*
X0288803Y0100300D01*
X0292500Y0100300D01*
X0292500Y0073700D01*
X0267014Y0073700D01*
X0268782Y0075468D01*
X0270000Y0078409D01*
X0270000Y0081591D01*
X0268782Y0084532D01*
X0266532Y0086782D01*
X0263591Y0088000D01*
X0260409Y0088000D01*
X0257468Y0086782D01*
X0255303Y0084617D01*
X0255172Y0084747D01*
X0253114Y0085600D01*
X0250886Y0085600D01*
X0248828Y0084747D01*
X0247253Y0083172D01*
X0247000Y0082562D01*
X0246747Y0083172D01*
X0245741Y0084178D01*
X0246174Y0084626D01*
X0246726Y0085178D01*
X0246740Y0085211D01*
X0281202Y0120861D01*
X0282035Y0121206D01*
X0283294Y0122465D01*
X0283975Y0124110D01*
X0283975Y0125890D01*
X0283294Y0127535D01*
X0282035Y0128794D01*
X0280390Y0129475D01*
X0278610Y0129475D01*
X0276965Y0128794D01*
X0275706Y0127535D01*
X0275301Y0126555D01*
X0241511Y0091600D01*
X0233997Y0091600D01*
X0235450Y0093053D01*
X0235450Y0096947D01*
X0232697Y0099700D01*
X0228803Y0099700D01*
X0226050Y0096947D01*
X0226050Y0093053D01*
X0227503Y0091600D01*
X0222434Y0091600D01*
X0220928Y0090976D01*
X0219774Y0089822D01*
X0219678Y0089726D01*
X0218524Y0088572D01*
X0217900Y0087066D01*
X0217900Y0083820D01*
X0217253Y0083172D01*
X0217000Y0082562D01*
X0216747Y0083172D01*
X0215172Y0084747D01*
X0213114Y0085600D01*
X0210886Y0085600D01*
X0209900Y0085192D01*
X0209900Y0088077D01*
X0209458Y0089143D01*
X0208208Y0090393D01*
X0207393Y0091208D01*
X0206327Y0091650D01*
X0204047Y0091650D01*
X0205450Y0093053D01*
X0205450Y0096947D01*
X0204847Y0097550D01*
X0205450Y0096684D02*
X0211050Y0096684D01*
X0211050Y0095686D02*
X0205450Y0095686D01*
X0205450Y0094687D02*
X0211050Y0094687D01*
X0211050Y0093689D02*
X0205450Y0093689D01*
X0205087Y0092690D02*
X0211413Y0092690D01*
X0212411Y0091692D02*
X0204089Y0091692D01*
X0207908Y0090693D02*
X0213410Y0090693D01*
X0209643Y0088696D02*
X0218648Y0088696D01*
X0218162Y0087698D02*
X0209900Y0087698D01*
X0209900Y0086699D02*
X0217900Y0086699D01*
X0217900Y0085701D02*
X0209900Y0085701D01*
X0215217Y0084702D02*
X0217900Y0084702D01*
X0217784Y0083704D02*
X0216216Y0083704D01*
X0216941Y0082705D02*
X0217059Y0082705D01*
X0226520Y0083400D02*
X0227480Y0083400D01*
X0227253Y0083172D01*
X0227000Y0082562D01*
X0226747Y0083172D01*
X0226520Y0083400D01*
X0226941Y0082705D02*
X0227059Y0082705D01*
X0227000Y0077438D02*
X0227253Y0076828D01*
X0228828Y0075253D01*
X0230886Y0074400D01*
X0233114Y0074400D01*
X0235172Y0075253D01*
X0236747Y0076828D01*
X0237000Y0077438D01*
X0237253Y0076828D01*
X0238828Y0075253D01*
X0240886Y0074400D01*
X0243114Y0074400D01*
X0245172Y0075253D01*
X0246747Y0076828D01*
X0247000Y0077438D01*
X0247253Y0076828D01*
X0248828Y0075253D01*
X0250886Y0074400D01*
X0253114Y0074400D01*
X0255172Y0075253D01*
X0255303Y0075383D01*
X0256986Y0073700D01*
X0232514Y0073700D01*
X0231154Y0073137D01*
X0228654Y0070637D01*
X0227613Y0069596D01*
X0227050Y0068236D01*
X0227050Y0061635D01*
X0226324Y0063389D01*
X0224889Y0064824D01*
X0223014Y0065600D01*
X0220986Y0065600D01*
X0220300Y0065316D01*
X0220300Y0068156D01*
X0219798Y0069369D01*
X0215300Y0073867D01*
X0215300Y0075380D01*
X0216747Y0076828D01*
X0217000Y0077438D01*
X0217253Y0076828D01*
X0218828Y0075253D01*
X0220886Y0074400D01*
X0223114Y0074400D01*
X0225172Y0075253D01*
X0226747Y0076828D01*
X0227000Y0077438D01*
X0226634Y0076714D02*
X0227366Y0076714D01*
X0228365Y0075716D02*
X0225635Y0075716D01*
X0223880Y0074717D02*
X0230120Y0074717D01*
X0230738Y0072720D02*
X0216447Y0072720D01*
X0217445Y0071722D02*
X0229739Y0071722D01*
X0228741Y0070723D02*
X0218444Y0070723D01*
X0219442Y0069725D02*
X0227742Y0069725D01*
X0227253Y0068726D02*
X0220064Y0068726D01*
X0220300Y0067728D02*
X0227050Y0067728D01*
X0227050Y0066729D02*
X0220300Y0066729D01*
X0220300Y0065731D02*
X0227050Y0065731D01*
X0227050Y0064732D02*
X0224980Y0064732D01*
X0225979Y0063734D02*
X0227050Y0063734D01*
X0227050Y0062735D02*
X0226594Y0062735D01*
X0227008Y0061737D02*
X0227050Y0061737D01*
X0234450Y0061737D02*
X0237900Y0061737D01*
X0237900Y0061955D02*
X0237900Y0049198D01*
X0234450Y0045748D01*
X0234450Y0065967D01*
X0234783Y0066300D01*
X0238222Y0066300D01*
X0238206Y0066285D01*
X0237525Y0064640D01*
X0237525Y0062860D01*
X0237900Y0061955D01*
X0237577Y0062735D02*
X0234450Y0062735D01*
X0234450Y0063734D02*
X0237525Y0063734D01*
X0237563Y0064732D02*
X0234450Y0064732D01*
X0234450Y0065731D02*
X0237977Y0065731D01*
X0237900Y0060738D02*
X0234450Y0060738D01*
X0234450Y0059739D02*
X0237900Y0059739D01*
X0237900Y0058741D02*
X0234450Y0058741D01*
X0234450Y0057742D02*
X0237900Y0057742D01*
X0237900Y0056744D02*
X0234450Y0056744D01*
X0234450Y0055745D02*
X0237900Y0055745D01*
X0237900Y0054747D02*
X0234450Y0054747D01*
X0234450Y0053748D02*
X0237900Y0053748D01*
X0237900Y0052750D02*
X0234450Y0052750D01*
X0234450Y0051751D02*
X0237900Y0051751D01*
X0237900Y0050753D02*
X0234450Y0050753D01*
X0234450Y0049754D02*
X0237900Y0049754D01*
X0237458Y0048756D02*
X0234450Y0048756D01*
X0234450Y0047757D02*
X0236459Y0047757D01*
X0235461Y0046759D02*
X0234450Y0046759D01*
X0234450Y0045760D02*
X0234462Y0045760D01*
X0227050Y0045760D02*
X0225300Y0045760D01*
X0225300Y0044762D02*
X0226529Y0044762D01*
X0227050Y0045283D02*
X0225300Y0043533D01*
X0225300Y0050588D01*
X0226324Y0051611D01*
X0227050Y0053365D01*
X0227050Y0045283D01*
X0227050Y0046759D02*
X0225300Y0046759D01*
X0225300Y0047757D02*
X0227050Y0047757D01*
X0227050Y0048756D02*
X0225300Y0048756D01*
X0225300Y0049754D02*
X0227050Y0049754D01*
X0227050Y0050753D02*
X0225465Y0050753D01*
X0226382Y0051751D02*
X0227050Y0051751D01*
X0227050Y0052750D02*
X0226795Y0052750D01*
X0213700Y0049684D02*
X0213700Y0048867D01*
X0210633Y0045800D01*
X0207467Y0045800D01*
X0208869Y0047202D01*
X0209798Y0048131D01*
X0210300Y0049344D01*
X0210300Y0049684D01*
X0210986Y0049400D01*
X0213014Y0049400D01*
X0213700Y0049684D01*
X0213589Y0048756D02*
X0210057Y0048756D01*
X0209424Y0047757D02*
X0212590Y0047757D01*
X0211592Y0046759D02*
X0208426Y0046759D01*
X0215933Y0041766D02*
X0216599Y0041766D01*
X0216932Y0042765D02*
X0217598Y0042765D01*
X0217930Y0043763D02*
X0218596Y0043763D01*
X0218700Y0043867D02*
X0215633Y0040800D01*
X0214967Y0040800D01*
X0218700Y0044533D01*
X0218700Y0043867D01*
X0225300Y0043763D02*
X0225531Y0043763D01*
X0238070Y0037772D02*
X0292500Y0037772D01*
X0292500Y0036774D02*
X0237072Y0036774D01*
X0236073Y0035775D02*
X0292500Y0035775D01*
X0292500Y0034777D02*
X0235075Y0034777D01*
X0234076Y0033778D02*
X0292500Y0033778D01*
X0292500Y0032780D02*
X0233078Y0032780D01*
X0232079Y0031781D02*
X0292500Y0031781D01*
X0292500Y0030783D02*
X0231081Y0030783D01*
X0230082Y0029784D02*
X0292500Y0029784D01*
X0292500Y0028786D02*
X0229084Y0028786D01*
X0228085Y0027787D02*
X0292500Y0027787D01*
X0292425Y0026789D02*
X0227087Y0026789D01*
X0226088Y0025790D02*
X0291426Y0025790D01*
X0290428Y0024792D02*
X0225090Y0024792D01*
X0224091Y0023793D02*
X0289429Y0023793D01*
X0288431Y0022795D02*
X0223093Y0022795D01*
X0222094Y0021796D02*
X0287432Y0021796D01*
X0286434Y0020798D02*
X0181100Y0020798D01*
X0181100Y0019799D02*
X0184162Y0019799D01*
X0183164Y0018801D02*
X0181100Y0018801D01*
X0181835Y0017802D02*
X0182165Y0017802D01*
X0189838Y0019799D02*
X0194162Y0019799D01*
X0193164Y0018801D02*
X0190836Y0018801D01*
X0191835Y0017802D02*
X0192165Y0017802D01*
X0199838Y0019799D02*
X0204162Y0019799D01*
X0203164Y0018801D02*
X0200836Y0018801D01*
X0201835Y0017802D02*
X0202165Y0017802D01*
X0209838Y0019799D02*
X0224162Y0019799D01*
X0224763Y0020400D02*
X0221600Y0017237D01*
X0221600Y0012763D01*
X0224763Y0009600D01*
X0229237Y0009600D01*
X0232000Y0012363D01*
X0234763Y0009600D01*
X0239237Y0009600D01*
X0242000Y0012363D01*
X0244763Y0009600D01*
X0249237Y0009600D01*
X0252000Y0012363D01*
X0254763Y0009600D01*
X0259237Y0009600D01*
X0262000Y0012363D01*
X0264763Y0009600D01*
X0269237Y0009600D01*
X0272000Y0012363D01*
X0274763Y0009600D01*
X0279237Y0009600D01*
X0282400Y0012763D01*
X0282400Y0017237D01*
X0279237Y0020400D01*
X0274763Y0020400D01*
X0272000Y0017637D01*
X0269237Y0020400D01*
X0264763Y0020400D01*
X0262000Y0017637D01*
X0259237Y0020400D01*
X0254763Y0020400D01*
X0252000Y0017637D01*
X0249237Y0020400D01*
X0244763Y0020400D01*
X0242000Y0017637D01*
X0239237Y0020400D01*
X0234763Y0020400D01*
X0232000Y0017637D01*
X0229237Y0020400D01*
X0224763Y0020400D01*
X0223164Y0018801D02*
X0210836Y0018801D01*
X0211835Y0017802D02*
X0222165Y0017802D01*
X0221600Y0016803D02*
X0212400Y0016803D01*
X0212400Y0015805D02*
X0221600Y0015805D01*
X0221600Y0014806D02*
X0212400Y0014806D01*
X0212400Y0013808D02*
X0221600Y0013808D01*
X0221600Y0012809D02*
X0212400Y0012809D01*
X0211448Y0011811D02*
X0222552Y0011811D01*
X0223551Y0010812D02*
X0210449Y0010812D01*
X0209451Y0009814D02*
X0224549Y0009814D01*
X0229451Y0009814D02*
X0234549Y0009814D01*
X0233551Y0010812D02*
X0230449Y0010812D01*
X0231448Y0011811D02*
X0232552Y0011811D01*
X0239451Y0009814D02*
X0244549Y0009814D01*
X0243551Y0010812D02*
X0240449Y0010812D01*
X0241448Y0011811D02*
X0242552Y0011811D01*
X0249451Y0009814D02*
X0254549Y0009814D01*
X0253551Y0010812D02*
X0250449Y0010812D01*
X0251448Y0011811D02*
X0252552Y0011811D01*
X0259451Y0009814D02*
X0264549Y0009814D01*
X0263551Y0010812D02*
X0260449Y0010812D01*
X0261448Y0011811D02*
X0262552Y0011811D01*
X0269451Y0009814D02*
X0274549Y0009814D01*
X0273551Y0010812D02*
X0270449Y0010812D01*
X0271448Y0011811D02*
X0272552Y0011811D01*
X0279451Y0009814D02*
X0282500Y0009814D01*
X0282500Y0010812D02*
X0280449Y0010812D01*
X0281448Y0011811D02*
X0282500Y0011811D01*
X0282500Y0012809D02*
X0282400Y0012809D01*
X0282400Y0013808D02*
X0282500Y0013808D01*
X0282500Y0014806D02*
X0282400Y0014806D01*
X0282400Y0015805D02*
X0282500Y0015805D01*
X0282400Y0016803D02*
X0282876Y0016803D01*
X0283438Y0017802D02*
X0281835Y0017802D01*
X0280836Y0018801D02*
X0284437Y0018801D01*
X0285435Y0019799D02*
X0279838Y0019799D01*
X0274162Y0019799D02*
X0269838Y0019799D01*
X0270836Y0018801D02*
X0273164Y0018801D01*
X0272165Y0017802D02*
X0271835Y0017802D01*
X0264162Y0019799D02*
X0259838Y0019799D01*
X0260836Y0018801D02*
X0263164Y0018801D01*
X0262165Y0017802D02*
X0261835Y0017802D01*
X0254162Y0019799D02*
X0249838Y0019799D01*
X0250836Y0018801D02*
X0253164Y0018801D01*
X0252165Y0017802D02*
X0251835Y0017802D01*
X0244162Y0019799D02*
X0239838Y0019799D01*
X0240836Y0018801D02*
X0243164Y0018801D01*
X0242165Y0017802D02*
X0241835Y0017802D01*
X0234162Y0019799D02*
X0229838Y0019799D01*
X0230836Y0018801D02*
X0233164Y0018801D01*
X0232165Y0017802D02*
X0231835Y0017802D01*
X0204549Y0009814D02*
X0199451Y0009814D01*
X0200449Y0010812D02*
X0203551Y0010812D01*
X0202552Y0011811D02*
X0201448Y0011811D01*
X0194549Y0009814D02*
X0189451Y0009814D01*
X0190449Y0010812D02*
X0193551Y0010812D01*
X0192552Y0011811D02*
X0191448Y0011811D01*
X0184549Y0009814D02*
X0179451Y0009814D01*
X0180449Y0010812D02*
X0183551Y0010812D01*
X0182552Y0011811D02*
X0181448Y0011811D01*
X0174549Y0009814D02*
X0169451Y0009814D01*
X0170449Y0010812D02*
X0173551Y0010812D01*
X0172552Y0011811D02*
X0171448Y0011811D01*
X0164549Y0009814D02*
X0159451Y0009814D01*
X0160449Y0010812D02*
X0163551Y0010812D01*
X0162552Y0011811D02*
X0161448Y0011811D01*
X0173367Y0040800D02*
X0170300Y0043867D01*
X0170300Y0044533D01*
X0174033Y0040800D01*
X0173367Y0040800D01*
X0173067Y0041766D02*
X0172401Y0041766D01*
X0172068Y0042765D02*
X0171402Y0042765D01*
X0171070Y0043763D02*
X0170404Y0043763D01*
X0175411Y0048756D02*
X0178943Y0048756D01*
X0178700Y0049344D02*
X0179202Y0048131D01*
X0181533Y0045800D01*
X0178367Y0045800D01*
X0175300Y0048867D01*
X0175300Y0050588D01*
X0176324Y0051611D01*
X0177000Y0053244D01*
X0177676Y0051611D01*
X0178700Y0050587D01*
X0178700Y0049344D01*
X0178700Y0049754D02*
X0175300Y0049754D01*
X0175465Y0050753D02*
X0178535Y0050753D01*
X0177618Y0051751D02*
X0176382Y0051751D01*
X0176795Y0052750D02*
X0177205Y0052750D01*
X0176410Y0047757D02*
X0179576Y0047757D01*
X0180574Y0046759D02*
X0177408Y0046759D01*
X0185690Y0050977D02*
X0185867Y0050800D01*
X0188488Y0050800D01*
X0187676Y0051611D01*
X0187000Y0053244D01*
X0186324Y0051611D01*
X0185690Y0050977D01*
X0186382Y0051751D02*
X0187618Y0051751D01*
X0187205Y0052750D02*
X0186795Y0052750D01*
X0195512Y0050800D02*
X0196324Y0051611D01*
X0197000Y0053244D01*
X0197676Y0051611D01*
X0198488Y0050800D01*
X0195512Y0050800D01*
X0196382Y0051751D02*
X0197618Y0051751D01*
X0197205Y0052750D02*
X0196795Y0052750D01*
X0187406Y0062735D02*
X0186594Y0062735D01*
X0185979Y0063734D02*
X0188021Y0063734D01*
X0189020Y0064732D02*
X0184980Y0064732D01*
X0179020Y0064732D02*
X0174980Y0064732D01*
X0175979Y0063734D02*
X0178021Y0063734D01*
X0177406Y0062735D02*
X0176594Y0062735D01*
X0177000Y0082562D02*
X0176747Y0083172D01*
X0175172Y0084747D01*
X0174900Y0084860D01*
X0174900Y0085850D01*
X0179999Y0085850D01*
X0179541Y0085393D01*
X0179367Y0084971D01*
X0178828Y0084747D01*
X0177253Y0083172D01*
X0177000Y0082562D01*
X0176941Y0082705D02*
X0177059Y0082705D01*
X0177784Y0083704D02*
X0176216Y0083704D01*
X0175217Y0084702D02*
X0178783Y0084702D01*
X0179850Y0085701D02*
X0174900Y0085701D01*
X0158783Y0084702D02*
X0155217Y0084702D01*
X0156216Y0083704D02*
X0157784Y0083704D01*
X0157059Y0082705D02*
X0156941Y0082705D01*
X0137480Y0083400D02*
X0137253Y0083172D01*
X0137000Y0082562D01*
X0136747Y0083172D01*
X0136520Y0083400D01*
X0137480Y0083400D01*
X0137059Y0082705D02*
X0136941Y0082705D01*
X0127480Y0083400D02*
X0127253Y0083172D01*
X0127000Y0082562D01*
X0126747Y0083172D01*
X0126520Y0083400D01*
X0127480Y0083400D01*
X0127059Y0082705D02*
X0126941Y0082705D01*
X0117480Y0083400D02*
X0117253Y0083172D01*
X0117000Y0082562D01*
X0116747Y0083172D01*
X0116520Y0083400D01*
X0117480Y0083400D01*
X0117059Y0082705D02*
X0116941Y0082705D01*
X0118661Y0091692D02*
X0099490Y0091692D01*
X0100489Y0092690D02*
X0117663Y0092690D01*
X0117300Y0093689D02*
X0101487Y0093689D01*
X0102486Y0094687D02*
X0117300Y0094687D01*
X0117300Y0095686D02*
X0103484Y0095686D01*
X0104483Y0096684D02*
X0117300Y0096684D01*
X0118036Y0097683D02*
X0105481Y0097683D01*
X0106480Y0098681D02*
X0119035Y0098681D01*
X0120033Y0099680D02*
X0107478Y0099680D01*
X0108477Y0100678D02*
X0128300Y0100678D01*
X0128300Y0099680D02*
X0123967Y0099680D01*
X0124965Y0098681D02*
X0128300Y0098681D01*
X0128036Y0097683D02*
X0125964Y0097683D01*
X0126700Y0096684D02*
X0127300Y0096684D01*
X0127300Y0095686D02*
X0126700Y0095686D01*
X0126700Y0094687D02*
X0127300Y0094687D01*
X0127300Y0093689D02*
X0126700Y0093689D01*
X0126337Y0092690D02*
X0127663Y0092690D01*
X0128661Y0091692D02*
X0125339Y0091692D01*
X0135247Y0091600D02*
X0136700Y0093053D01*
X0136700Y0096947D01*
X0136097Y0097550D01*
X0137969Y0097550D01*
X0137300Y0095935D01*
X0137300Y0094065D01*
X0137900Y0092617D01*
X0137900Y0091600D01*
X0135247Y0091600D01*
X0135339Y0091692D02*
X0137900Y0091692D01*
X0137869Y0092690D02*
X0136337Y0092690D01*
X0136700Y0093689D02*
X0137456Y0093689D01*
X0137300Y0094687D02*
X0136700Y0094687D01*
X0136700Y0095686D02*
X0137300Y0095686D01*
X0137610Y0096684D02*
X0136700Y0096684D01*
X0128690Y0101677D02*
X0109475Y0101677D01*
X0110474Y0102675D02*
X0129443Y0102675D01*
X0130441Y0103674D02*
X0111472Y0103674D01*
X0112471Y0104672D02*
X0131844Y0104672D01*
X0114468Y0106670D02*
X0256078Y0106670D01*
X0257043Y0107668D02*
X0254066Y0107668D01*
X0255215Y0108667D02*
X0258009Y0108667D01*
X0258974Y0109665D02*
X0256213Y0109665D01*
X0257212Y0110664D02*
X0259939Y0110664D01*
X0260904Y0111662D02*
X0258210Y0111662D01*
X0259209Y0112661D02*
X0261869Y0112661D01*
X0262835Y0113659D02*
X0260207Y0113659D01*
X0261206Y0114658D02*
X0263800Y0114658D01*
X0264765Y0115656D02*
X0262204Y0115656D01*
X0263203Y0116655D02*
X0265730Y0116655D01*
X0266696Y0117653D02*
X0264201Y0117653D01*
X0265200Y0118652D02*
X0267661Y0118652D01*
X0268626Y0119650D02*
X0266198Y0119650D01*
X0267197Y0120649D02*
X0269591Y0120649D01*
X0270556Y0121647D02*
X0268195Y0121647D01*
X0269194Y0122646D02*
X0271522Y0122646D01*
X0272487Y0123644D02*
X0270192Y0123644D01*
X0271191Y0124643D02*
X0273452Y0124643D01*
X0274417Y0125641D02*
X0272189Y0125641D01*
X0273188Y0126640D02*
X0275336Y0126640D01*
X0275810Y0127638D02*
X0274187Y0127638D01*
X0275185Y0128637D02*
X0276808Y0128637D01*
X0276184Y0129635D02*
X0292500Y0129635D01*
X0292500Y0128637D02*
X0282192Y0128637D01*
X0283190Y0127638D02*
X0292500Y0127638D01*
X0292500Y0126640D02*
X0283664Y0126640D01*
X0283975Y0125641D02*
X0292500Y0125641D01*
X0292500Y0124643D02*
X0283975Y0124643D01*
X0283782Y0123644D02*
X0292500Y0123644D01*
X0292500Y0122646D02*
X0283368Y0122646D01*
X0282476Y0121647D02*
X0292500Y0121647D01*
X0292500Y0120649D02*
X0280996Y0120649D01*
X0280031Y0119650D02*
X0288753Y0119650D01*
X0287755Y0118652D02*
X0279066Y0118652D01*
X0278100Y0117653D02*
X0286756Y0117653D01*
X0286050Y0116655D02*
X0277135Y0116655D01*
X0276170Y0115656D02*
X0286050Y0115656D01*
X0286050Y0114658D02*
X0285239Y0114658D01*
X0281261Y0114658D02*
X0275205Y0114658D01*
X0274240Y0113659D02*
X0280262Y0113659D01*
X0279264Y0112661D02*
X0273274Y0112661D01*
X0272309Y0111662D02*
X0278550Y0111662D01*
X0278550Y0110664D02*
X0271344Y0110664D01*
X0270379Y0109665D02*
X0278550Y0109665D01*
X0278550Y0108667D02*
X0269413Y0108667D01*
X0268448Y0107668D02*
X0278935Y0107668D01*
X0279934Y0106670D02*
X0267483Y0106670D01*
X0266518Y0105671D02*
X0280932Y0105671D01*
X0285568Y0105671D02*
X0286050Y0105671D01*
X0286050Y0104672D02*
X0265553Y0104672D01*
X0264587Y0103674D02*
X0286050Y0103674D01*
X0286428Y0102675D02*
X0263622Y0102675D01*
X0262657Y0101677D02*
X0287426Y0101677D01*
X0288425Y0100678D02*
X0261692Y0100678D01*
X0260726Y0099680D02*
X0292500Y0099680D01*
X0292500Y0098681D02*
X0259761Y0098681D01*
X0258796Y0097683D02*
X0292500Y0097683D01*
X0292500Y0096684D02*
X0257831Y0096684D01*
X0256865Y0095686D02*
X0292500Y0095686D01*
X0292500Y0094687D02*
X0255900Y0094687D01*
X0254935Y0093689D02*
X0292500Y0093689D01*
X0292500Y0092690D02*
X0253970Y0092690D01*
X0253005Y0091692D02*
X0292500Y0091692D01*
X0292500Y0090693D02*
X0252039Y0090693D01*
X0251074Y0089695D02*
X0292500Y0089695D01*
X0292500Y0088696D02*
X0250109Y0088696D01*
X0249144Y0087698D02*
X0259679Y0087698D01*
X0257386Y0086699D02*
X0248178Y0086699D01*
X0247213Y0085701D02*
X0256387Y0085701D01*
X0255389Y0084702D02*
X0255217Y0084702D01*
X0248783Y0084702D02*
X0246251Y0084702D01*
X0246216Y0083704D02*
X0247784Y0083704D01*
X0247059Y0082705D02*
X0246941Y0082705D01*
X0246634Y0076714D02*
X0247366Y0076714D01*
X0248365Y0075716D02*
X0245635Y0075716D01*
X0243880Y0074717D02*
X0250120Y0074717D01*
X0253880Y0074717D02*
X0255969Y0074717D01*
X0256968Y0073719D02*
X0215448Y0073719D01*
X0215300Y0074717D02*
X0220120Y0074717D01*
X0218365Y0075716D02*
X0215635Y0075716D01*
X0216634Y0076714D02*
X0217366Y0076714D01*
X0204100Y0085192D02*
X0204100Y0085850D01*
X0199001Y0085850D01*
X0199458Y0085393D01*
X0199594Y0085065D01*
X0200886Y0085600D01*
X0203114Y0085600D01*
X0204100Y0085192D01*
X0204100Y0085701D02*
X0199150Y0085701D01*
X0208906Y0089695D02*
X0219647Y0089695D01*
X0220645Y0090693D02*
X0218090Y0090693D01*
X0219089Y0091692D02*
X0227411Y0091692D01*
X0226413Y0092690D02*
X0220087Y0092690D01*
X0220450Y0093689D02*
X0226050Y0093689D01*
X0226050Y0094687D02*
X0220450Y0094687D01*
X0220450Y0095686D02*
X0226050Y0095686D01*
X0226050Y0096684D02*
X0220450Y0096684D01*
X0219714Y0097683D02*
X0226786Y0097683D01*
X0227785Y0098681D02*
X0219450Y0098681D01*
X0219450Y0099680D02*
X0228783Y0099680D01*
X0232717Y0099680D02*
X0249321Y0099680D01*
X0248356Y0098681D02*
X0233715Y0098681D01*
X0234714Y0097683D02*
X0247391Y0097683D01*
X0246426Y0096684D02*
X0235450Y0096684D01*
X0235450Y0095686D02*
X0245461Y0095686D01*
X0244495Y0094687D02*
X0235450Y0094687D01*
X0235450Y0093689D02*
X0243530Y0093689D01*
X0242565Y0092690D02*
X0235087Y0092690D01*
X0234089Y0091692D02*
X0241600Y0091692D01*
X0237480Y0083400D02*
X0237253Y0083172D01*
X0237000Y0082562D01*
X0236747Y0083172D01*
X0236520Y0083400D01*
X0237480Y0083400D01*
X0237059Y0082705D02*
X0236941Y0082705D01*
X0236634Y0076714D02*
X0237366Y0076714D01*
X0238365Y0075716D02*
X0235635Y0075716D01*
X0233880Y0074717D02*
X0240120Y0074717D01*
X0246023Y0065731D02*
X0292500Y0065731D01*
X0292500Y0064732D02*
X0246437Y0064732D01*
X0246475Y0063734D02*
X0292500Y0063734D01*
X0292500Y0062735D02*
X0246423Y0062735D01*
X0246100Y0061737D02*
X0292500Y0061737D01*
X0292500Y0060738D02*
X0246100Y0060738D01*
X0246100Y0059739D02*
X0292500Y0059739D01*
X0292500Y0058741D02*
X0246100Y0058741D01*
X0246100Y0057742D02*
X0292500Y0057742D01*
X0292500Y0056744D02*
X0246100Y0056744D01*
X0246100Y0055745D02*
X0292500Y0055745D01*
X0292500Y0054747D02*
X0246100Y0054747D01*
X0246100Y0053748D02*
X0292500Y0053748D01*
X0292500Y0052750D02*
X0246100Y0052750D01*
X0246100Y0051751D02*
X0292500Y0051751D01*
X0292500Y0050753D02*
X0246100Y0050753D01*
X0246100Y0049754D02*
X0292500Y0049754D01*
X0292500Y0048756D02*
X0246100Y0048756D01*
X0246100Y0047757D02*
X0292500Y0047757D01*
X0292500Y0046759D02*
X0246100Y0046759D01*
X0245717Y0045760D02*
X0292500Y0045760D01*
X0292500Y0044762D02*
X0245060Y0044762D01*
X0244062Y0043763D02*
X0292500Y0043763D01*
X0292500Y0042765D02*
X0243063Y0042765D01*
X0242065Y0041766D02*
X0292500Y0041766D01*
X0292500Y0040768D02*
X0241066Y0040768D01*
X0240068Y0039769D02*
X0292500Y0039769D01*
X0292500Y0038771D02*
X0239069Y0038771D01*
X0291500Y0013136D02*
X0291500Y0009500D01*
X0301165Y0009500D01*
X0299918Y0010747D01*
X0299230Y0012408D01*
X0299230Y0014206D01*
X0299918Y0015867D01*
X0301190Y0017139D01*
X0302851Y0017827D01*
X0359921Y0017827D01*
X0359921Y0025544D01*
X0358707Y0024843D01*
X0355935Y0024100D01*
X0353065Y0024100D01*
X0350293Y0024843D01*
X0347807Y0026278D01*
X0345778Y0028307D01*
X0344343Y0030793D01*
X0343600Y0033565D01*
X0343600Y0036435D01*
X0344343Y0039207D01*
X0345778Y0041693D01*
X0347807Y0043722D01*
X0350293Y0045157D01*
X0353065Y0045900D01*
X0355935Y0045900D01*
X0358707Y0045157D01*
X0359921Y0044456D01*
X0359921Y0175544D01*
X0358707Y0174843D01*
X0355935Y0174100D01*
X0353065Y0174100D01*
X0350293Y0174843D01*
X0347807Y0176278D01*
X0345778Y0178307D01*
X0344343Y0180793D01*
X0343600Y0183565D01*
X0343600Y0186435D01*
X0344343Y0189207D01*
X0345778Y0191693D01*
X0347807Y0193722D01*
X0350293Y0195157D01*
X0353065Y0195900D01*
X0355935Y0195900D01*
X0358707Y0195157D01*
X0359921Y0194456D01*
X0359921Y0202173D01*
X0302851Y0202173D01*
X0301190Y0202861D01*
X0299918Y0204133D01*
X0299230Y0205794D01*
X0299230Y0207592D01*
X0299918Y0209253D01*
X0301116Y0210451D01*
X0291270Y0210451D01*
X0291500Y0209895D01*
X0291500Y0165864D01*
X0300815Y0156549D01*
X0301500Y0154895D01*
X0301500Y0145298D01*
X0317128Y0160927D01*
X0317128Y0160969D01*
X0317870Y0162760D01*
X0319240Y0164130D01*
X0321031Y0164872D01*
X0322969Y0164872D01*
X0324760Y0164130D01*
X0326130Y0162760D01*
X0326872Y0160969D01*
X0326872Y0159031D01*
X0326130Y0157240D01*
X0324760Y0155870D01*
X0322969Y0155128D01*
X0322927Y0155128D01*
X0301500Y0133702D01*
X0301500Y0073700D01*
X0318810Y0073700D01*
X0319240Y0074130D01*
X0321031Y0074872D01*
X0321639Y0074872D01*
X0332404Y0085637D01*
X0333764Y0086200D01*
X0341717Y0086200D01*
X0343300Y0087783D01*
X0343300Y0146810D01*
X0342870Y0147240D01*
X0342128Y0149031D01*
X0342128Y0150969D01*
X0342870Y0152760D01*
X0344240Y0154130D01*
X0346031Y0154872D01*
X0347969Y0154872D01*
X0349760Y0154130D01*
X0351130Y0152760D01*
X0351872Y0150969D01*
X0351872Y0149031D01*
X0351130Y0147240D01*
X0350700Y0146810D01*
X0350700Y0085514D01*
X0350137Y0084154D01*
X0346387Y0080404D01*
X0345346Y0079363D01*
X0343986Y0078800D01*
X0336033Y0078800D01*
X0332104Y0074872D01*
X0332969Y0074872D01*
X0334760Y0074130D01*
X0336130Y0072760D01*
X0336872Y0070969D01*
X0336872Y0069031D01*
X0336130Y0067240D01*
X0334760Y0065870D01*
X0332969Y0065128D01*
X0331031Y0065128D01*
X0329240Y0065870D01*
X0327870Y0067240D01*
X0327128Y0069031D01*
X0327128Y0069896D01*
X0326872Y0069639D01*
X0326872Y0069031D01*
X0326130Y0067240D01*
X0324760Y0065870D01*
X0322969Y0065128D01*
X0321031Y0065128D01*
X0319240Y0065870D01*
X0318810Y0066300D01*
X0301500Y0066300D01*
X0301500Y0024105D01*
X0300815Y0022451D01*
X0299549Y0021185D01*
X0291500Y0013136D01*
X0291500Y0012809D02*
X0299230Y0012809D01*
X0299230Y0013808D02*
X0292172Y0013808D01*
X0293170Y0014806D02*
X0299479Y0014806D01*
X0299893Y0015805D02*
X0294169Y0015805D01*
X0295167Y0016803D02*
X0300855Y0016803D01*
X0302791Y0017802D02*
X0296166Y0017802D01*
X0297164Y0018801D02*
X0359921Y0018801D01*
X0359921Y0019799D02*
X0298163Y0019799D01*
X0299162Y0020798D02*
X0359921Y0020798D01*
X0359921Y0021796D02*
X0300160Y0021796D01*
X0300957Y0022795D02*
X0359921Y0022795D01*
X0359921Y0023793D02*
X0301371Y0023793D01*
X0301500Y0024792D02*
X0310484Y0024792D01*
X0310293Y0024843D02*
X0313065Y0024100D01*
X0315935Y0024100D01*
X0318707Y0024843D01*
X0321193Y0026278D01*
X0323222Y0028307D01*
X0324657Y0030793D01*
X0325400Y0033565D01*
X0325400Y0036435D01*
X0324657Y0039207D01*
X0323222Y0041693D01*
X0321193Y0043722D01*
X0318707Y0045157D01*
X0315935Y0045900D01*
X0313065Y0045900D01*
X0310293Y0045157D01*
X0307807Y0043722D01*
X0305778Y0041693D01*
X0304343Y0039207D01*
X0303600Y0036435D01*
X0303600Y0033565D01*
X0304343Y0030793D01*
X0305778Y0028307D01*
X0307807Y0026278D01*
X0310293Y0024843D01*
X0308652Y0025790D02*
X0301500Y0025790D01*
X0301500Y0026789D02*
X0307296Y0026789D01*
X0306298Y0027787D02*
X0301500Y0027787D01*
X0301500Y0028786D02*
X0305502Y0028786D01*
X0304925Y0029784D02*
X0301500Y0029784D01*
X0301500Y0030783D02*
X0304349Y0030783D01*
X0304078Y0031781D02*
X0301500Y0031781D01*
X0301500Y0032780D02*
X0303810Y0032780D01*
X0303600Y0033778D02*
X0301500Y0033778D01*
X0301500Y0034777D02*
X0303600Y0034777D01*
X0303600Y0035775D02*
X0301500Y0035775D01*
X0301500Y0036774D02*
X0303691Y0036774D01*
X0303958Y0037772D02*
X0301500Y0037772D01*
X0301500Y0038771D02*
X0304226Y0038771D01*
X0304667Y0039769D02*
X0301500Y0039769D01*
X0301500Y0040768D02*
X0305244Y0040768D01*
X0305851Y0041766D02*
X0301500Y0041766D01*
X0301500Y0042765D02*
X0306850Y0042765D01*
X0307878Y0043763D02*
X0301500Y0043763D01*
X0301500Y0044762D02*
X0309608Y0044762D01*
X0312544Y0045760D02*
X0301500Y0045760D01*
X0301500Y0046759D02*
X0359921Y0046759D01*
X0359921Y0047757D02*
X0301500Y0047757D01*
X0301500Y0048756D02*
X0359921Y0048756D01*
X0359921Y0049754D02*
X0301500Y0049754D01*
X0301500Y0050753D02*
X0359921Y0050753D01*
X0359921Y0051751D02*
X0301500Y0051751D01*
X0301500Y0052750D02*
X0359921Y0052750D01*
X0359921Y0053748D02*
X0301500Y0053748D01*
X0301500Y0054747D02*
X0359921Y0054747D01*
X0359921Y0055745D02*
X0349459Y0055745D01*
X0349760Y0055870D02*
X0351130Y0057240D01*
X0351872Y0059031D01*
X0351872Y0060969D01*
X0351130Y0062760D01*
X0349760Y0064130D01*
X0347969Y0064872D01*
X0346031Y0064872D01*
X0344240Y0064130D01*
X0342870Y0062760D01*
X0342128Y0060969D01*
X0342128Y0059031D01*
X0342870Y0057240D01*
X0344240Y0055870D01*
X0346031Y0055128D01*
X0347969Y0055128D01*
X0349760Y0055870D01*
X0350634Y0056744D02*
X0359921Y0056744D01*
X0359921Y0057742D02*
X0351338Y0057742D01*
X0351752Y0058741D02*
X0359921Y0058741D01*
X0359921Y0059739D02*
X0351872Y0059739D01*
X0351872Y0060738D02*
X0359921Y0060738D01*
X0359921Y0061737D02*
X0351554Y0061737D01*
X0351140Y0062735D02*
X0359921Y0062735D01*
X0359921Y0063734D02*
X0350156Y0063734D01*
X0348306Y0064732D02*
X0359921Y0064732D01*
X0359921Y0065731D02*
X0344423Y0065731D01*
X0344760Y0065870D02*
X0342969Y0065128D01*
X0341031Y0065128D01*
X0339240Y0065870D01*
X0337870Y0067240D01*
X0337128Y0069031D01*
X0337128Y0070969D01*
X0337870Y0072760D01*
X0339240Y0074130D01*
X0341031Y0074872D01*
X0342969Y0074872D01*
X0344760Y0074130D01*
X0346130Y0072760D01*
X0346872Y0070969D01*
X0346872Y0069031D01*
X0346130Y0067240D01*
X0344760Y0065870D01*
X0345619Y0066729D02*
X0359921Y0066729D01*
X0359921Y0067728D02*
X0346332Y0067728D01*
X0346745Y0068726D02*
X0359921Y0068726D01*
X0359921Y0069725D02*
X0346872Y0069725D01*
X0346872Y0070723D02*
X0359921Y0070723D01*
X0359921Y0071722D02*
X0346560Y0071722D01*
X0346146Y0072720D02*
X0359921Y0072720D01*
X0359921Y0073719D02*
X0345171Y0073719D01*
X0343342Y0074717D02*
X0359921Y0074717D01*
X0359921Y0075716D02*
X0332948Y0075716D01*
X0333342Y0074717D02*
X0340658Y0074717D01*
X0338829Y0073719D02*
X0335171Y0073719D01*
X0336146Y0072720D02*
X0337854Y0072720D01*
X0337440Y0071722D02*
X0336560Y0071722D01*
X0336872Y0070723D02*
X0337128Y0070723D01*
X0337128Y0069725D02*
X0336872Y0069725D01*
X0336745Y0068726D02*
X0337255Y0068726D01*
X0337668Y0067728D02*
X0336332Y0067728D01*
X0335619Y0066729D02*
X0338381Y0066729D01*
X0339577Y0065731D02*
X0334423Y0065731D01*
X0334240Y0064130D02*
X0332870Y0062760D01*
X0332128Y0060969D01*
X0332128Y0059031D01*
X0332870Y0057240D01*
X0334240Y0055870D01*
X0336031Y0055128D01*
X0337969Y0055128D01*
X0339760Y0055870D01*
X0341130Y0057240D01*
X0341872Y0059031D01*
X0341872Y0060969D01*
X0341130Y0062760D01*
X0339760Y0064130D01*
X0337969Y0064872D01*
X0336031Y0064872D01*
X0334240Y0064130D01*
X0333844Y0063734D02*
X0330156Y0063734D01*
X0329760Y0064130D02*
X0331130Y0062760D01*
X0331872Y0060969D01*
X0331872Y0059031D01*
X0331130Y0057240D01*
X0329760Y0055870D01*
X0327969Y0055128D01*
X0326031Y0055128D01*
X0324240Y0055870D01*
X0322870Y0057240D01*
X0322128Y0059031D01*
X0322128Y0060969D01*
X0322870Y0062760D01*
X0324240Y0064130D01*
X0326031Y0064872D01*
X0327969Y0064872D01*
X0329760Y0064130D01*
X0328306Y0064732D02*
X0335694Y0064732D01*
X0338306Y0064732D02*
X0345694Y0064732D01*
X0343844Y0063734D02*
X0340156Y0063734D01*
X0341140Y0062735D02*
X0342860Y0062735D01*
X0342446Y0061737D02*
X0341554Y0061737D01*
X0341872Y0060738D02*
X0342128Y0060738D01*
X0342128Y0059739D02*
X0341872Y0059739D01*
X0341752Y0058741D02*
X0342248Y0058741D01*
X0342662Y0057742D02*
X0341338Y0057742D01*
X0340634Y0056744D02*
X0343366Y0056744D01*
X0344541Y0055745D02*
X0339459Y0055745D01*
X0334541Y0055745D02*
X0329459Y0055745D01*
X0330634Y0056744D02*
X0333366Y0056744D01*
X0332662Y0057742D02*
X0331338Y0057742D01*
X0331752Y0058741D02*
X0332248Y0058741D01*
X0332128Y0059739D02*
X0331872Y0059739D01*
X0331872Y0060738D02*
X0332128Y0060738D01*
X0332446Y0061737D02*
X0331554Y0061737D01*
X0331140Y0062735D02*
X0332860Y0062735D01*
X0329577Y0065731D02*
X0324423Y0065731D01*
X0325619Y0066729D02*
X0328381Y0066729D01*
X0327668Y0067728D02*
X0326332Y0067728D01*
X0326745Y0068726D02*
X0327255Y0068726D01*
X0327128Y0069725D02*
X0326957Y0069725D01*
X0322483Y0075716D02*
X0301500Y0075716D01*
X0301500Y0076714D02*
X0323482Y0076714D01*
X0324480Y0077713D02*
X0301500Y0077713D01*
X0301500Y0078711D02*
X0325479Y0078711D01*
X0326477Y0079710D02*
X0301500Y0079710D01*
X0301500Y0080708D02*
X0327476Y0080708D01*
X0328474Y0081707D02*
X0301500Y0081707D01*
X0301500Y0082705D02*
X0329473Y0082705D01*
X0330471Y0083704D02*
X0301500Y0083704D01*
X0301500Y0084702D02*
X0331470Y0084702D01*
X0332559Y0085701D02*
X0301500Y0085701D01*
X0301500Y0086699D02*
X0342217Y0086699D01*
X0343215Y0087698D02*
X0301500Y0087698D01*
X0301500Y0088696D02*
X0343300Y0088696D01*
X0343300Y0089695D02*
X0301500Y0089695D01*
X0301500Y0090693D02*
X0343300Y0090693D01*
X0343300Y0091692D02*
X0301500Y0091692D01*
X0301500Y0092690D02*
X0343300Y0092690D01*
X0343300Y0093689D02*
X0301500Y0093689D01*
X0301500Y0094687D02*
X0343300Y0094687D01*
X0343300Y0095686D02*
X0301500Y0095686D01*
X0301500Y0096684D02*
X0343300Y0096684D01*
X0343300Y0097683D02*
X0301500Y0097683D01*
X0301500Y0098681D02*
X0343300Y0098681D01*
X0343300Y0099680D02*
X0301500Y0099680D01*
X0301500Y0100678D02*
X0343300Y0100678D01*
X0343300Y0101677D02*
X0301500Y0101677D01*
X0301500Y0102675D02*
X0343300Y0102675D01*
X0343300Y0103674D02*
X0301500Y0103674D01*
X0301500Y0104672D02*
X0343300Y0104672D01*
X0343300Y0105671D02*
X0301500Y0105671D01*
X0301500Y0106670D02*
X0343300Y0106670D01*
X0343300Y0107668D02*
X0301500Y0107668D01*
X0301500Y0108667D02*
X0343300Y0108667D01*
X0343300Y0109665D02*
X0301500Y0109665D01*
X0301500Y0110664D02*
X0343300Y0110664D01*
X0343300Y0111662D02*
X0301500Y0111662D01*
X0301500Y0112661D02*
X0343300Y0112661D01*
X0343300Y0113659D02*
X0301500Y0113659D01*
X0301500Y0114658D02*
X0343300Y0114658D01*
X0343300Y0115656D02*
X0301500Y0115656D01*
X0301500Y0116655D02*
X0343300Y0116655D01*
X0343300Y0117653D02*
X0301500Y0117653D01*
X0301500Y0118652D02*
X0343300Y0118652D01*
X0343300Y0119650D02*
X0301500Y0119650D01*
X0301500Y0120649D02*
X0343300Y0120649D01*
X0343300Y0121647D02*
X0301500Y0121647D01*
X0301500Y0122646D02*
X0343300Y0122646D01*
X0343300Y0123644D02*
X0301500Y0123644D01*
X0301500Y0124643D02*
X0343300Y0124643D01*
X0343300Y0125641D02*
X0301500Y0125641D01*
X0301500Y0126640D02*
X0343300Y0126640D01*
X0343300Y0127638D02*
X0301500Y0127638D01*
X0301500Y0128637D02*
X0343300Y0128637D01*
X0343300Y0129635D02*
X0301500Y0129635D01*
X0301500Y0130634D02*
X0343300Y0130634D01*
X0343300Y0131632D02*
X0301500Y0131632D01*
X0301500Y0132631D02*
X0343300Y0132631D01*
X0343300Y0133629D02*
X0301500Y0133629D01*
X0302426Y0134628D02*
X0343300Y0134628D01*
X0343300Y0135626D02*
X0303425Y0135626D01*
X0304423Y0136625D02*
X0343300Y0136625D01*
X0343300Y0137623D02*
X0305422Y0137623D01*
X0306420Y0138622D02*
X0343300Y0138622D01*
X0343300Y0139620D02*
X0307419Y0139620D01*
X0308417Y0140619D02*
X0343300Y0140619D01*
X0343300Y0141617D02*
X0309416Y0141617D01*
X0310414Y0142616D02*
X0343300Y0142616D01*
X0343300Y0143614D02*
X0311413Y0143614D01*
X0312411Y0144613D02*
X0343300Y0144613D01*
X0343300Y0145611D02*
X0339135Y0145611D01*
X0339760Y0145870D02*
X0341130Y0147240D01*
X0341872Y0149031D01*
X0341872Y0150969D01*
X0341130Y0152760D01*
X0339760Y0154130D01*
X0337969Y0154872D01*
X0336031Y0154872D01*
X0334240Y0154130D01*
X0332870Y0152760D01*
X0332128Y0150969D01*
X0332128Y0149031D01*
X0332870Y0147240D01*
X0334240Y0145870D01*
X0336031Y0145128D01*
X0337969Y0145128D01*
X0339760Y0145870D01*
X0340500Y0146610D02*
X0343300Y0146610D01*
X0342718Y0147608D02*
X0341282Y0147608D01*
X0341696Y0148607D02*
X0342304Y0148607D01*
X0342128Y0149605D02*
X0341872Y0149605D01*
X0341872Y0150604D02*
X0342128Y0150604D01*
X0342391Y0151603D02*
X0341609Y0151603D01*
X0341196Y0152601D02*
X0342804Y0152601D01*
X0343710Y0153600D02*
X0340290Y0153600D01*
X0341031Y0155128D02*
X0339240Y0155870D01*
X0337870Y0157240D01*
X0337128Y0159031D01*
X0337128Y0160969D01*
X0337870Y0162760D01*
X0339240Y0164130D01*
X0341031Y0164872D01*
X0342969Y0164872D01*
X0344760Y0164130D01*
X0346130Y0162760D01*
X0346872Y0160969D01*
X0346872Y0159031D01*
X0346130Y0157240D01*
X0344760Y0155870D01*
X0342969Y0155128D01*
X0341031Y0155128D01*
X0339901Y0155597D02*
X0334099Y0155597D01*
X0334760Y0155870D02*
X0336130Y0157240D01*
X0336872Y0159031D01*
X0336872Y0160969D01*
X0336130Y0162760D01*
X0334760Y0164130D01*
X0332969Y0164872D01*
X0331031Y0164872D01*
X0329240Y0164130D01*
X0327870Y0162760D01*
X0327128Y0160969D01*
X0327128Y0159031D01*
X0327870Y0157240D01*
X0329240Y0155870D01*
X0331031Y0155128D01*
X0332969Y0155128D01*
X0334760Y0155870D01*
X0335485Y0156595D02*
X0338515Y0156595D01*
X0337724Y0157594D02*
X0336276Y0157594D01*
X0336690Y0158592D02*
X0337310Y0158592D01*
X0337128Y0159591D02*
X0336872Y0159591D01*
X0336872Y0160589D02*
X0337128Y0160589D01*
X0337385Y0161588D02*
X0336615Y0161588D01*
X0336202Y0162586D02*
X0337798Y0162586D01*
X0338695Y0163585D02*
X0335305Y0163585D01*
X0333665Y0164583D02*
X0340335Y0164583D01*
X0343665Y0164583D02*
X0359921Y0164583D01*
X0359921Y0163585D02*
X0345305Y0163585D01*
X0346202Y0162586D02*
X0359921Y0162586D01*
X0359921Y0161588D02*
X0346615Y0161588D01*
X0346872Y0160589D02*
X0359921Y0160589D01*
X0359921Y0159591D02*
X0346872Y0159591D01*
X0346690Y0158592D02*
X0359921Y0158592D01*
X0359921Y0157594D02*
X0346276Y0157594D01*
X0345485Y0156595D02*
X0359921Y0156595D01*
X0359921Y0155597D02*
X0344099Y0155597D01*
X0345370Y0154598D02*
X0338630Y0154598D01*
X0335370Y0154598D02*
X0328630Y0154598D01*
X0327969Y0154872D02*
X0326031Y0154872D01*
X0324240Y0154130D01*
X0322870Y0152760D01*
X0322128Y0150969D01*
X0322128Y0149031D01*
X0322870Y0147240D01*
X0324240Y0145870D01*
X0326031Y0145128D01*
X0327969Y0145128D01*
X0329760Y0145870D01*
X0331130Y0147240D01*
X0331872Y0149031D01*
X0331872Y0150969D01*
X0331130Y0152760D01*
X0329760Y0154130D01*
X0327969Y0154872D01*
X0328515Y0156595D02*
X0325485Y0156595D01*
X0326276Y0157594D02*
X0327724Y0157594D01*
X0327310Y0158592D02*
X0326690Y0158592D01*
X0326872Y0159591D02*
X0327128Y0159591D01*
X0327128Y0160589D02*
X0326872Y0160589D01*
X0326615Y0161588D02*
X0327385Y0161588D01*
X0327798Y0162586D02*
X0326202Y0162586D01*
X0325305Y0163585D02*
X0328695Y0163585D01*
X0330335Y0164583D02*
X0323665Y0164583D01*
X0320335Y0164583D02*
X0292781Y0164583D01*
X0293779Y0163585D02*
X0318695Y0163585D01*
X0317798Y0162586D02*
X0294778Y0162586D01*
X0295776Y0161588D02*
X0317385Y0161588D01*
X0316791Y0160589D02*
X0296775Y0160589D01*
X0297773Y0159591D02*
X0315792Y0159591D01*
X0314794Y0158592D02*
X0298772Y0158592D01*
X0299770Y0157594D02*
X0313795Y0157594D01*
X0312797Y0156595D02*
X0300769Y0156595D01*
X0301209Y0155597D02*
X0311798Y0155597D01*
X0310800Y0154598D02*
X0301500Y0154598D01*
X0301500Y0153600D02*
X0309801Y0153600D01*
X0308803Y0152601D02*
X0301500Y0152601D01*
X0301500Y0151603D02*
X0307804Y0151603D01*
X0306806Y0150604D02*
X0301500Y0150604D01*
X0301500Y0149605D02*
X0305807Y0149605D01*
X0304809Y0148607D02*
X0301500Y0148607D01*
X0301500Y0147608D02*
X0303810Y0147608D01*
X0302812Y0146610D02*
X0301500Y0146610D01*
X0301500Y0145611D02*
X0301813Y0145611D01*
X0313410Y0145611D02*
X0324865Y0145611D01*
X0323500Y0146610D02*
X0314408Y0146610D01*
X0315407Y0147608D02*
X0322718Y0147608D01*
X0322304Y0148607D02*
X0316405Y0148607D01*
X0317404Y0149605D02*
X0322128Y0149605D01*
X0322128Y0150604D02*
X0318402Y0150604D01*
X0319401Y0151603D02*
X0322391Y0151603D01*
X0322804Y0152601D02*
X0320399Y0152601D01*
X0321398Y0153600D02*
X0323710Y0153600D01*
X0322396Y0154598D02*
X0325370Y0154598D01*
X0324099Y0155597D02*
X0329901Y0155597D01*
X0330290Y0153600D02*
X0333710Y0153600D01*
X0332804Y0152601D02*
X0331196Y0152601D01*
X0331609Y0151603D02*
X0332391Y0151603D01*
X0332128Y0150604D02*
X0331872Y0150604D01*
X0331872Y0149605D02*
X0332128Y0149605D01*
X0332304Y0148607D02*
X0331696Y0148607D01*
X0331282Y0147608D02*
X0332718Y0147608D01*
X0333500Y0146610D02*
X0330500Y0146610D01*
X0329135Y0145611D02*
X0334865Y0145611D01*
X0350700Y0145611D02*
X0359921Y0145611D01*
X0359921Y0144613D02*
X0350700Y0144613D01*
X0350700Y0143614D02*
X0359921Y0143614D01*
X0359921Y0142616D02*
X0350700Y0142616D01*
X0350700Y0141617D02*
X0359921Y0141617D01*
X0359921Y0140619D02*
X0350700Y0140619D01*
X0350700Y0139620D02*
X0359921Y0139620D01*
X0359921Y0138622D02*
X0350700Y0138622D01*
X0350700Y0137623D02*
X0359921Y0137623D01*
X0359921Y0136625D02*
X0350700Y0136625D01*
X0350700Y0135626D02*
X0359921Y0135626D01*
X0359921Y0134628D02*
X0350700Y0134628D01*
X0350700Y0133629D02*
X0359921Y0133629D01*
X0359921Y0132631D02*
X0350700Y0132631D01*
X0350700Y0131632D02*
X0359921Y0131632D01*
X0359921Y0130634D02*
X0350700Y0130634D01*
X0350700Y0129635D02*
X0359921Y0129635D01*
X0359921Y0128637D02*
X0350700Y0128637D01*
X0350700Y0127638D02*
X0359921Y0127638D01*
X0359921Y0126640D02*
X0350700Y0126640D01*
X0350700Y0125641D02*
X0359921Y0125641D01*
X0359921Y0124643D02*
X0350700Y0124643D01*
X0350700Y0123644D02*
X0359921Y0123644D01*
X0359921Y0122646D02*
X0350700Y0122646D01*
X0350700Y0121647D02*
X0359921Y0121647D01*
X0359921Y0120649D02*
X0350700Y0120649D01*
X0350700Y0119650D02*
X0359921Y0119650D01*
X0359921Y0118652D02*
X0350700Y0118652D01*
X0350700Y0117653D02*
X0359921Y0117653D01*
X0359921Y0116655D02*
X0350700Y0116655D01*
X0350700Y0115656D02*
X0359921Y0115656D01*
X0359921Y0114658D02*
X0350700Y0114658D01*
X0350700Y0113659D02*
X0359921Y0113659D01*
X0359921Y0112661D02*
X0350700Y0112661D01*
X0350700Y0111662D02*
X0359921Y0111662D01*
X0359921Y0110664D02*
X0350700Y0110664D01*
X0350700Y0109665D02*
X0359921Y0109665D01*
X0359921Y0108667D02*
X0350700Y0108667D01*
X0350700Y0107668D02*
X0359921Y0107668D01*
X0359921Y0106670D02*
X0350700Y0106670D01*
X0350700Y0105671D02*
X0359921Y0105671D01*
X0359921Y0104672D02*
X0350700Y0104672D01*
X0350700Y0103674D02*
X0359921Y0103674D01*
X0359921Y0102675D02*
X0350700Y0102675D01*
X0350700Y0101677D02*
X0359921Y0101677D01*
X0359921Y0100678D02*
X0350700Y0100678D01*
X0350700Y0099680D02*
X0359921Y0099680D01*
X0359921Y0098681D02*
X0350700Y0098681D01*
X0350700Y0097683D02*
X0359921Y0097683D01*
X0359921Y0096684D02*
X0350700Y0096684D01*
X0350700Y0095686D02*
X0359921Y0095686D01*
X0359921Y0094687D02*
X0350700Y0094687D01*
X0350700Y0093689D02*
X0359921Y0093689D01*
X0359921Y0092690D02*
X0350700Y0092690D01*
X0350700Y0091692D02*
X0359921Y0091692D01*
X0359921Y0090693D02*
X0350700Y0090693D01*
X0350700Y0089695D02*
X0359921Y0089695D01*
X0359921Y0088696D02*
X0350700Y0088696D01*
X0350700Y0087698D02*
X0359921Y0087698D01*
X0359921Y0086699D02*
X0350700Y0086699D01*
X0350700Y0085701D02*
X0359921Y0085701D01*
X0359921Y0084702D02*
X0350364Y0084702D01*
X0349686Y0083704D02*
X0359921Y0083704D01*
X0359921Y0082705D02*
X0348688Y0082705D01*
X0347689Y0081707D02*
X0359921Y0081707D01*
X0359921Y0080708D02*
X0346691Y0080708D01*
X0345692Y0079710D02*
X0359921Y0079710D01*
X0359921Y0078711D02*
X0335944Y0078711D01*
X0334945Y0077713D02*
X0359921Y0077713D01*
X0359921Y0076714D02*
X0333947Y0076714D01*
X0320658Y0074717D02*
X0301500Y0074717D01*
X0301500Y0073719D02*
X0318829Y0073719D01*
X0319577Y0065731D02*
X0301500Y0065731D01*
X0301500Y0064732D02*
X0325694Y0064732D01*
X0323844Y0063734D02*
X0301500Y0063734D01*
X0301500Y0062735D02*
X0322860Y0062735D01*
X0322446Y0061737D02*
X0301500Y0061737D01*
X0301500Y0060738D02*
X0322128Y0060738D01*
X0322128Y0059739D02*
X0301500Y0059739D01*
X0301500Y0058741D02*
X0322248Y0058741D01*
X0322662Y0057742D02*
X0301500Y0057742D01*
X0301500Y0056744D02*
X0323366Y0056744D01*
X0324541Y0055745D02*
X0301500Y0055745D01*
X0316456Y0045760D02*
X0352544Y0045760D01*
X0349608Y0044762D02*
X0319392Y0044762D01*
X0321122Y0043763D02*
X0347878Y0043763D01*
X0346850Y0042765D02*
X0322150Y0042765D01*
X0323149Y0041766D02*
X0345851Y0041766D01*
X0345244Y0040768D02*
X0323756Y0040768D01*
X0324333Y0039769D02*
X0344667Y0039769D01*
X0344226Y0038771D02*
X0324774Y0038771D01*
X0325042Y0037772D02*
X0343958Y0037772D01*
X0343691Y0036774D02*
X0325309Y0036774D01*
X0325400Y0035775D02*
X0343600Y0035775D01*
X0343600Y0034777D02*
X0325400Y0034777D01*
X0325400Y0033778D02*
X0343600Y0033778D01*
X0343810Y0032780D02*
X0325190Y0032780D01*
X0324922Y0031781D02*
X0344078Y0031781D01*
X0344349Y0030783D02*
X0324651Y0030783D01*
X0324075Y0029784D02*
X0344925Y0029784D01*
X0345502Y0028786D02*
X0323498Y0028786D01*
X0322702Y0027787D02*
X0346298Y0027787D01*
X0347296Y0026789D02*
X0321704Y0026789D01*
X0320348Y0025790D02*
X0348652Y0025790D01*
X0350484Y0024792D02*
X0318516Y0024792D01*
X0299478Y0011811D02*
X0291500Y0011811D01*
X0291500Y0010812D02*
X0299891Y0010812D01*
X0300851Y0009814D02*
X0291500Y0009814D01*
X0358516Y0024792D02*
X0359921Y0024792D01*
X0359921Y0044762D02*
X0359392Y0044762D01*
X0359921Y0045760D02*
X0356456Y0045760D01*
X0292500Y0073719D02*
X0267032Y0073719D01*
X0268031Y0074717D02*
X0292500Y0074717D01*
X0292500Y0075716D02*
X0268884Y0075716D01*
X0269298Y0076714D02*
X0292500Y0076714D01*
X0292500Y0077713D02*
X0269712Y0077713D01*
X0270000Y0078711D02*
X0292500Y0078711D01*
X0292500Y0079710D02*
X0270000Y0079710D01*
X0270000Y0080708D02*
X0292500Y0080708D01*
X0292500Y0081707D02*
X0269952Y0081707D01*
X0269539Y0082705D02*
X0292500Y0082705D01*
X0292500Y0083704D02*
X0269125Y0083704D01*
X0268611Y0084702D02*
X0292500Y0084702D01*
X0292500Y0085701D02*
X0267613Y0085701D01*
X0266614Y0086699D02*
X0292500Y0086699D01*
X0292500Y0087698D02*
X0264321Y0087698D01*
X0250287Y0100678D02*
X0219450Y0100678D01*
X0219060Y0101677D02*
X0251252Y0101677D01*
X0252217Y0102675D02*
X0218307Y0102675D01*
X0217309Y0103674D02*
X0253182Y0103674D01*
X0254148Y0104672D02*
X0215906Y0104672D01*
X0184705Y0120649D02*
X0173777Y0120649D01*
X0172935Y0120300D02*
X0174662Y0121016D01*
X0175984Y0122338D01*
X0176700Y0124065D01*
X0176700Y0125935D01*
X0175984Y0127662D01*
X0174662Y0128984D01*
X0172935Y0129700D01*
X0171065Y0129700D01*
X0169338Y0128984D01*
X0168016Y0127662D01*
X0167300Y0125935D01*
X0167300Y0124065D01*
X0168016Y0122338D01*
X0169338Y0121016D01*
X0171065Y0120300D01*
X0172935Y0120300D01*
X0175294Y0121647D02*
X0183706Y0121647D01*
X0182708Y0122646D02*
X0176112Y0122646D01*
X0176526Y0123644D02*
X0182300Y0123644D01*
X0182300Y0124643D02*
X0176700Y0124643D01*
X0176700Y0125641D02*
X0182300Y0125641D01*
X0182300Y0126640D02*
X0176408Y0126640D01*
X0175994Y0127638D02*
X0182991Y0127638D01*
X0183990Y0128637D02*
X0175010Y0128637D01*
X0173091Y0129635D02*
X0184988Y0129635D01*
X0170909Y0129635D02*
X0163091Y0129635D01*
X0162935Y0129700D02*
X0161065Y0129700D01*
X0159338Y0128984D01*
X0158016Y0127662D01*
X0157300Y0125935D01*
X0157300Y0124065D01*
X0158016Y0122338D01*
X0159338Y0121016D01*
X0161065Y0120300D01*
X0162935Y0120300D01*
X0164662Y0121016D01*
X0165984Y0122338D01*
X0166700Y0124065D01*
X0166700Y0125935D01*
X0165984Y0127662D01*
X0164662Y0128984D01*
X0162935Y0129700D01*
X0160909Y0129635D02*
X0153091Y0129635D01*
X0152935Y0129700D02*
X0151065Y0129700D01*
X0149338Y0128984D01*
X0148016Y0127662D01*
X0147300Y0125935D01*
X0147300Y0124065D01*
X0148016Y0122338D01*
X0149338Y0121016D01*
X0151065Y0120300D01*
X0152935Y0120300D01*
X0154662Y0121016D01*
X0155984Y0122338D01*
X0156700Y0124065D01*
X0156700Y0125935D01*
X0155984Y0127662D01*
X0154662Y0128984D01*
X0152935Y0129700D01*
X0150909Y0129635D02*
X0143091Y0129635D01*
X0142935Y0129700D02*
X0144662Y0128984D01*
X0145984Y0127662D01*
X0146700Y0125935D01*
X0146700Y0124065D01*
X0145984Y0122338D01*
X0144662Y0121016D01*
X0142935Y0120300D01*
X0141065Y0120300D01*
X0139338Y0121016D01*
X0138016Y0122338D01*
X0137300Y0124065D01*
X0137300Y0125935D01*
X0138016Y0127662D01*
X0139338Y0128984D01*
X0141065Y0129700D01*
X0142935Y0129700D01*
X0140909Y0129635D02*
X0134012Y0129635D01*
X0135010Y0128637D02*
X0138990Y0128637D01*
X0138006Y0127638D02*
X0136009Y0127638D01*
X0136700Y0126640D02*
X0137592Y0126640D01*
X0137300Y0125641D02*
X0136700Y0125641D01*
X0136700Y0124643D02*
X0137300Y0124643D01*
X0137474Y0123644D02*
X0136700Y0123644D01*
X0136292Y0122646D02*
X0137888Y0122646D01*
X0138706Y0121647D02*
X0135294Y0121647D01*
X0134295Y0120649D02*
X0140223Y0120649D01*
X0143777Y0120649D02*
X0150223Y0120649D01*
X0148706Y0121647D02*
X0145294Y0121647D01*
X0146112Y0122646D02*
X0147888Y0122646D01*
X0147474Y0123644D02*
X0146526Y0123644D01*
X0146700Y0124643D02*
X0147300Y0124643D01*
X0147300Y0125641D02*
X0146700Y0125641D01*
X0146408Y0126640D02*
X0147592Y0126640D01*
X0148006Y0127638D02*
X0145994Y0127638D01*
X0145010Y0128637D02*
X0148990Y0128637D01*
X0155010Y0128637D02*
X0158990Y0128637D01*
X0158006Y0127638D02*
X0155994Y0127638D01*
X0156408Y0126640D02*
X0157592Y0126640D01*
X0157300Y0125641D02*
X0156700Y0125641D01*
X0156700Y0124643D02*
X0157300Y0124643D01*
X0157474Y0123644D02*
X0156526Y0123644D01*
X0156112Y0122646D02*
X0157888Y0122646D01*
X0158706Y0121647D02*
X0155294Y0121647D01*
X0153777Y0120649D02*
X0160223Y0120649D01*
X0163777Y0120649D02*
X0170223Y0120649D01*
X0168706Y0121647D02*
X0165294Y0121647D01*
X0166112Y0122646D02*
X0167888Y0122646D01*
X0167474Y0123644D02*
X0166526Y0123644D01*
X0166700Y0124643D02*
X0167300Y0124643D01*
X0167300Y0125641D02*
X0166700Y0125641D01*
X0166408Y0126640D02*
X0167592Y0126640D01*
X0168006Y0127638D02*
X0165994Y0127638D01*
X0165010Y0128637D02*
X0168990Y0128637D01*
X0167163Y0157850D02*
X0166837Y0157850D01*
X0167000Y0158244D01*
X0167163Y0157850D01*
X0176837Y0157850D02*
X0177000Y0158244D01*
X0177163Y0157850D01*
X0176837Y0157850D01*
X0186837Y0157850D02*
X0187000Y0158244D01*
X0187163Y0157850D01*
X0186837Y0157850D01*
X0196837Y0157850D02*
X0197000Y0158244D01*
X0197163Y0157850D01*
X0196837Y0157850D01*
X0206837Y0157850D02*
X0207000Y0158244D01*
X0207163Y0157850D01*
X0206837Y0157850D01*
X0216837Y0157850D02*
X0217000Y0158244D01*
X0217163Y0157850D01*
X0216837Y0157850D01*
X0241100Y0169576D02*
X0282500Y0169576D01*
X0282500Y0170574D02*
X0241100Y0170574D01*
X0241100Y0171573D02*
X0282500Y0171573D01*
X0282500Y0172571D02*
X0241100Y0172571D01*
X0241100Y0173570D02*
X0282500Y0173570D01*
X0282500Y0174568D02*
X0241099Y0174568D01*
X0240685Y0175567D02*
X0282500Y0175567D01*
X0282500Y0176565D02*
X0239983Y0176565D01*
X0238984Y0177564D02*
X0282500Y0177564D01*
X0282500Y0178562D02*
X0237986Y0178562D01*
X0236987Y0179561D02*
X0282500Y0179561D01*
X0282500Y0180559D02*
X0235989Y0180559D01*
X0234990Y0181558D02*
X0282500Y0181558D01*
X0282500Y0182556D02*
X0233992Y0182556D01*
X0232882Y0183555D02*
X0282500Y0183555D01*
X0282500Y0184553D02*
X0211100Y0184553D01*
X0211100Y0185552D02*
X0282500Y0185552D01*
X0282500Y0186550D02*
X0211100Y0186550D01*
X0211100Y0187549D02*
X0282500Y0187549D01*
X0282500Y0188547D02*
X0211100Y0188547D01*
X0211100Y0189546D02*
X0282500Y0189546D01*
X0282500Y0190544D02*
X0211100Y0190544D01*
X0211100Y0191543D02*
X0282500Y0191543D01*
X0282500Y0192541D02*
X0211100Y0192541D01*
X0211100Y0193540D02*
X0282500Y0193540D01*
X0282500Y0194539D02*
X0211100Y0194539D01*
X0211100Y0195537D02*
X0282500Y0195537D01*
X0282500Y0196536D02*
X0211100Y0196536D01*
X0211100Y0197534D02*
X0282500Y0197534D01*
X0282500Y0198533D02*
X0211100Y0198533D01*
X0211100Y0199531D02*
X0282500Y0199531D01*
X0282500Y0200530D02*
X0280166Y0200530D01*
X0281165Y0201528D02*
X0282500Y0201528D01*
X0282500Y0202527D02*
X0282163Y0202527D01*
X0282400Y0203525D02*
X0282500Y0203525D01*
X0282500Y0204524D02*
X0282400Y0204524D01*
X0282400Y0205522D02*
X0282500Y0205522D01*
X0282500Y0206521D02*
X0282400Y0206521D01*
X0291500Y0206521D02*
X0299230Y0206521D01*
X0299230Y0207519D02*
X0291500Y0207519D01*
X0291500Y0208518D02*
X0299614Y0208518D01*
X0300181Y0209516D02*
X0291500Y0209516D01*
X0291500Y0205522D02*
X0299343Y0205522D01*
X0299756Y0204524D02*
X0291500Y0204524D01*
X0291500Y0203525D02*
X0300526Y0203525D01*
X0301998Y0202527D02*
X0291500Y0202527D01*
X0291500Y0201528D02*
X0359921Y0201528D01*
X0359921Y0200530D02*
X0291500Y0200530D01*
X0291500Y0199531D02*
X0359921Y0199531D01*
X0359921Y0198533D02*
X0291500Y0198533D01*
X0291500Y0197534D02*
X0359921Y0197534D01*
X0359921Y0196536D02*
X0291500Y0196536D01*
X0291500Y0195537D02*
X0311710Y0195537D01*
X0313065Y0195900D02*
X0310293Y0195157D01*
X0307807Y0193722D01*
X0305778Y0191693D01*
X0304343Y0189207D01*
X0303600Y0186435D01*
X0303600Y0183565D01*
X0304343Y0180793D01*
X0305778Y0178307D01*
X0307807Y0176278D01*
X0310293Y0174843D01*
X0313065Y0174100D01*
X0315935Y0174100D01*
X0318707Y0174843D01*
X0321193Y0176278D01*
X0323222Y0178307D01*
X0324657Y0180793D01*
X0325400Y0183565D01*
X0325400Y0186435D01*
X0324657Y0189207D01*
X0323222Y0191693D01*
X0321193Y0193722D01*
X0318707Y0195157D01*
X0315935Y0195900D01*
X0313065Y0195900D01*
X0309221Y0194539D02*
X0291500Y0194539D01*
X0291500Y0193540D02*
X0307625Y0193540D01*
X0306627Y0192541D02*
X0291500Y0192541D01*
X0291500Y0191543D02*
X0305691Y0191543D01*
X0305115Y0190544D02*
X0291500Y0190544D01*
X0291500Y0189546D02*
X0304538Y0189546D01*
X0304166Y0188547D02*
X0291500Y0188547D01*
X0291500Y0187549D02*
X0303898Y0187549D01*
X0303631Y0186550D02*
X0291500Y0186550D01*
X0291500Y0185552D02*
X0303600Y0185552D01*
X0303600Y0184553D02*
X0291500Y0184553D01*
X0291500Y0183555D02*
X0303603Y0183555D01*
X0303870Y0182556D02*
X0291500Y0182556D01*
X0291500Y0181558D02*
X0304138Y0181558D01*
X0304478Y0180559D02*
X0291500Y0180559D01*
X0291500Y0179561D02*
X0305054Y0179561D01*
X0305631Y0178562D02*
X0291500Y0178562D01*
X0291500Y0177564D02*
X0306521Y0177564D01*
X0307520Y0176565D02*
X0291500Y0176565D01*
X0291500Y0175567D02*
X0309039Y0175567D01*
X0311317Y0174568D02*
X0291500Y0174568D01*
X0291500Y0173570D02*
X0359921Y0173570D01*
X0359921Y0174568D02*
X0357683Y0174568D01*
X0359921Y0172571D02*
X0291500Y0172571D01*
X0291500Y0171573D02*
X0359921Y0171573D01*
X0359921Y0170574D02*
X0291500Y0170574D01*
X0291500Y0169576D02*
X0359921Y0169576D01*
X0359921Y0168577D02*
X0291500Y0168577D01*
X0291500Y0167579D02*
X0359921Y0167579D01*
X0359921Y0166580D02*
X0291500Y0166580D01*
X0291782Y0165582D02*
X0359921Y0165582D01*
X0351317Y0174568D02*
X0317683Y0174568D01*
X0319961Y0175567D02*
X0349039Y0175567D01*
X0347520Y0176565D02*
X0321480Y0176565D01*
X0322479Y0177564D02*
X0346521Y0177564D01*
X0345631Y0178562D02*
X0323369Y0178562D01*
X0323946Y0179561D02*
X0345054Y0179561D01*
X0344478Y0180559D02*
X0324522Y0180559D01*
X0324862Y0181558D02*
X0344138Y0181558D01*
X0343870Y0182556D02*
X0325130Y0182556D01*
X0325397Y0183555D02*
X0343603Y0183555D01*
X0343600Y0184553D02*
X0325400Y0184553D01*
X0325400Y0185552D02*
X0343600Y0185552D01*
X0343631Y0186550D02*
X0325369Y0186550D01*
X0325102Y0187549D02*
X0343898Y0187549D01*
X0344166Y0188547D02*
X0324834Y0188547D01*
X0324462Y0189546D02*
X0344538Y0189546D01*
X0345115Y0190544D02*
X0323885Y0190544D01*
X0323309Y0191543D02*
X0345691Y0191543D01*
X0346627Y0192541D02*
X0322373Y0192541D01*
X0321375Y0193540D02*
X0347625Y0193540D01*
X0349221Y0194539D02*
X0319779Y0194539D01*
X0317290Y0195537D02*
X0351710Y0195537D01*
X0357290Y0195537D02*
X0359921Y0195537D01*
X0359921Y0194539D02*
X0359779Y0194539D01*
X0359921Y0154598D02*
X0348630Y0154598D01*
X0350290Y0153600D02*
X0359921Y0153600D01*
X0359921Y0152601D02*
X0351196Y0152601D01*
X0351609Y0151603D02*
X0359921Y0151603D01*
X0359921Y0150604D02*
X0351872Y0150604D01*
X0351872Y0149605D02*
X0359921Y0149605D01*
X0359921Y0148607D02*
X0351696Y0148607D01*
X0351282Y0147608D02*
X0359921Y0147608D01*
X0359921Y0146610D02*
X0350700Y0146610D01*
X0292500Y0130634D02*
X0277182Y0130634D01*
X0272575Y0137623D02*
X0272350Y0137623D01*
X0272350Y0138622D02*
X0273780Y0138622D01*
X0272350Y0139620D02*
X0277636Y0139620D01*
X0277060Y0140619D02*
X0272350Y0140619D01*
X0272350Y0141617D02*
X0276726Y0141617D01*
X0276459Y0142616D02*
X0272350Y0142616D01*
X0272350Y0143614D02*
X0276201Y0143614D01*
X0276201Y0144613D02*
X0272350Y0144613D01*
X0272350Y0145611D02*
X0276201Y0145611D01*
X0276251Y0146610D02*
X0272350Y0146610D01*
X0272125Y0147608D02*
X0276519Y0147608D01*
X0276786Y0148607D02*
X0271691Y0148607D01*
X0270693Y0149605D02*
X0277189Y0149605D01*
X0277766Y0150604D02*
X0269694Y0150604D01*
X0268696Y0151603D02*
X0278342Y0151603D01*
X0279329Y0152601D02*
X0267697Y0152601D01*
X0266699Y0153600D02*
X0280327Y0153600D01*
X0282026Y0154598D02*
X0265700Y0154598D01*
X0246400Y0136480D02*
X0245270Y0135350D01*
X0246680Y0135350D01*
X0246400Y0135630D01*
X0246400Y0136480D01*
X0246404Y0135626D02*
X0245546Y0135626D01*
X0287950Y0111153D02*
X0288803Y0110300D01*
X0292500Y0110300D01*
X0292500Y0109700D01*
X0288803Y0109700D01*
X0287950Y0108847D01*
X0287950Y0111153D01*
X0287950Y0110664D02*
X0288440Y0110664D01*
X0288768Y0109665D02*
X0287950Y0109665D01*
X0255113Y0105671D02*
X0113469Y0105671D01*
X0095867Y0109665D02*
X0066482Y0109665D01*
X0067480Y0108667D02*
X0094868Y0108667D01*
X0093870Y0107668D02*
X0068479Y0107668D01*
X0069200Y0106670D02*
X0092871Y0106670D01*
X0091873Y0105671D02*
X0069200Y0105671D01*
X0069200Y0104672D02*
X0090874Y0104672D01*
X0089876Y0103674D02*
X0069200Y0103674D01*
X0068822Y0102675D02*
X0088877Y0102675D01*
X0087879Y0101677D02*
X0067824Y0101677D01*
X0066825Y0100678D02*
X0086880Y0100678D01*
X0085882Y0099680D02*
X0031500Y0099680D01*
X0031500Y0100678D02*
X0041397Y0100678D01*
X0040398Y0101677D02*
X0031500Y0101677D01*
X0031500Y0102675D02*
X0039400Y0102675D01*
X0039250Y0103674D02*
X0031500Y0103674D01*
X0031500Y0104672D02*
X0039250Y0104672D01*
X0039250Y0105671D02*
X0031500Y0105671D01*
X0031500Y0106670D02*
X0039250Y0106670D01*
X0039743Y0107668D02*
X0031500Y0107668D01*
X0031500Y0108667D02*
X0040742Y0108667D01*
X0041740Y0109665D02*
X0031500Y0109665D01*
X0031500Y0110664D02*
X0041412Y0110664D01*
X0040413Y0111662D02*
X0031500Y0111662D01*
X0031500Y0112661D02*
X0039786Y0112661D01*
X0039373Y0113659D02*
X0031500Y0113659D01*
X0031500Y0114658D02*
X0039250Y0114658D01*
X0039250Y0115656D02*
X0031500Y0115656D01*
X0031500Y0116655D02*
X0039503Y0116655D01*
X0039916Y0117653D02*
X0031500Y0117653D01*
X0031500Y0118652D02*
X0040727Y0118652D01*
X0042008Y0119650D02*
X0031500Y0119650D01*
X0031500Y0098681D02*
X0084883Y0098681D01*
X0045402Y0097683D02*
X0036098Y0097683D01*
X0037952Y0096684D02*
X0043548Y0096684D01*
X0042549Y0095686D02*
X0038951Y0095686D01*
X0039439Y0094687D02*
X0042061Y0094687D01*
X0041648Y0093689D02*
X0039852Y0093689D01*
X0039900Y0092690D02*
X0041600Y0092690D01*
X0041600Y0091692D02*
X0039900Y0091692D01*
X0039597Y0090693D02*
X0041903Y0090693D01*
X0042317Y0089695D02*
X0039183Y0089695D01*
X0038333Y0088696D02*
X0043167Y0088696D01*
X0044483Y0087698D02*
X0037017Y0087698D01*
X0031983Y0087698D02*
X0031500Y0087698D01*
X0031500Y0097683D02*
X0032902Y0097683D01*
X0063111Y0067728D02*
X0067900Y0067728D01*
X0067900Y0066729D02*
X0064819Y0066729D01*
X0065818Y0065731D02*
X0067900Y0065731D01*
X0067900Y0064732D02*
X0066816Y0064732D01*
X0067815Y0063734D02*
X0067900Y0063734D01*
X0061211Y0058741D02*
X0051100Y0058741D01*
X0051100Y0057742D02*
X0058046Y0057742D01*
X0056107Y0056744D02*
X0051100Y0056744D01*
X0051391Y0055745D02*
X0055109Y0055745D01*
X0054586Y0054747D02*
X0051914Y0054747D01*
X0052328Y0053748D02*
X0054172Y0053748D01*
X0054100Y0052750D02*
X0052400Y0052750D01*
X0052400Y0051751D02*
X0054100Y0051751D01*
X0054379Y0050753D02*
X0052121Y0050753D01*
X0051708Y0049754D02*
X0054792Y0049754D01*
X0055607Y0048756D02*
X0050893Y0048756D01*
X0060954Y0057742D02*
X0061650Y0057742D01*
X0156837Y0157850D02*
X0157000Y0158244D01*
X0157163Y0157850D01*
X0156837Y0157850D01*
X0156659Y0167579D02*
X0157341Y0167579D01*
X0157865Y0168577D02*
X0156135Y0168577D01*
X0155137Y0169576D02*
X0158863Y0169576D01*
X0165137Y0169576D02*
X0168863Y0169576D01*
X0167865Y0168577D02*
X0166135Y0168577D01*
X0166659Y0167579D02*
X0167341Y0167579D01*
X0175137Y0169576D02*
X0178863Y0169576D01*
X0177865Y0168577D02*
X0176135Y0168577D01*
X0176659Y0167579D02*
X0177341Y0167579D01*
X0185137Y0169576D02*
X0188863Y0169576D01*
X0187865Y0168577D02*
X0186135Y0168577D01*
X0186659Y0167579D02*
X0187341Y0167579D01*
X0186900Y0200530D02*
X0184166Y0200530D01*
X0185165Y0201528D02*
X0186835Y0201528D01*
X0177834Y0200530D02*
X0174166Y0200530D01*
X0175165Y0201528D02*
X0176835Y0201528D01*
X0167834Y0200530D02*
X0164166Y0200530D01*
X0165165Y0201528D02*
X0166835Y0201528D01*
X0127752Y0186550D02*
X0059267Y0186550D01*
X0031500Y0180559D02*
X0121761Y0180559D01*
X0120763Y0179561D02*
X0031500Y0179561D01*
X0031500Y0178562D02*
X0119764Y0178562D01*
X0118766Y0177564D02*
X0031500Y0177564D01*
X0031500Y0176565D02*
X0117767Y0176565D01*
X0116769Y0175567D02*
X0031500Y0175567D01*
X0031500Y0174568D02*
X0115770Y0174568D01*
X0114772Y0173570D02*
X0031500Y0173570D01*
X0031500Y0172571D02*
X0113773Y0172571D01*
X0112774Y0171573D02*
X0031500Y0171573D01*
X0031500Y0170574D02*
X0111776Y0170574D01*
X0110777Y0169576D02*
X0031500Y0169576D01*
X0031500Y0168577D02*
X0109779Y0168577D01*
X0108780Y0167579D02*
X0031500Y0167579D01*
X0031500Y0166580D02*
X0107782Y0166580D01*
X0106783Y0165582D02*
X0031500Y0165582D01*
X0031500Y0164583D02*
X0105785Y0164583D01*
X0104786Y0163585D02*
X0031500Y0163585D01*
X0031500Y0162586D02*
X0103788Y0162586D01*
X0102789Y0161588D02*
X0031500Y0161588D01*
X0211100Y0200530D02*
X0213834Y0200530D01*
X0212835Y0201528D02*
X0211165Y0201528D01*
X0220166Y0200530D02*
X0223834Y0200530D01*
X0222835Y0201528D02*
X0221165Y0201528D01*
X0230166Y0200530D02*
X0233834Y0200530D01*
X0232835Y0201528D02*
X0231165Y0201528D01*
X0240166Y0200530D02*
X0243834Y0200530D01*
X0242835Y0201528D02*
X0241165Y0201528D01*
X0250166Y0200530D02*
X0253834Y0200530D01*
X0252835Y0201528D02*
X0251165Y0201528D01*
X0260166Y0200530D02*
X0263834Y0200530D01*
X0262835Y0201528D02*
X0261165Y0201528D01*
X0270166Y0200530D02*
X0273834Y0200530D01*
X0272835Y0201528D02*
X0271165Y0201528D01*
X0271119Y0208518D02*
X0272881Y0208518D01*
X0273879Y0209516D02*
X0270121Y0209516D01*
X0263879Y0209516D02*
X0260121Y0209516D01*
X0261119Y0208518D02*
X0262881Y0208518D01*
X0253879Y0209516D02*
X0250121Y0209516D01*
X0251119Y0208518D02*
X0252881Y0208518D01*
X0243879Y0209516D02*
X0240121Y0209516D01*
X0241119Y0208518D02*
X0242881Y0208518D01*
X0233879Y0209516D02*
X0230121Y0209516D01*
X0231119Y0208518D02*
X0232881Y0208518D01*
X0223879Y0209516D02*
X0220121Y0209516D01*
X0221119Y0208518D02*
X0222881Y0208518D01*
X0213879Y0209516D02*
X0210121Y0209516D01*
X0211119Y0208518D02*
X0212881Y0208518D01*
M02*
